G04 EAGLE Gerber RS-274X export*
G75*
%MOMM*%
%FSLAX34Y34*%
%LPD*%
%INTop Copper*%
%IPPOS*%
%AMOC8*
5,1,8,0,0,1.08239X$1,22.5*%
G01*
%ADD10R,2.100000X3.850000*%
%ADD11P,1.429621X8X112.500000*%
%ADD12R,1.300000X0.600000*%
%ADD13R,1.300000X1.500000*%
%ADD14R,1.000000X1.100000*%
%ADD15C,1.508000*%
%ADD16C,0.756400*%
%ADD17C,0.609600*%
%ADD18C,0.304800*%

G36*
X443740Y4766D02*
X443740Y4766D01*
X443766Y4764D01*
X443913Y4786D01*
X444060Y4803D01*
X444085Y4811D01*
X444111Y4815D01*
X444249Y4870D01*
X444388Y4920D01*
X444410Y4934D01*
X444435Y4944D01*
X444556Y5029D01*
X444681Y5109D01*
X444699Y5128D01*
X444721Y5143D01*
X444820Y5253D01*
X444923Y5360D01*
X444937Y5382D01*
X444954Y5402D01*
X445026Y5532D01*
X445102Y5659D01*
X445110Y5684D01*
X445123Y5707D01*
X445163Y5850D01*
X445208Y5991D01*
X445210Y6017D01*
X445218Y6042D01*
X445237Y6286D01*
X445237Y193714D01*
X445234Y193740D01*
X445236Y193766D01*
X445214Y193913D01*
X445197Y194060D01*
X445189Y194085D01*
X445185Y194111D01*
X445130Y194249D01*
X445080Y194388D01*
X445066Y194410D01*
X445056Y194435D01*
X444971Y194556D01*
X444891Y194681D01*
X444872Y194699D01*
X444857Y194721D01*
X444747Y194820D01*
X444640Y194923D01*
X444618Y194937D01*
X444598Y194954D01*
X444468Y195026D01*
X444341Y195102D01*
X444316Y195110D01*
X444293Y195123D01*
X444150Y195163D01*
X444009Y195208D01*
X443983Y195210D01*
X443958Y195218D01*
X443714Y195237D01*
X213384Y195237D01*
X213284Y195226D01*
X213184Y195224D01*
X213112Y195206D01*
X213038Y195197D01*
X212943Y195164D01*
X212846Y195139D01*
X212780Y195105D01*
X212710Y195080D01*
X212625Y195025D01*
X212536Y194979D01*
X212479Y194931D01*
X212417Y194891D01*
X212347Y194819D01*
X212270Y194754D01*
X212226Y194694D01*
X212175Y194640D01*
X212123Y194554D01*
X212063Y194473D01*
X212034Y194405D01*
X211996Y194341D01*
X211965Y194245D01*
X211925Y194153D01*
X211912Y194080D01*
X211889Y194009D01*
X211881Y193909D01*
X211864Y193810D01*
X211867Y193736D01*
X211861Y193662D01*
X211876Y193562D01*
X211882Y193462D01*
X211902Y193391D01*
X211913Y193317D01*
X211950Y193224D01*
X211978Y193127D01*
X212014Y193062D01*
X212042Y192993D01*
X212099Y192911D01*
X212148Y192823D01*
X212213Y192747D01*
X212241Y192707D01*
X212267Y192683D01*
X212307Y192637D01*
X223638Y181306D01*
X224489Y179252D01*
X224489Y151844D01*
X224492Y151818D01*
X224490Y151792D01*
X224512Y151645D01*
X224529Y151498D01*
X224537Y151473D01*
X224541Y151447D01*
X224596Y151309D01*
X224646Y151170D01*
X224660Y151148D01*
X224670Y151123D01*
X224755Y151002D01*
X224835Y150877D01*
X224854Y150859D01*
X224869Y150837D01*
X224979Y150738D01*
X225086Y150635D01*
X225108Y150621D01*
X225128Y150604D01*
X225258Y150532D01*
X225385Y150456D01*
X225410Y150448D01*
X225433Y150435D01*
X225576Y150395D01*
X225717Y150350D01*
X225743Y150348D01*
X225768Y150340D01*
X226012Y150321D01*
X226452Y150321D01*
X227941Y148832D01*
X227941Y140728D01*
X226452Y139239D01*
X220431Y139239D01*
X220429Y139239D01*
X220426Y139239D01*
X220254Y139219D01*
X220084Y139199D01*
X220082Y139199D01*
X220080Y139198D01*
X220058Y139191D01*
X217714Y139191D01*
X217617Y139219D01*
X217615Y139219D01*
X217613Y139220D01*
X217369Y139239D01*
X211348Y139239D01*
X209928Y140659D01*
X209811Y140752D01*
X209696Y140849D01*
X209674Y140860D01*
X209655Y140875D01*
X209520Y140939D01*
X209386Y141008D01*
X209362Y141014D01*
X209340Y141024D01*
X209193Y141056D01*
X209047Y141092D01*
X209023Y141092D01*
X208999Y141097D01*
X208850Y141095D01*
X208699Y141097D01*
X208675Y141092D01*
X208651Y141091D01*
X208505Y141055D01*
X208358Y141023D01*
X208337Y141012D01*
X208313Y141006D01*
X208179Y140937D01*
X208044Y140873D01*
X208025Y140858D01*
X208003Y140847D01*
X207889Y140749D01*
X207771Y140656D01*
X207756Y140637D01*
X207738Y140621D01*
X207648Y140500D01*
X207555Y140382D01*
X207542Y140356D01*
X207531Y140341D01*
X207512Y140297D01*
X207444Y140164D01*
X206820Y138658D01*
X205971Y137809D01*
X205892Y137710D01*
X205808Y137616D01*
X205784Y137574D01*
X205754Y137536D01*
X205700Y137422D01*
X205639Y137311D01*
X205626Y137265D01*
X205605Y137221D01*
X205579Y137098D01*
X205544Y136976D01*
X205539Y136915D01*
X205532Y136880D01*
X205533Y136832D01*
X205525Y136732D01*
X205525Y76628D01*
X205539Y76502D01*
X205546Y76376D01*
X205559Y76330D01*
X205565Y76282D01*
X205607Y76163D01*
X205642Y76041D01*
X205666Y75999D01*
X205682Y75954D01*
X205751Y75847D01*
X205812Y75737D01*
X205852Y75691D01*
X205871Y75661D01*
X205906Y75627D01*
X205971Y75551D01*
X206820Y74702D01*
X207783Y72378D01*
X207783Y69862D01*
X206820Y67538D01*
X205042Y65760D01*
X202718Y64797D01*
X200202Y64797D01*
X197878Y65760D01*
X196100Y67538D01*
X195137Y69862D01*
X195137Y72378D01*
X196100Y74702D01*
X196949Y75551D01*
X197028Y75650D01*
X197112Y75744D01*
X197136Y75786D01*
X197166Y75824D01*
X197220Y75938D01*
X197281Y76049D01*
X197294Y76095D01*
X197315Y76139D01*
X197341Y76262D01*
X197376Y76384D01*
X197381Y76445D01*
X197388Y76480D01*
X197387Y76528D01*
X197395Y76628D01*
X197395Y101092D01*
X197392Y101118D01*
X197394Y101144D01*
X197372Y101291D01*
X197355Y101438D01*
X197347Y101463D01*
X197343Y101489D01*
X197288Y101627D01*
X197238Y101766D01*
X197224Y101788D01*
X197214Y101813D01*
X197129Y101934D01*
X197049Y102059D01*
X197030Y102077D01*
X197015Y102099D01*
X196905Y102198D01*
X196798Y102301D01*
X196776Y102315D01*
X196756Y102332D01*
X196626Y102404D01*
X196499Y102480D01*
X196474Y102488D01*
X196451Y102501D01*
X196308Y102541D01*
X196167Y102586D01*
X196141Y102588D01*
X196116Y102596D01*
X195872Y102615D01*
X141356Y102615D01*
X135782Y108189D01*
X135683Y108268D01*
X135590Y108352D01*
X135547Y108376D01*
X135509Y108406D01*
X135395Y108460D01*
X135285Y108521D01*
X135238Y108534D01*
X135194Y108555D01*
X135071Y108581D01*
X134949Y108616D01*
X134888Y108621D01*
X134854Y108628D01*
X134806Y108627D01*
X134705Y108635D01*
X84499Y108635D01*
X84373Y108621D01*
X84247Y108614D01*
X84201Y108601D01*
X84153Y108595D01*
X84034Y108553D01*
X83912Y108518D01*
X83870Y108494D01*
X83824Y108478D01*
X83718Y108409D01*
X83608Y108348D01*
X83562Y108308D01*
X83532Y108289D01*
X83498Y108254D01*
X83422Y108189D01*
X78788Y103555D01*
X71212Y103555D01*
X65855Y108912D01*
X65855Y116488D01*
X71212Y121845D01*
X78788Y121845D01*
X83422Y117211D01*
X83521Y117132D01*
X83615Y117048D01*
X83657Y117024D01*
X83695Y116994D01*
X83809Y116940D01*
X83920Y116879D01*
X83966Y116866D01*
X84010Y116845D01*
X84133Y116819D01*
X84255Y116784D01*
X84316Y116779D01*
X84350Y116772D01*
X84399Y116773D01*
X84499Y116765D01*
X138704Y116765D01*
X144143Y111326D01*
X144240Y111248D01*
X144333Y111164D01*
X144377Y111140D01*
X144416Y111109D01*
X144529Y111056D01*
X144638Y110995D01*
X144686Y110982D01*
X144731Y110960D01*
X144853Y110934D01*
X144973Y110900D01*
X145023Y110897D01*
X145071Y110887D01*
X145196Y110889D01*
X145321Y110883D01*
X145370Y110892D01*
X145420Y110893D01*
X145541Y110923D01*
X145664Y110946D01*
X145710Y110966D01*
X145758Y110978D01*
X145869Y111035D01*
X145984Y111085D01*
X146023Y111115D01*
X146068Y111138D01*
X146163Y111219D01*
X146263Y111293D01*
X146295Y111331D01*
X146333Y111363D01*
X146407Y111464D01*
X146488Y111559D01*
X146511Y111604D01*
X146540Y111644D01*
X146590Y111758D01*
X146647Y111870D01*
X146659Y111918D01*
X146678Y111964D01*
X146700Y112087D01*
X146730Y112208D01*
X146731Y112258D01*
X146740Y112307D01*
X146733Y112432D01*
X146735Y112557D01*
X146724Y112618D01*
X146722Y112655D01*
X146709Y112701D01*
X146691Y112797D01*
X146509Y113475D01*
X146509Y130013D01*
X158026Y130013D01*
X158052Y130016D01*
X158078Y130014D01*
X158225Y130036D01*
X158372Y130053D01*
X158397Y130061D01*
X158423Y130065D01*
X158561Y130120D01*
X158700Y130170D01*
X158722Y130184D01*
X158747Y130194D01*
X158868Y130279D01*
X158993Y130359D01*
X159011Y130378D01*
X159033Y130393D01*
X159132Y130503D01*
X159235Y130610D01*
X159249Y130632D01*
X159266Y130652D01*
X159338Y130782D01*
X159414Y130909D01*
X159422Y130934D01*
X159435Y130957D01*
X159475Y131100D01*
X159520Y131241D01*
X159522Y131267D01*
X159530Y131292D01*
X159549Y131536D01*
X159549Y133061D01*
X159551Y133061D01*
X159551Y131536D01*
X159554Y131510D01*
X159552Y131484D01*
X159574Y131337D01*
X159591Y131190D01*
X159600Y131165D01*
X159603Y131139D01*
X159658Y131001D01*
X159708Y130862D01*
X159722Y130840D01*
X159732Y130815D01*
X159817Y130694D01*
X159897Y130569D01*
X159916Y130551D01*
X159931Y130529D01*
X160041Y130430D01*
X160148Y130327D01*
X160170Y130313D01*
X160190Y130296D01*
X160320Y130224D01*
X160447Y130148D01*
X160472Y130140D01*
X160495Y130127D01*
X160638Y130087D01*
X160779Y130042D01*
X160805Y130040D01*
X160830Y130032D01*
X161074Y130013D01*
X172591Y130013D01*
X172591Y113475D01*
X172373Y112662D01*
X172365Y112612D01*
X172350Y112563D01*
X172340Y112440D01*
X172322Y112317D01*
X172326Y112267D01*
X172322Y112216D01*
X172340Y112093D01*
X172350Y111970D01*
X172366Y111922D01*
X172374Y111871D01*
X172419Y111756D01*
X172457Y111638D01*
X172483Y111595D01*
X172502Y111547D01*
X172573Y111446D01*
X172637Y111340D01*
X172672Y111303D01*
X172701Y111261D01*
X172793Y111178D01*
X172879Y111089D01*
X172922Y111062D01*
X172960Y111028D01*
X173068Y110968D01*
X173172Y110901D01*
X173220Y110884D01*
X173265Y110859D01*
X173384Y110826D01*
X173501Y110784D01*
X173551Y110778D01*
X173600Y110764D01*
X173844Y110745D01*
X195872Y110745D01*
X195898Y110748D01*
X195924Y110746D01*
X196071Y110768D01*
X196218Y110785D01*
X196243Y110793D01*
X196269Y110797D01*
X196407Y110852D01*
X196546Y110902D01*
X196568Y110916D01*
X196593Y110926D01*
X196714Y111011D01*
X196839Y111091D01*
X196857Y111110D01*
X196879Y111125D01*
X196978Y111235D01*
X197081Y111342D01*
X197095Y111364D01*
X197112Y111384D01*
X197184Y111514D01*
X197260Y111641D01*
X197268Y111666D01*
X197281Y111689D01*
X197321Y111832D01*
X197366Y111973D01*
X197368Y111999D01*
X197376Y112024D01*
X197395Y112268D01*
X197395Y136732D01*
X197381Y136858D01*
X197374Y136984D01*
X197361Y137030D01*
X197355Y137078D01*
X197313Y137197D01*
X197278Y137319D01*
X197254Y137361D01*
X197238Y137406D01*
X197169Y137513D01*
X197108Y137623D01*
X197068Y137669D01*
X197049Y137699D01*
X197014Y137733D01*
X196949Y137809D01*
X196100Y138658D01*
X195137Y140982D01*
X195137Y143498D01*
X196100Y145822D01*
X197878Y147600D01*
X200202Y148563D01*
X202718Y148563D01*
X205042Y147600D01*
X206820Y145822D01*
X206929Y145559D01*
X206953Y145516D01*
X206970Y145468D01*
X207038Y145363D01*
X207098Y145255D01*
X207132Y145218D01*
X207159Y145175D01*
X207249Y145089D01*
X207332Y144997D01*
X207374Y144968D01*
X207410Y144933D01*
X207517Y144869D01*
X207619Y144798D01*
X207666Y144780D01*
X207709Y144754D01*
X207827Y144716D01*
X207943Y144671D01*
X207993Y144663D01*
X208041Y144648D01*
X208165Y144638D01*
X208288Y144620D01*
X208338Y144624D01*
X208388Y144620D01*
X208511Y144638D01*
X208635Y144649D01*
X208683Y144664D01*
X208733Y144672D01*
X208848Y144718D01*
X208967Y144756D01*
X209010Y144782D01*
X209057Y144800D01*
X209159Y144871D01*
X209265Y144935D01*
X209302Y144971D01*
X209343Y144999D01*
X209426Y145092D01*
X209515Y145178D01*
X209543Y145221D01*
X209576Y145258D01*
X209636Y145367D01*
X209704Y145472D01*
X209721Y145519D01*
X209745Y145563D01*
X209779Y145683D01*
X209820Y145800D01*
X209826Y145850D01*
X209840Y145899D01*
X209859Y146142D01*
X209859Y148832D01*
X211348Y150321D01*
X211788Y150321D01*
X211814Y150324D01*
X211840Y150322D01*
X211987Y150344D01*
X212134Y150361D01*
X212159Y150369D01*
X212185Y150373D01*
X212323Y150428D01*
X212462Y150478D01*
X212484Y150492D01*
X212509Y150502D01*
X212630Y150587D01*
X212755Y150667D01*
X212773Y150686D01*
X212795Y150701D01*
X212894Y150811D01*
X212997Y150918D01*
X213011Y150940D01*
X213028Y150960D01*
X213100Y151090D01*
X213176Y151217D01*
X213184Y151242D01*
X213197Y151265D01*
X213237Y151408D01*
X213282Y151549D01*
X213284Y151575D01*
X213292Y151600D01*
X213311Y151844D01*
X213311Y175194D01*
X213297Y175320D01*
X213290Y175446D01*
X213277Y175492D01*
X213271Y175540D01*
X213229Y175659D01*
X213194Y175781D01*
X213170Y175823D01*
X213154Y175868D01*
X213085Y175975D01*
X213024Y176085D01*
X212984Y176131D01*
X212965Y176161D01*
X212930Y176195D01*
X212865Y176271D01*
X204061Y185075D01*
X203962Y185154D01*
X203868Y185238D01*
X203826Y185262D01*
X203788Y185292D01*
X203674Y185346D01*
X203563Y185407D01*
X203517Y185420D01*
X203473Y185441D01*
X203350Y185467D01*
X203228Y185502D01*
X203167Y185507D01*
X203132Y185514D01*
X203084Y185513D01*
X202984Y185521D01*
X106193Y185521D01*
X106067Y185507D01*
X105941Y185500D01*
X105894Y185487D01*
X105846Y185481D01*
X105727Y185439D01*
X105606Y185404D01*
X105564Y185380D01*
X105518Y185364D01*
X105412Y185295D01*
X105302Y185234D01*
X105256Y185194D01*
X105225Y185175D01*
X105192Y185140D01*
X105115Y185075D01*
X49577Y129537D01*
X49515Y129459D01*
X49445Y129386D01*
X49407Y129322D01*
X49361Y129264D01*
X49318Y129173D01*
X49266Y129087D01*
X49244Y129016D01*
X49212Y128949D01*
X49191Y128851D01*
X49160Y128755D01*
X49154Y128681D01*
X49138Y128608D01*
X49140Y128508D01*
X49132Y128408D01*
X49143Y128334D01*
X49144Y128260D01*
X49169Y128163D01*
X49184Y128063D01*
X49211Y127994D01*
X49229Y127922D01*
X49275Y127832D01*
X49313Y127739D01*
X49355Y127678D01*
X49389Y127612D01*
X49454Y127535D01*
X49511Y127453D01*
X49567Y127403D01*
X49615Y127347D01*
X49696Y127287D01*
X49770Y127220D01*
X49835Y127184D01*
X49895Y127139D01*
X49987Y127100D01*
X50075Y127051D01*
X50147Y127031D01*
X50215Y127001D01*
X50314Y126984D01*
X50411Y126956D01*
X50511Y126948D01*
X50558Y126940D01*
X50594Y126942D01*
X50654Y126937D01*
X53625Y126937D01*
X57132Y124912D01*
X59157Y121405D01*
X59157Y79255D01*
X57132Y75748D01*
X53625Y73723D01*
X49994Y73723D01*
X49895Y73712D01*
X49794Y73710D01*
X49722Y73692D01*
X49648Y73683D01*
X49554Y73650D01*
X49456Y73625D01*
X49390Y73591D01*
X49320Y73566D01*
X49236Y73511D01*
X49146Y73465D01*
X49090Y73417D01*
X49027Y73377D01*
X48958Y73305D01*
X48881Y73240D01*
X48837Y73180D01*
X48785Y73126D01*
X48734Y73040D01*
X48674Y72959D01*
X48644Y72891D01*
X48606Y72827D01*
X48576Y72731D01*
X48536Y72639D01*
X48523Y72566D01*
X48500Y72495D01*
X48492Y72395D01*
X48474Y72296D01*
X48478Y72222D01*
X48472Y72148D01*
X48487Y72048D01*
X48492Y71948D01*
X48513Y71877D01*
X48524Y71803D01*
X48561Y71710D01*
X48589Y71613D01*
X48625Y71548D01*
X48653Y71479D01*
X48710Y71397D01*
X48759Y71309D01*
X48824Y71233D01*
X48851Y71193D01*
X48878Y71169D01*
X48917Y71123D01*
X86065Y33975D01*
X86164Y33896D01*
X86258Y33812D01*
X86301Y33788D01*
X86338Y33758D01*
X86453Y33704D01*
X86563Y33643D01*
X86610Y33630D01*
X86654Y33609D01*
X86777Y33583D01*
X86899Y33548D01*
X86959Y33543D01*
X86994Y33536D01*
X87042Y33537D01*
X87143Y33529D01*
X110276Y33529D01*
X110302Y33532D01*
X110328Y33530D01*
X110475Y33552D01*
X110622Y33569D01*
X110647Y33577D01*
X110673Y33581D01*
X110811Y33636D01*
X110950Y33686D01*
X110972Y33700D01*
X110997Y33710D01*
X111118Y33795D01*
X111243Y33875D01*
X111261Y33894D01*
X111283Y33909D01*
X111382Y34019D01*
X111485Y34126D01*
X111499Y34148D01*
X111516Y34168D01*
X111588Y34298D01*
X111664Y34425D01*
X111672Y34450D01*
X111685Y34473D01*
X111725Y34616D01*
X111770Y34757D01*
X111772Y34783D01*
X111780Y34808D01*
X111799Y35052D01*
X111799Y36492D01*
X113288Y37981D01*
X128392Y37981D01*
X129263Y37110D01*
X129283Y37094D01*
X129300Y37074D01*
X129420Y36986D01*
X129536Y36894D01*
X129560Y36882D01*
X129581Y36867D01*
X129717Y36808D01*
X129851Y36745D01*
X129877Y36739D01*
X129901Y36729D01*
X130047Y36703D01*
X130192Y36671D01*
X130218Y36672D01*
X130244Y36667D01*
X130392Y36675D01*
X130540Y36677D01*
X130566Y36684D01*
X130592Y36685D01*
X130734Y36726D01*
X130878Y36762D01*
X130901Y36774D01*
X130927Y36782D01*
X131056Y36854D01*
X131188Y36922D01*
X131208Y36939D01*
X131231Y36952D01*
X131417Y37110D01*
X132288Y37981D01*
X147392Y37981D01*
X148881Y36492D01*
X148881Y35052D01*
X148884Y35026D01*
X148882Y35000D01*
X148904Y34853D01*
X148921Y34706D01*
X148929Y34681D01*
X148933Y34655D01*
X148988Y34517D01*
X149038Y34378D01*
X149052Y34356D01*
X149062Y34331D01*
X149147Y34210D01*
X149227Y34085D01*
X149246Y34067D01*
X149261Y34045D01*
X149371Y33946D01*
X149478Y33843D01*
X149500Y33829D01*
X149520Y33812D01*
X149650Y33740D01*
X149777Y33664D01*
X149802Y33656D01*
X149825Y33643D01*
X149968Y33603D01*
X150109Y33558D01*
X150135Y33556D01*
X150160Y33548D01*
X150404Y33529D01*
X150916Y33529D01*
X150942Y33532D01*
X150968Y33530D01*
X151115Y33552D01*
X151262Y33569D01*
X151287Y33577D01*
X151313Y33581D01*
X151451Y33636D01*
X151590Y33686D01*
X151612Y33700D01*
X151637Y33710D01*
X151758Y33795D01*
X151883Y33875D01*
X151901Y33894D01*
X151923Y33909D01*
X152022Y34019D01*
X152125Y34126D01*
X152139Y34148D01*
X152156Y34168D01*
X152228Y34298D01*
X152304Y34425D01*
X152312Y34450D01*
X152325Y34473D01*
X152365Y34616D01*
X152410Y34757D01*
X152412Y34783D01*
X152420Y34808D01*
X152439Y35052D01*
X152439Y36492D01*
X153956Y38009D01*
X154054Y38021D01*
X154079Y38029D01*
X154105Y38033D01*
X154243Y38088D01*
X154382Y38138D01*
X154404Y38152D01*
X154429Y38162D01*
X154550Y38247D01*
X154675Y38327D01*
X154693Y38346D01*
X154715Y38361D01*
X154814Y38471D01*
X154917Y38578D01*
X154931Y38600D01*
X154948Y38620D01*
X155020Y38750D01*
X155096Y38877D01*
X155104Y38902D01*
X155117Y38925D01*
X155157Y39068D01*
X155202Y39209D01*
X155204Y39235D01*
X155212Y39260D01*
X155231Y39504D01*
X155231Y41746D01*
X155228Y41772D01*
X155230Y41798D01*
X155208Y41945D01*
X155191Y42092D01*
X155183Y42117D01*
X155179Y42143D01*
X155124Y42281D01*
X155074Y42420D01*
X155060Y42442D01*
X155050Y42467D01*
X154965Y42588D01*
X154885Y42713D01*
X154866Y42731D01*
X154851Y42753D01*
X154741Y42852D01*
X154634Y42955D01*
X154612Y42969D01*
X154592Y42986D01*
X154462Y43058D01*
X154335Y43134D01*
X154310Y43142D01*
X154287Y43155D01*
X154144Y43195D01*
X154003Y43240D01*
X153977Y43242D01*
X153952Y43250D01*
X153708Y43269D01*
X147998Y43269D01*
X146509Y44758D01*
X146509Y85362D01*
X147998Y86851D01*
X171102Y86851D01*
X172591Y85362D01*
X172591Y44758D01*
X171102Y43269D01*
X167932Y43269D01*
X167906Y43266D01*
X167880Y43268D01*
X167733Y43246D01*
X167586Y43229D01*
X167561Y43221D01*
X167535Y43217D01*
X167397Y43162D01*
X167258Y43112D01*
X167236Y43098D01*
X167211Y43088D01*
X167090Y43003D01*
X166965Y42923D01*
X166947Y42904D01*
X166925Y42889D01*
X166826Y42779D01*
X166723Y42672D01*
X166709Y42650D01*
X166692Y42630D01*
X166620Y42500D01*
X166544Y42373D01*
X166536Y42348D01*
X166523Y42325D01*
X166483Y42182D01*
X166438Y42041D01*
X166436Y42015D01*
X166428Y41990D01*
X166409Y41746D01*
X166409Y39504D01*
X166412Y39478D01*
X166410Y39452D01*
X166432Y39305D01*
X166449Y39158D01*
X166457Y39133D01*
X166461Y39107D01*
X166516Y38969D01*
X166566Y38830D01*
X166580Y38808D01*
X166590Y38783D01*
X166675Y38662D01*
X166755Y38537D01*
X166774Y38519D01*
X166789Y38497D01*
X166899Y38398D01*
X167006Y38295D01*
X167028Y38281D01*
X167048Y38264D01*
X167178Y38192D01*
X167305Y38116D01*
X167330Y38108D01*
X167353Y38095D01*
X167496Y38055D01*
X167637Y38010D01*
X167663Y38008D01*
X167688Y38000D01*
X167932Y37981D01*
X169032Y37981D01*
X169903Y37110D01*
X169923Y37094D01*
X169940Y37074D01*
X170060Y36986D01*
X170176Y36894D01*
X170200Y36882D01*
X170221Y36867D01*
X170357Y36808D01*
X170491Y36745D01*
X170517Y36739D01*
X170541Y36729D01*
X170687Y36703D01*
X170832Y36671D01*
X170858Y36672D01*
X170884Y36667D01*
X171032Y36675D01*
X171180Y36677D01*
X171206Y36684D01*
X171232Y36685D01*
X171374Y36726D01*
X171518Y36762D01*
X171541Y36774D01*
X171567Y36782D01*
X171696Y36854D01*
X171828Y36922D01*
X171848Y36939D01*
X171871Y36952D01*
X172057Y37110D01*
X172928Y37981D01*
X188032Y37981D01*
X189521Y36492D01*
X189521Y35052D01*
X189524Y35026D01*
X189522Y35000D01*
X189544Y34853D01*
X189561Y34706D01*
X189569Y34681D01*
X189573Y34655D01*
X189628Y34517D01*
X189678Y34378D01*
X189692Y34356D01*
X189702Y34331D01*
X189787Y34210D01*
X189867Y34085D01*
X189886Y34067D01*
X189901Y34045D01*
X190011Y33946D01*
X190118Y33843D01*
X190140Y33829D01*
X190160Y33812D01*
X190290Y33740D01*
X190417Y33664D01*
X190442Y33656D01*
X190465Y33643D01*
X190608Y33603D01*
X190749Y33558D01*
X190775Y33556D01*
X190800Y33548D01*
X191044Y33529D01*
X217812Y33529D01*
X219866Y32678D01*
X236349Y16195D01*
X236448Y16116D01*
X236542Y16032D01*
X236584Y16008D01*
X236622Y15978D01*
X236736Y15924D01*
X236847Y15863D01*
X236893Y15850D01*
X236937Y15829D01*
X237060Y15803D01*
X237182Y15768D01*
X237243Y15763D01*
X237278Y15756D01*
X237326Y15757D01*
X237426Y15749D01*
X243688Y15749D01*
X243787Y15760D01*
X243888Y15762D01*
X243960Y15780D01*
X244034Y15789D01*
X244128Y15822D01*
X244226Y15847D01*
X244292Y15881D01*
X244362Y15906D01*
X244446Y15961D01*
X244536Y16007D01*
X244592Y16055D01*
X244655Y16095D01*
X244724Y16167D01*
X244801Y16232D01*
X244845Y16292D01*
X244897Y16346D01*
X244948Y16432D01*
X245008Y16513D01*
X245038Y16581D01*
X245076Y16645D01*
X245106Y16740D01*
X245146Y16833D01*
X245159Y16906D01*
X245182Y16977D01*
X245190Y17077D01*
X245208Y17176D01*
X245204Y17250D01*
X245210Y17324D01*
X245195Y17423D01*
X245190Y17524D01*
X245169Y17595D01*
X245158Y17669D01*
X245121Y17762D01*
X245093Y17859D01*
X245057Y17924D01*
X245029Y17993D01*
X244972Y18075D01*
X244923Y18163D01*
X244858Y18239D01*
X244831Y18279D01*
X244804Y18303D01*
X244765Y18349D01*
X244604Y18510D01*
X243069Y22215D01*
X243069Y26225D01*
X244604Y29930D01*
X247440Y32766D01*
X251145Y34301D01*
X255155Y34301D01*
X258860Y32766D01*
X261696Y29930D01*
X263231Y26225D01*
X263231Y22215D01*
X261696Y18510D01*
X261535Y18349D01*
X261473Y18270D01*
X261403Y18198D01*
X261365Y18134D01*
X261319Y18076D01*
X261276Y17985D01*
X261224Y17899D01*
X261202Y17828D01*
X261170Y17761D01*
X261149Y17663D01*
X261118Y17567D01*
X261112Y17493D01*
X261096Y17420D01*
X261098Y17320D01*
X261090Y17220D01*
X261101Y17146D01*
X261102Y17072D01*
X261127Y16974D01*
X261142Y16875D01*
X261169Y16806D01*
X261187Y16734D01*
X261233Y16645D01*
X261271Y16551D01*
X261313Y16490D01*
X261347Y16424D01*
X261412Y16348D01*
X261469Y16265D01*
X261525Y16215D01*
X261573Y16159D01*
X261654Y16099D01*
X261728Y16032D01*
X261793Y15996D01*
X261853Y15951D01*
X261945Y15912D01*
X262033Y15863D01*
X262105Y15843D01*
X262173Y15813D01*
X262272Y15796D01*
X262369Y15768D01*
X262469Y15760D01*
X262516Y15752D01*
X262552Y15754D01*
X262612Y15749D01*
X269088Y15749D01*
X269187Y15760D01*
X269288Y15762D01*
X269360Y15780D01*
X269434Y15789D01*
X269528Y15822D01*
X269626Y15847D01*
X269692Y15881D01*
X269762Y15906D01*
X269846Y15961D01*
X269936Y16007D01*
X269992Y16055D01*
X270055Y16095D01*
X270124Y16167D01*
X270201Y16232D01*
X270245Y16292D01*
X270297Y16346D01*
X270348Y16432D01*
X270408Y16513D01*
X270438Y16581D01*
X270476Y16645D01*
X270506Y16740D01*
X270546Y16833D01*
X270559Y16906D01*
X270582Y16977D01*
X270590Y17077D01*
X270608Y17176D01*
X270604Y17250D01*
X270610Y17324D01*
X270595Y17423D01*
X270590Y17524D01*
X270569Y17595D01*
X270558Y17669D01*
X270521Y17762D01*
X270493Y17859D01*
X270457Y17924D01*
X270429Y17993D01*
X270372Y18075D01*
X270323Y18163D01*
X270258Y18239D01*
X270231Y18279D01*
X270204Y18303D01*
X270165Y18349D01*
X270004Y18510D01*
X268469Y22215D01*
X268469Y26225D01*
X270004Y29930D01*
X272840Y32766D01*
X276545Y34301D01*
X280555Y34301D01*
X284260Y32766D01*
X287096Y29930D01*
X288631Y26225D01*
X288631Y22215D01*
X287096Y18510D01*
X286935Y18349D01*
X286873Y18270D01*
X286803Y18198D01*
X286765Y18134D01*
X286719Y18076D01*
X286676Y17985D01*
X286624Y17899D01*
X286602Y17828D01*
X286570Y17761D01*
X286549Y17663D01*
X286518Y17567D01*
X286512Y17493D01*
X286496Y17420D01*
X286498Y17320D01*
X286490Y17220D01*
X286501Y17146D01*
X286502Y17072D01*
X286527Y16974D01*
X286542Y16875D01*
X286569Y16806D01*
X286587Y16734D01*
X286633Y16645D01*
X286671Y16551D01*
X286713Y16490D01*
X286747Y16424D01*
X286812Y16348D01*
X286869Y16265D01*
X286925Y16215D01*
X286973Y16159D01*
X287054Y16099D01*
X287128Y16032D01*
X287193Y15996D01*
X287253Y15951D01*
X287345Y15912D01*
X287433Y15863D01*
X287505Y15843D01*
X287573Y15813D01*
X287672Y15796D01*
X287769Y15768D01*
X287869Y15760D01*
X287916Y15752D01*
X287952Y15754D01*
X288012Y15749D01*
X294488Y15749D01*
X294587Y15760D01*
X294688Y15762D01*
X294760Y15780D01*
X294834Y15789D01*
X294928Y15822D01*
X295026Y15847D01*
X295092Y15881D01*
X295162Y15906D01*
X295246Y15961D01*
X295336Y16007D01*
X295392Y16055D01*
X295455Y16095D01*
X295524Y16167D01*
X295601Y16232D01*
X295645Y16292D01*
X295697Y16346D01*
X295748Y16432D01*
X295808Y16513D01*
X295838Y16581D01*
X295876Y16645D01*
X295906Y16740D01*
X295946Y16833D01*
X295959Y16906D01*
X295982Y16977D01*
X295990Y17077D01*
X296008Y17176D01*
X296004Y17250D01*
X296010Y17324D01*
X295995Y17423D01*
X295990Y17524D01*
X295969Y17595D01*
X295958Y17669D01*
X295921Y17762D01*
X295893Y17859D01*
X295857Y17924D01*
X295829Y17993D01*
X295772Y18075D01*
X295723Y18163D01*
X295658Y18239D01*
X295631Y18279D01*
X295604Y18303D01*
X295565Y18349D01*
X295404Y18510D01*
X293869Y22215D01*
X293869Y26225D01*
X295404Y29930D01*
X298240Y32766D01*
X301945Y34301D01*
X305955Y34301D01*
X309660Y32766D01*
X312496Y29930D01*
X314031Y26225D01*
X314031Y22215D01*
X312496Y18510D01*
X312335Y18349D01*
X312273Y18270D01*
X312203Y18198D01*
X312165Y18134D01*
X312119Y18076D01*
X312076Y17985D01*
X312024Y17899D01*
X312002Y17828D01*
X311970Y17761D01*
X311949Y17663D01*
X311918Y17567D01*
X311912Y17493D01*
X311896Y17420D01*
X311898Y17320D01*
X311890Y17220D01*
X311901Y17146D01*
X311902Y17072D01*
X311927Y16974D01*
X311942Y16875D01*
X311969Y16806D01*
X311987Y16734D01*
X312033Y16645D01*
X312071Y16551D01*
X312113Y16490D01*
X312147Y16424D01*
X312212Y16348D01*
X312269Y16265D01*
X312325Y16215D01*
X312373Y16159D01*
X312454Y16099D01*
X312528Y16032D01*
X312593Y15996D01*
X312653Y15951D01*
X312745Y15912D01*
X312833Y15863D01*
X312905Y15843D01*
X312973Y15813D01*
X313072Y15796D01*
X313169Y15768D01*
X313269Y15760D01*
X313316Y15752D01*
X313352Y15754D01*
X313412Y15749D01*
X319888Y15749D01*
X319987Y15760D01*
X320088Y15762D01*
X320160Y15780D01*
X320234Y15789D01*
X320328Y15822D01*
X320426Y15847D01*
X320492Y15881D01*
X320562Y15906D01*
X320646Y15961D01*
X320736Y16007D01*
X320792Y16055D01*
X320855Y16095D01*
X320924Y16167D01*
X321001Y16232D01*
X321045Y16292D01*
X321097Y16346D01*
X321148Y16432D01*
X321208Y16513D01*
X321238Y16581D01*
X321276Y16645D01*
X321306Y16740D01*
X321346Y16833D01*
X321359Y16906D01*
X321382Y16977D01*
X321390Y17077D01*
X321408Y17176D01*
X321404Y17250D01*
X321410Y17324D01*
X321395Y17423D01*
X321390Y17524D01*
X321369Y17595D01*
X321358Y17669D01*
X321321Y17762D01*
X321293Y17859D01*
X321257Y17924D01*
X321229Y17993D01*
X321172Y18075D01*
X321123Y18163D01*
X321058Y18239D01*
X321031Y18279D01*
X321004Y18303D01*
X320965Y18349D01*
X320804Y18510D01*
X319269Y22215D01*
X319269Y26225D01*
X320804Y29930D01*
X323640Y32766D01*
X327345Y34301D01*
X331355Y34301D01*
X335060Y32766D01*
X337896Y29930D01*
X339431Y26225D01*
X339431Y22215D01*
X337896Y18510D01*
X337735Y18349D01*
X337673Y18270D01*
X337603Y18198D01*
X337565Y18134D01*
X337519Y18076D01*
X337476Y17985D01*
X337424Y17899D01*
X337402Y17828D01*
X337370Y17761D01*
X337349Y17663D01*
X337318Y17567D01*
X337312Y17493D01*
X337296Y17420D01*
X337298Y17320D01*
X337290Y17220D01*
X337301Y17146D01*
X337302Y17072D01*
X337327Y16974D01*
X337342Y16875D01*
X337369Y16806D01*
X337387Y16734D01*
X337433Y16645D01*
X337471Y16551D01*
X337513Y16490D01*
X337547Y16424D01*
X337612Y16348D01*
X337669Y16265D01*
X337725Y16215D01*
X337773Y16159D01*
X337854Y16099D01*
X337928Y16032D01*
X337993Y15996D01*
X338053Y15951D01*
X338145Y15912D01*
X338233Y15863D01*
X338305Y15843D01*
X338373Y15813D01*
X338472Y15796D01*
X338569Y15768D01*
X338669Y15760D01*
X338716Y15752D01*
X338752Y15754D01*
X338812Y15749D01*
X345288Y15749D01*
X345387Y15760D01*
X345488Y15762D01*
X345560Y15780D01*
X345634Y15789D01*
X345728Y15822D01*
X345826Y15847D01*
X345892Y15881D01*
X345962Y15906D01*
X346046Y15961D01*
X346136Y16007D01*
X346192Y16055D01*
X346255Y16095D01*
X346324Y16167D01*
X346401Y16232D01*
X346445Y16292D01*
X346497Y16346D01*
X346548Y16432D01*
X346608Y16513D01*
X346638Y16581D01*
X346676Y16645D01*
X346706Y16740D01*
X346746Y16833D01*
X346759Y16906D01*
X346782Y16977D01*
X346790Y17077D01*
X346808Y17176D01*
X346804Y17250D01*
X346810Y17324D01*
X346795Y17423D01*
X346790Y17524D01*
X346769Y17595D01*
X346758Y17669D01*
X346721Y17762D01*
X346693Y17859D01*
X346657Y17924D01*
X346629Y17993D01*
X346572Y18075D01*
X346523Y18163D01*
X346458Y18239D01*
X346431Y18279D01*
X346404Y18303D01*
X346365Y18349D01*
X346204Y18510D01*
X344669Y22215D01*
X344669Y26225D01*
X346204Y29930D01*
X349040Y32766D01*
X352745Y34301D01*
X356755Y34301D01*
X360460Y32766D01*
X363296Y29930D01*
X364831Y26225D01*
X364831Y22215D01*
X363296Y18510D01*
X363135Y18349D01*
X363073Y18270D01*
X363003Y18198D01*
X362965Y18134D01*
X362919Y18076D01*
X362876Y17985D01*
X362824Y17899D01*
X362802Y17828D01*
X362770Y17761D01*
X362749Y17663D01*
X362718Y17567D01*
X362712Y17493D01*
X362696Y17420D01*
X362698Y17320D01*
X362690Y17220D01*
X362701Y17146D01*
X362702Y17072D01*
X362727Y16974D01*
X362742Y16875D01*
X362769Y16806D01*
X362787Y16734D01*
X362833Y16645D01*
X362871Y16551D01*
X362913Y16490D01*
X362947Y16424D01*
X363012Y16348D01*
X363069Y16265D01*
X363125Y16215D01*
X363173Y16159D01*
X363254Y16099D01*
X363328Y16032D01*
X363393Y15996D01*
X363453Y15951D01*
X363545Y15912D01*
X363633Y15863D01*
X363705Y15843D01*
X363773Y15813D01*
X363872Y15796D01*
X363969Y15768D01*
X364069Y15760D01*
X364116Y15752D01*
X364152Y15754D01*
X364212Y15749D01*
X370688Y15749D01*
X370787Y15760D01*
X370888Y15762D01*
X370960Y15780D01*
X371034Y15789D01*
X371128Y15822D01*
X371226Y15847D01*
X371292Y15881D01*
X371362Y15906D01*
X371446Y15961D01*
X371536Y16007D01*
X371592Y16055D01*
X371655Y16095D01*
X371724Y16167D01*
X371801Y16232D01*
X371845Y16292D01*
X371897Y16346D01*
X371948Y16432D01*
X372008Y16513D01*
X372038Y16581D01*
X372076Y16645D01*
X372106Y16740D01*
X372146Y16833D01*
X372159Y16906D01*
X372182Y16977D01*
X372190Y17077D01*
X372208Y17176D01*
X372204Y17250D01*
X372210Y17324D01*
X372195Y17423D01*
X372190Y17524D01*
X372169Y17595D01*
X372158Y17669D01*
X372121Y17762D01*
X372093Y17859D01*
X372057Y17924D01*
X372029Y17993D01*
X371972Y18075D01*
X371923Y18163D01*
X371858Y18239D01*
X371831Y18279D01*
X371804Y18303D01*
X371765Y18349D01*
X371604Y18510D01*
X370069Y22215D01*
X370069Y26225D01*
X371604Y29930D01*
X374440Y32766D01*
X378145Y34301D01*
X382155Y34301D01*
X385860Y32766D01*
X388696Y29930D01*
X390231Y26225D01*
X390231Y22215D01*
X388696Y18510D01*
X388535Y18349D01*
X388473Y18270D01*
X388403Y18198D01*
X388365Y18134D01*
X388319Y18076D01*
X388276Y17985D01*
X388224Y17899D01*
X388202Y17828D01*
X388170Y17761D01*
X388149Y17663D01*
X388118Y17567D01*
X388112Y17493D01*
X388096Y17420D01*
X388098Y17320D01*
X388090Y17220D01*
X388101Y17146D01*
X388102Y17072D01*
X388127Y16974D01*
X388142Y16875D01*
X388169Y16806D01*
X388187Y16734D01*
X388233Y16645D01*
X388271Y16551D01*
X388313Y16490D01*
X388347Y16424D01*
X388412Y16348D01*
X388469Y16265D01*
X388525Y16215D01*
X388573Y16159D01*
X388654Y16099D01*
X388728Y16032D01*
X388793Y15996D01*
X388853Y15951D01*
X388945Y15912D01*
X389033Y15863D01*
X389105Y15843D01*
X389173Y15813D01*
X389272Y15796D01*
X389369Y15768D01*
X389469Y15760D01*
X389516Y15752D01*
X389552Y15754D01*
X389612Y15749D01*
X396255Y15749D01*
X396409Y15766D01*
X396563Y15780D01*
X396582Y15786D01*
X396601Y15789D01*
X396747Y15841D01*
X396894Y15890D01*
X396911Y15900D01*
X396929Y15906D01*
X397060Y15991D01*
X397192Y16071D01*
X397206Y16085D01*
X397222Y16095D01*
X397330Y16207D01*
X397440Y16316D01*
X397451Y16332D01*
X397464Y16346D01*
X397544Y16479D01*
X397627Y16610D01*
X397633Y16628D01*
X397643Y16645D01*
X397690Y16792D01*
X397741Y16939D01*
X397743Y16958D01*
X397749Y16977D01*
X397762Y17131D01*
X397778Y17286D01*
X397776Y17305D01*
X397777Y17324D01*
X397754Y17478D01*
X397735Y17632D01*
X397728Y17650D01*
X397725Y17669D01*
X397668Y17813D01*
X397614Y17959D01*
X397602Y17978D01*
X397597Y17993D01*
X397572Y18029D01*
X397487Y18167D01*
X396928Y18937D01*
X396208Y20350D01*
X395763Y21721D01*
X404574Y21721D01*
X404600Y21724D01*
X404626Y21722D01*
X404773Y21744D01*
X404920Y21761D01*
X404945Y21769D01*
X404971Y21773D01*
X405108Y21828D01*
X405248Y21878D01*
X405270Y21892D01*
X405295Y21902D01*
X405416Y21987D01*
X405541Y22067D01*
X405553Y22080D01*
X405600Y22035D01*
X405623Y22021D01*
X405642Y22004D01*
X405772Y21932D01*
X405899Y21856D01*
X405924Y21848D01*
X405947Y21835D01*
X406090Y21795D01*
X406231Y21750D01*
X406257Y21747D01*
X406282Y21740D01*
X406526Y21721D01*
X415337Y21721D01*
X414892Y20350D01*
X414807Y20184D01*
X414769Y20081D01*
X414722Y19982D01*
X414708Y19918D01*
X414686Y19858D01*
X414672Y19748D01*
X414649Y19641D01*
X414650Y19576D01*
X414642Y19512D01*
X414653Y19402D01*
X414655Y19292D01*
X414670Y19230D01*
X414677Y19165D01*
X414713Y19061D01*
X414740Y18954D01*
X414769Y18897D01*
X414790Y18836D01*
X414849Y18742D01*
X414899Y18645D01*
X414941Y18595D01*
X414976Y18540D01*
X415054Y18463D01*
X415125Y18379D01*
X415177Y18341D01*
X415223Y18295D01*
X415317Y18237D01*
X415405Y18172D01*
X415465Y18146D01*
X415520Y18112D01*
X415624Y18078D01*
X415725Y18034D01*
X415789Y18023D01*
X415850Y18002D01*
X415960Y17992D01*
X416068Y17972D01*
X416133Y17976D01*
X416197Y17970D01*
X416307Y17985D01*
X416416Y17990D01*
X416478Y18008D01*
X416543Y18017D01*
X416646Y18056D01*
X416751Y18087D01*
X416808Y18118D01*
X416868Y18141D01*
X416959Y18203D01*
X417055Y18257D01*
X417120Y18312D01*
X417157Y18337D01*
X417185Y18367D01*
X417242Y18415D01*
X420423Y21597D01*
X420502Y21696D01*
X420586Y21790D01*
X420610Y21832D01*
X420640Y21870D01*
X420694Y21984D01*
X420755Y22095D01*
X420768Y22141D01*
X420789Y22185D01*
X420815Y22308D01*
X420850Y22430D01*
X420855Y22491D01*
X420862Y22526D01*
X420861Y22574D01*
X420869Y22674D01*
X420869Y26225D01*
X422404Y29930D01*
X425240Y32766D01*
X428945Y34301D01*
X432955Y34301D01*
X436660Y32766D01*
X439496Y29930D01*
X441031Y26225D01*
X441031Y22215D01*
X439496Y18510D01*
X436660Y15674D01*
X432955Y14139D01*
X429404Y14139D01*
X429278Y14125D01*
X429152Y14118D01*
X429106Y14105D01*
X429058Y14099D01*
X428939Y14057D01*
X428817Y14022D01*
X428775Y13998D01*
X428730Y13982D01*
X428623Y13913D01*
X428513Y13852D01*
X428467Y13812D01*
X428437Y13793D01*
X428403Y13758D01*
X428327Y13693D01*
X421997Y7363D01*
X421934Y7285D01*
X421865Y7212D01*
X421826Y7148D01*
X421780Y7090D01*
X421737Y6999D01*
X421686Y6913D01*
X421663Y6842D01*
X421631Y6775D01*
X421610Y6677D01*
X421579Y6581D01*
X421573Y6507D01*
X421558Y6434D01*
X421560Y6334D01*
X421551Y6234D01*
X421563Y6160D01*
X421564Y6086D01*
X421588Y5989D01*
X421603Y5889D01*
X421631Y5820D01*
X421649Y5748D01*
X421695Y5658D01*
X421732Y5565D01*
X421774Y5504D01*
X421808Y5438D01*
X421874Y5361D01*
X421931Y5279D01*
X421986Y5229D01*
X422034Y5173D01*
X422115Y5113D01*
X422190Y5046D01*
X422255Y5010D01*
X422315Y4965D01*
X422407Y4926D01*
X422495Y4877D01*
X422566Y4857D01*
X422635Y4827D01*
X422733Y4810D01*
X422830Y4782D01*
X422930Y4774D01*
X422978Y4766D01*
X423013Y4768D01*
X423074Y4763D01*
X443714Y4763D01*
X443740Y4766D01*
G37*
%LPC*%
G36*
X252885Y106259D02*
X252885Y106259D01*
X252239Y106432D01*
X251660Y106767D01*
X251187Y107240D01*
X251106Y107381D01*
X251075Y107422D01*
X251052Y107467D01*
X250972Y107561D01*
X250898Y107661D01*
X250859Y107694D01*
X250826Y107733D01*
X250727Y107806D01*
X250632Y107886D01*
X250587Y107909D01*
X250546Y107940D01*
X250432Y107989D01*
X250322Y108045D01*
X250272Y108057D01*
X250226Y108078D01*
X250104Y108100D01*
X249984Y108130D01*
X249933Y108130D01*
X249883Y108139D01*
X249759Y108133D01*
X249636Y108135D01*
X249586Y108124D01*
X249535Y108121D01*
X249416Y108087D01*
X249295Y108061D01*
X249249Y108039D01*
X249200Y108025D01*
X249092Y107964D01*
X248980Y107911D01*
X248940Y107880D01*
X248896Y107855D01*
X248709Y107696D01*
X247272Y106259D01*
X235168Y106259D01*
X233679Y107748D01*
X233679Y120852D01*
X235389Y122562D01*
X235468Y122661D01*
X235552Y122755D01*
X235576Y122797D01*
X235606Y122835D01*
X235660Y122949D01*
X235721Y123060D01*
X235734Y123107D01*
X235755Y123150D01*
X235781Y123274D01*
X235816Y123396D01*
X235821Y123456D01*
X235828Y123491D01*
X235827Y123539D01*
X235835Y123639D01*
X235835Y128216D01*
X235832Y128242D01*
X235834Y128268D01*
X235812Y128415D01*
X235795Y128562D01*
X235787Y128587D01*
X235783Y128613D01*
X235728Y128751D01*
X235678Y128890D01*
X235664Y128912D01*
X235654Y128937D01*
X235569Y129058D01*
X235489Y129183D01*
X235470Y129201D01*
X235455Y129223D01*
X235345Y129322D01*
X235238Y129425D01*
X235216Y129439D01*
X235196Y129456D01*
X235066Y129528D01*
X234939Y129604D01*
X234914Y129612D01*
X234891Y129625D01*
X234748Y129665D01*
X234607Y129710D01*
X234581Y129712D01*
X234556Y129720D01*
X234312Y129739D01*
X232348Y129739D01*
X230859Y131228D01*
X230859Y139332D01*
X232348Y140821D01*
X247452Y140821D01*
X248482Y139791D01*
X248581Y139712D01*
X248675Y139628D01*
X248717Y139604D01*
X248755Y139574D01*
X248869Y139520D01*
X248980Y139459D01*
X249027Y139446D01*
X249070Y139425D01*
X249194Y139399D01*
X249316Y139364D01*
X249376Y139359D01*
X249411Y139352D01*
X249459Y139353D01*
X249559Y139345D01*
X278545Y139345D01*
X278671Y139359D01*
X278797Y139366D01*
X278844Y139379D01*
X278892Y139385D01*
X279011Y139427D01*
X279132Y139462D01*
X279174Y139486D01*
X279220Y139502D01*
X279326Y139571D01*
X279436Y139632D01*
X279482Y139672D01*
X279512Y139691D01*
X279546Y139726D01*
X279622Y139791D01*
X299439Y159608D01*
X299518Y159707D01*
X299602Y159800D01*
X299626Y159843D01*
X299656Y159881D01*
X299710Y159995D01*
X299771Y160105D01*
X299784Y160152D01*
X299805Y160196D01*
X299831Y160319D01*
X299866Y160441D01*
X299871Y160502D01*
X299878Y160536D01*
X299877Y160584D01*
X299885Y160685D01*
X299885Y166375D01*
X299877Y166450D01*
X299878Y166527D01*
X299857Y166623D01*
X299845Y166721D01*
X299820Y166793D01*
X299803Y166867D01*
X299761Y166956D01*
X299728Y167049D01*
X299686Y167113D01*
X299654Y167182D01*
X299592Y167259D01*
X299539Y167342D01*
X299484Y167395D01*
X299436Y167455D01*
X299359Y167515D01*
X299288Y167584D01*
X299223Y167623D01*
X299163Y167670D01*
X299030Y167738D01*
X298989Y167763D01*
X298971Y167769D01*
X298945Y167782D01*
X298240Y168074D01*
X295404Y170910D01*
X293869Y174615D01*
X293869Y178625D01*
X295404Y182330D01*
X298240Y185166D01*
X301945Y186701D01*
X305955Y186701D01*
X309660Y185166D01*
X312496Y182330D01*
X314031Y178625D01*
X314031Y174615D01*
X312496Y170910D01*
X309660Y168074D01*
X308955Y167782D01*
X308888Y167745D01*
X308817Y167717D01*
X308737Y167660D01*
X308650Y167613D01*
X308594Y167561D01*
X308531Y167518D01*
X308465Y167445D01*
X308392Y167378D01*
X308349Y167316D01*
X308298Y167259D01*
X308250Y167173D01*
X308194Y167092D01*
X308166Y167021D01*
X308129Y166954D01*
X308102Y166859D01*
X308066Y166768D01*
X308055Y166692D01*
X308034Y166618D01*
X308022Y166470D01*
X308015Y166423D01*
X308017Y166404D01*
X308015Y166375D01*
X308015Y156686D01*
X282544Y131215D01*
X249559Y131215D01*
X249434Y131201D01*
X249308Y131194D01*
X249261Y131181D01*
X249213Y131175D01*
X249094Y131133D01*
X248973Y131098D01*
X248930Y131074D01*
X248885Y131058D01*
X248779Y130989D01*
X248668Y130928D01*
X248622Y130888D01*
X248592Y130869D01*
X248571Y130847D01*
X248569Y130846D01*
X248554Y130831D01*
X248482Y130769D01*
X247452Y129739D01*
X245488Y129739D01*
X245462Y129736D01*
X245436Y129738D01*
X245289Y129716D01*
X245142Y129699D01*
X245117Y129691D01*
X245091Y129687D01*
X244953Y129632D01*
X244814Y129582D01*
X244792Y129568D01*
X244767Y129558D01*
X244646Y129473D01*
X244521Y129393D01*
X244503Y129374D01*
X244481Y129359D01*
X244382Y129249D01*
X244279Y129142D01*
X244265Y129120D01*
X244248Y129100D01*
X244176Y128970D01*
X244100Y128843D01*
X244092Y128818D01*
X244079Y128795D01*
X244039Y128652D01*
X243994Y128511D01*
X243992Y128485D01*
X243984Y128460D01*
X243965Y128216D01*
X243965Y123864D01*
X243968Y123838D01*
X243966Y123812D01*
X243988Y123665D01*
X244005Y123518D01*
X244013Y123493D01*
X244017Y123467D01*
X244072Y123329D01*
X244122Y123190D01*
X244136Y123168D01*
X244146Y123143D01*
X244231Y123022D01*
X244311Y122897D01*
X244330Y122879D01*
X244345Y122857D01*
X244455Y122758D01*
X244562Y122655D01*
X244584Y122641D01*
X244604Y122624D01*
X244734Y122552D01*
X244861Y122476D01*
X244886Y122468D01*
X244909Y122455D01*
X245052Y122415D01*
X245193Y122370D01*
X245219Y122368D01*
X245244Y122360D01*
X245488Y122341D01*
X247272Y122341D01*
X248709Y120904D01*
X248749Y120872D01*
X248784Y120834D01*
X248886Y120764D01*
X248982Y120687D01*
X249028Y120665D01*
X249071Y120636D01*
X249186Y120591D01*
X249297Y120538D01*
X249347Y120527D01*
X249395Y120509D01*
X249517Y120491D01*
X249638Y120465D01*
X249689Y120466D01*
X249740Y120458D01*
X249863Y120469D01*
X249987Y120471D01*
X250036Y120483D01*
X250087Y120488D01*
X250205Y120526D01*
X250325Y120556D01*
X250370Y120579D01*
X250419Y120595D01*
X250525Y120659D01*
X250634Y120715D01*
X250673Y120748D01*
X250717Y120775D01*
X250806Y120861D01*
X250900Y120941D01*
X250930Y120982D01*
X250967Y121018D01*
X251106Y121219D01*
X251187Y121360D01*
X251660Y121833D01*
X252239Y122168D01*
X252885Y122341D01*
X255721Y122341D01*
X255721Y115276D01*
X255724Y115250D01*
X255722Y115224D01*
X255744Y115077D01*
X255761Y114930D01*
X255769Y114905D01*
X255773Y114879D01*
X255828Y114742D01*
X255878Y114602D01*
X255892Y114580D01*
X255902Y114555D01*
X255987Y114434D01*
X256067Y114309D01*
X256080Y114297D01*
X256035Y114250D01*
X256021Y114227D01*
X256004Y114208D01*
X255932Y114078D01*
X255856Y113951D01*
X255848Y113926D01*
X255835Y113903D01*
X255795Y113760D01*
X255750Y113619D01*
X255747Y113593D01*
X255740Y113568D01*
X255721Y113324D01*
X255721Y106259D01*
X252885Y106259D01*
G37*
%LPD*%
%LPC*%
G36*
X276545Y166539D02*
X276545Y166539D01*
X272840Y168074D01*
X270004Y170910D01*
X268469Y174615D01*
X268469Y178625D01*
X270004Y182330D01*
X272840Y185166D01*
X276545Y186701D01*
X280555Y186701D01*
X284260Y185166D01*
X287096Y182330D01*
X288631Y178625D01*
X288631Y174615D01*
X287096Y170910D01*
X284260Y168074D01*
X280555Y166539D01*
X276545Y166539D01*
G37*
%LPD*%
%LPC*%
G36*
X327345Y166539D02*
X327345Y166539D01*
X323640Y168074D01*
X320804Y170910D01*
X319269Y174615D01*
X319269Y178625D01*
X320804Y182330D01*
X323640Y185166D01*
X327345Y186701D01*
X331355Y186701D01*
X335060Y185166D01*
X337896Y182330D01*
X339431Y178625D01*
X339431Y174615D01*
X337896Y170910D01*
X335060Y168074D01*
X331355Y166539D01*
X327345Y166539D01*
G37*
%LPD*%
%LPC*%
G36*
X352745Y166539D02*
X352745Y166539D01*
X349040Y168074D01*
X346204Y170910D01*
X344669Y174615D01*
X344669Y178625D01*
X346204Y182330D01*
X349040Y185166D01*
X352745Y186701D01*
X356755Y186701D01*
X360460Y185166D01*
X363296Y182330D01*
X364831Y178625D01*
X364831Y174615D01*
X363296Y170910D01*
X360460Y168074D01*
X356755Y166539D01*
X352745Y166539D01*
G37*
%LPD*%
%LPC*%
G36*
X378145Y166539D02*
X378145Y166539D01*
X374440Y168074D01*
X371604Y170910D01*
X370069Y174615D01*
X370069Y178625D01*
X371604Y182330D01*
X374440Y185166D01*
X378145Y186701D01*
X382155Y186701D01*
X385860Y185166D01*
X388696Y182330D01*
X390231Y178625D01*
X390231Y174615D01*
X388696Y170910D01*
X385860Y168074D01*
X382155Y166539D01*
X378145Y166539D01*
G37*
%LPD*%
%LPC*%
G36*
X403545Y166539D02*
X403545Y166539D01*
X399840Y168074D01*
X397004Y170910D01*
X395469Y174615D01*
X395469Y178625D01*
X397004Y182330D01*
X399840Y185166D01*
X403545Y186701D01*
X407555Y186701D01*
X411260Y185166D01*
X414096Y182330D01*
X415631Y178625D01*
X415631Y174615D01*
X414096Y170910D01*
X411260Y168074D01*
X407555Y166539D01*
X403545Y166539D01*
G37*
%LPD*%
%LPC*%
G36*
X428945Y166539D02*
X428945Y166539D01*
X425240Y168074D01*
X422404Y170910D01*
X420869Y174615D01*
X420869Y178625D01*
X422404Y182330D01*
X425240Y185166D01*
X428945Y186701D01*
X432955Y186701D01*
X436660Y185166D01*
X439496Y182330D01*
X441031Y178625D01*
X441031Y174615D01*
X439496Y170910D01*
X436660Y168074D01*
X432955Y166539D01*
X428945Y166539D01*
G37*
%LPD*%
%LPC*%
G36*
X251145Y166539D02*
X251145Y166539D01*
X247440Y168074D01*
X244604Y170910D01*
X243069Y174615D01*
X243069Y178625D01*
X244604Y182330D01*
X247440Y185166D01*
X251145Y186701D01*
X255155Y186701D01*
X258860Y185166D01*
X261696Y182330D01*
X263231Y178625D01*
X263231Y174615D01*
X261696Y170910D01*
X258860Y168074D01*
X255155Y166539D01*
X251145Y166539D01*
G37*
%LPD*%
%LPC*%
G36*
X71212Y78155D02*
X71212Y78155D01*
X65855Y83512D01*
X65855Y91088D01*
X71212Y96445D01*
X78788Y96445D01*
X84145Y91088D01*
X84145Y83512D01*
X78788Y78155D01*
X71212Y78155D01*
G37*
%LPD*%
%LPC*%
G36*
X162597Y136107D02*
X162597Y136107D01*
X162597Y154851D01*
X170385Y154851D01*
X171031Y154678D01*
X171610Y154343D01*
X172083Y153870D01*
X172418Y153291D01*
X172591Y152645D01*
X172591Y136107D01*
X162597Y136107D01*
G37*
%LPD*%
%LPC*%
G36*
X146509Y136107D02*
X146509Y136107D01*
X146509Y152645D01*
X146682Y153291D01*
X147017Y153870D01*
X147490Y154343D01*
X148069Y154678D01*
X148715Y154851D01*
X156503Y154851D01*
X156503Y136107D01*
X146509Y136107D01*
G37*
%LPD*%
%LPC*%
G36*
X408049Y26719D02*
X408049Y26719D01*
X408049Y34007D01*
X409420Y33562D01*
X410833Y32842D01*
X412117Y31909D01*
X413239Y30787D01*
X414172Y29503D01*
X414892Y28090D01*
X415337Y26719D01*
X408049Y26719D01*
G37*
%LPD*%
%LPC*%
G36*
X395763Y26719D02*
X395763Y26719D01*
X396208Y28090D01*
X396928Y29503D01*
X397861Y30787D01*
X398983Y31909D01*
X400267Y32842D01*
X401680Y33562D01*
X403051Y34007D01*
X403051Y26719D01*
X395763Y26719D01*
G37*
%LPD*%
%LPC*%
G36*
X241423Y155803D02*
X241423Y155803D01*
X241423Y159821D01*
X246735Y159821D01*
X247381Y159648D01*
X247960Y159313D01*
X248433Y158840D01*
X248768Y158261D01*
X248941Y157615D01*
X248941Y155803D01*
X241423Y155803D01*
G37*
%LPD*%
%LPC*%
G36*
X230859Y155803D02*
X230859Y155803D01*
X230859Y157615D01*
X231032Y158261D01*
X231367Y158840D01*
X231840Y159313D01*
X232419Y159648D01*
X233065Y159821D01*
X238377Y159821D01*
X238377Y155803D01*
X230859Y155803D01*
G37*
%LPD*%
%LPC*%
G36*
X241423Y148739D02*
X241423Y148739D01*
X241423Y152757D01*
X248941Y152757D01*
X248941Y150945D01*
X248768Y150299D01*
X248433Y149720D01*
X247960Y149247D01*
X247381Y148912D01*
X246735Y148739D01*
X241423Y148739D01*
G37*
%LPD*%
%LPC*%
G36*
X233065Y148739D02*
X233065Y148739D01*
X232419Y148912D01*
X231840Y149247D01*
X231367Y149720D01*
X231032Y150299D01*
X230859Y150945D01*
X230859Y152757D01*
X238377Y152757D01*
X238377Y148739D01*
X233065Y148739D01*
G37*
%LPD*%
%LPC*%
G36*
X260719Y116799D02*
X260719Y116799D01*
X260719Y122341D01*
X263555Y122341D01*
X264201Y122168D01*
X264780Y121833D01*
X265253Y121360D01*
X265588Y120781D01*
X265761Y120135D01*
X265761Y116799D01*
X260719Y116799D01*
G37*
%LPD*%
%LPC*%
G36*
X260719Y106259D02*
X260719Y106259D01*
X260719Y111801D01*
X265761Y111801D01*
X265761Y108465D01*
X265588Y107819D01*
X265253Y107240D01*
X264780Y106767D01*
X264201Y106432D01*
X263555Y106259D01*
X260719Y106259D01*
G37*
%LPD*%
D10*
X159550Y65060D03*
X159550Y133060D03*
D11*
X75000Y87300D03*
X75000Y112700D03*
X25000Y87300D03*
X25000Y112700D03*
D12*
X239900Y135280D03*
X239900Y154280D03*
X218900Y144780D03*
D13*
X161480Y27940D03*
X180480Y27940D03*
X120840Y27940D03*
X139840Y27940D03*
D14*
X258220Y114300D03*
X241220Y114300D03*
D15*
X253150Y24220D03*
X278550Y24220D03*
X303950Y24220D03*
X329350Y24220D03*
X380150Y24220D03*
X354750Y24220D03*
X430950Y176620D03*
X430950Y24220D03*
X405550Y176620D03*
X380150Y176620D03*
X354750Y176620D03*
X329350Y176620D03*
X303950Y176620D03*
X278550Y176620D03*
X253150Y176620D03*
X405550Y24220D03*
D16*
X264960Y160020D03*
X257340Y149860D03*
X272580Y149860D03*
X294170Y119380D03*
D17*
X216700Y27940D02*
X180480Y27940D01*
D16*
X201460Y71120D03*
X201460Y142240D03*
D18*
X201460Y106680D01*
X201460Y71120D01*
X137020Y112700D02*
X75000Y112700D01*
X137020Y112700D02*
X143040Y106680D01*
X201460Y106680D01*
D17*
X416890Y10160D02*
X430950Y24220D01*
X416890Y10160D02*
X234480Y10160D01*
X216700Y27940D01*
X103247Y191110D02*
X30010Y117873D01*
X25000Y112700D01*
X103247Y191110D02*
X205930Y191110D01*
X218900Y178140D02*
X218900Y144780D01*
X218900Y178140D02*
X205930Y191110D01*
D18*
X303950Y176620D02*
X303950Y158370D01*
X280860Y135280D02*
X239900Y135280D01*
X280860Y135280D02*
X303950Y158370D01*
X239900Y135280D02*
X239900Y115620D01*
X241220Y114300D01*
D17*
X161480Y27940D02*
X139840Y27940D01*
X160820Y28600D02*
X161480Y27940D01*
X160820Y63790D02*
X159550Y65060D01*
X160820Y63790D02*
X160820Y28600D01*
X120840Y27940D02*
X84197Y27940D01*
X30010Y82127D01*
X25000Y87300D01*
M02*
