G04 EAGLE Gerber RS-274X export*
G75*
%MOMM*%
%FSLAX34Y34*%
%LPD*%
%IN*%
%IPPOS*%
%AMOC8*
5,1,8,0,0,1.08239X$1,22.5*%
G01*
%ADD10C,0.254000*%


D10*
X0Y50000D02*
X50000Y50000D01*
X100000Y0D01*
X450000Y0D01*
X450000Y200000D01*
X100000Y200000D01*
X50000Y150000D01*
X0Y150000D01*
X0Y50000D01*
X49060Y81280D02*
X49070Y81059D01*
X49099Y80839D01*
X49147Y80623D01*
X49213Y80411D01*
X49298Y80207D01*
X49400Y80010D01*
X49519Y79823D01*
X49654Y79647D01*
X49804Y79484D01*
X49967Y79334D01*
X50143Y79199D01*
X50330Y79080D01*
X50527Y78978D01*
X50731Y78893D01*
X50943Y78827D01*
X51159Y78779D01*
X51379Y78750D01*
X51600Y78740D01*
X51821Y78750D01*
X52041Y78779D01*
X52257Y78827D01*
X52469Y78893D01*
X52673Y78978D01*
X52870Y79080D01*
X53057Y79199D01*
X53233Y79334D01*
X53396Y79484D01*
X53546Y79647D01*
X53681Y79823D01*
X53800Y80010D01*
X53902Y80207D01*
X53987Y80411D01*
X54053Y80623D01*
X54101Y80839D01*
X54130Y81059D01*
X54140Y81280D01*
X54140Y119380D01*
X54130Y119601D01*
X54101Y119821D01*
X54053Y120037D01*
X53987Y120249D01*
X53902Y120453D01*
X53800Y120650D01*
X53681Y120837D01*
X53546Y121013D01*
X53396Y121176D01*
X53233Y121326D01*
X53057Y121461D01*
X52870Y121580D01*
X52673Y121682D01*
X52469Y121767D01*
X52257Y121833D01*
X52041Y121881D01*
X51821Y121910D01*
X51600Y121920D01*
X51379Y121910D01*
X51159Y121881D01*
X50943Y121833D01*
X50731Y121767D01*
X50527Y121682D01*
X50330Y121580D01*
X50143Y121461D01*
X49967Y121326D01*
X49804Y121176D01*
X49654Y121013D01*
X49519Y120837D01*
X49400Y120650D01*
X49298Y120453D01*
X49213Y120249D01*
X49147Y120037D01*
X49099Y119821D01*
X49070Y119601D01*
X49060Y119380D01*
X49060Y81280D01*
M02*
