G04 EAGLE Gerber RS-274X export*
G75*
%MOMM*%
%FSLAX34Y34*%
%LPD*%
%INSilkscreen Top*%
%IPPOS*%
%AMOC8*
5,1,8,0,0,1.08239X$1,22.5*%
G01*
%ADD10R,2.800000X0.050000*%
%ADD11R,1.600000X0.050000*%
%ADD12R,0.800000X0.050000*%
%ADD13R,1.200000X0.050000*%
%ADD14R,0.400000X0.050000*%
%ADD15R,2.000000X0.050000*%
%ADD16R,3.600000X0.050000*%
%ADD17C,0.200000*%
%ADD18C,0.101600*%
%ADD19C,0.203200*%
%ADD20C,0.254000*%
%ADD21C,0.152400*%
%ADD22C,0.127000*%


D10*
X297110Y41640D03*
D11*
X323110Y41640D03*
D12*
X347110Y41640D03*
D13*
X361110Y41640D03*
D11*
X379110Y41640D03*
D10*
X297110Y42140D03*
D11*
X323110Y42140D03*
D12*
X347110Y42140D03*
D13*
X361110Y42140D03*
D11*
X379110Y42140D03*
D10*
X297110Y42640D03*
D11*
X323110Y42640D03*
D12*
X347110Y42640D03*
D13*
X361110Y42640D03*
D11*
X379110Y42640D03*
D10*
X297110Y43140D03*
D11*
X323110Y43140D03*
D12*
X347110Y43140D03*
D13*
X361110Y43140D03*
D11*
X379110Y43140D03*
D10*
X297110Y43640D03*
D11*
X323110Y43640D03*
D12*
X347110Y43640D03*
D13*
X361110Y43640D03*
D11*
X379110Y43640D03*
D10*
X297110Y44140D03*
D11*
X323110Y44140D03*
D12*
X347110Y44140D03*
D13*
X361110Y44140D03*
D11*
X379110Y44140D03*
D10*
X297110Y44640D03*
D11*
X323110Y44640D03*
D12*
X347110Y44640D03*
D13*
X361110Y44640D03*
D11*
X379110Y44640D03*
D10*
X297110Y45140D03*
D11*
X323110Y45140D03*
D12*
X347110Y45140D03*
D13*
X361110Y45140D03*
D11*
X379110Y45140D03*
D14*
X285110Y45640D03*
X309110Y45640D03*
D13*
X321110Y45640D03*
D14*
X345110Y45640D03*
D15*
X365110Y45640D03*
D14*
X385110Y45640D03*
X393110Y45640D03*
X285110Y46140D03*
X309110Y46140D03*
D13*
X321110Y46140D03*
D14*
X345110Y46140D03*
D15*
X365110Y46140D03*
D14*
X385110Y46140D03*
X393110Y46140D03*
X285110Y46640D03*
X309110Y46640D03*
D13*
X321110Y46640D03*
D14*
X345110Y46640D03*
D15*
X365110Y46640D03*
D14*
X385110Y46640D03*
X393110Y46640D03*
X285110Y47140D03*
X309110Y47140D03*
D13*
X321110Y47140D03*
D14*
X345110Y47140D03*
D15*
X365110Y47140D03*
D14*
X385110Y47140D03*
X393110Y47140D03*
X285110Y47640D03*
X309110Y47640D03*
D13*
X321110Y47640D03*
D14*
X345110Y47640D03*
D15*
X365110Y47640D03*
D14*
X385110Y47640D03*
X393110Y47640D03*
X285110Y48140D03*
X309110Y48140D03*
D13*
X321110Y48140D03*
D14*
X345110Y48140D03*
D15*
X365110Y48140D03*
D14*
X385110Y48140D03*
X393110Y48140D03*
X285110Y48640D03*
X309110Y48640D03*
D13*
X321110Y48640D03*
D14*
X345110Y48640D03*
D15*
X365110Y48640D03*
D14*
X385110Y48640D03*
X393110Y48640D03*
X285110Y49140D03*
X309110Y49140D03*
D13*
X321110Y49140D03*
D14*
X345110Y49140D03*
D15*
X365110Y49140D03*
D14*
X385110Y49140D03*
X393110Y49140D03*
X285110Y49640D03*
D13*
X297110Y49640D03*
D14*
X309110Y49640D03*
D12*
X323110Y49640D03*
D14*
X341110Y49640D03*
D12*
X351110Y49640D03*
D14*
X377110Y49640D03*
D11*
X391110Y49640D03*
D14*
X285110Y50140D03*
D13*
X297110Y50140D03*
D14*
X309110Y50140D03*
D12*
X323110Y50140D03*
D14*
X341110Y50140D03*
D12*
X351110Y50140D03*
D14*
X377110Y50140D03*
D11*
X391110Y50140D03*
D14*
X285110Y50640D03*
D13*
X297110Y50640D03*
D14*
X309110Y50640D03*
D12*
X323110Y50640D03*
D14*
X341110Y50640D03*
D12*
X351110Y50640D03*
D14*
X377110Y50640D03*
D11*
X391110Y50640D03*
D14*
X285110Y51140D03*
D13*
X297110Y51140D03*
D14*
X309110Y51140D03*
D12*
X323110Y51140D03*
D14*
X341110Y51140D03*
D12*
X351110Y51140D03*
D14*
X377110Y51140D03*
D11*
X391110Y51140D03*
D14*
X285110Y51640D03*
D13*
X297110Y51640D03*
D14*
X309110Y51640D03*
D12*
X323110Y51640D03*
D14*
X341110Y51640D03*
D12*
X351110Y51640D03*
D14*
X377110Y51640D03*
D11*
X391110Y51640D03*
D14*
X285110Y52140D03*
D13*
X297110Y52140D03*
D14*
X309110Y52140D03*
D12*
X323110Y52140D03*
D14*
X341110Y52140D03*
D12*
X351110Y52140D03*
D14*
X377110Y52140D03*
D11*
X391110Y52140D03*
D14*
X285110Y52640D03*
D13*
X297110Y52640D03*
D14*
X309110Y52640D03*
D12*
X323110Y52640D03*
D14*
X341110Y52640D03*
D12*
X351110Y52640D03*
D14*
X377110Y52640D03*
D11*
X391110Y52640D03*
D14*
X285110Y53140D03*
D13*
X297110Y53140D03*
D14*
X309110Y53140D03*
D12*
X323110Y53140D03*
D14*
X341110Y53140D03*
D12*
X351110Y53140D03*
D14*
X377110Y53140D03*
D11*
X391110Y53140D03*
D14*
X285110Y53640D03*
D13*
X297110Y53640D03*
D14*
X309110Y53640D03*
D13*
X321110Y53640D03*
D12*
X335110Y53640D03*
D14*
X357110Y53640D03*
D13*
X373110Y53640D03*
X389110Y53640D03*
D14*
X285110Y54140D03*
D13*
X297110Y54140D03*
D14*
X309110Y54140D03*
D13*
X321110Y54140D03*
D12*
X335110Y54140D03*
D14*
X357110Y54140D03*
D13*
X373110Y54140D03*
X389110Y54140D03*
D14*
X285110Y54640D03*
D13*
X297110Y54640D03*
D14*
X309110Y54640D03*
D13*
X321110Y54640D03*
D12*
X335110Y54640D03*
D14*
X357110Y54640D03*
D13*
X373110Y54640D03*
X389110Y54640D03*
D14*
X285110Y55140D03*
D13*
X297110Y55140D03*
D14*
X309110Y55140D03*
D13*
X321110Y55140D03*
D12*
X335110Y55140D03*
D14*
X357110Y55140D03*
D13*
X373110Y55140D03*
X389110Y55140D03*
D14*
X285110Y55640D03*
D13*
X297110Y55640D03*
D14*
X309110Y55640D03*
D13*
X321110Y55640D03*
D12*
X335110Y55640D03*
D14*
X357110Y55640D03*
D13*
X373110Y55640D03*
X389110Y55640D03*
D14*
X285110Y56140D03*
D13*
X297110Y56140D03*
D14*
X309110Y56140D03*
D13*
X321110Y56140D03*
D12*
X335110Y56140D03*
D14*
X357110Y56140D03*
D13*
X373110Y56140D03*
X389110Y56140D03*
D14*
X285110Y56640D03*
D13*
X297110Y56640D03*
D14*
X309110Y56640D03*
D13*
X321110Y56640D03*
D12*
X335110Y56640D03*
D14*
X357110Y56640D03*
D13*
X373110Y56640D03*
X389110Y56640D03*
D14*
X285110Y57140D03*
D13*
X297110Y57140D03*
D14*
X309110Y57140D03*
D13*
X321110Y57140D03*
D12*
X335110Y57140D03*
D14*
X357110Y57140D03*
D13*
X373110Y57140D03*
X389110Y57140D03*
D14*
X285110Y57640D03*
D13*
X297110Y57640D03*
D14*
X309110Y57640D03*
X317110Y57640D03*
D12*
X327110Y57640D03*
D13*
X349110Y57640D03*
D10*
X373110Y57640D03*
D14*
X393110Y57640D03*
X285110Y58140D03*
D13*
X297110Y58140D03*
D14*
X309110Y58140D03*
X317110Y58140D03*
D12*
X327110Y58140D03*
D13*
X349110Y58140D03*
D10*
X373110Y58140D03*
D14*
X393110Y58140D03*
X285110Y58640D03*
D13*
X297110Y58640D03*
D14*
X309110Y58640D03*
X317110Y58640D03*
D12*
X327110Y58640D03*
D13*
X349110Y58640D03*
D10*
X373110Y58640D03*
D14*
X393110Y58640D03*
X285110Y59140D03*
D13*
X297110Y59140D03*
D14*
X309110Y59140D03*
X317110Y59140D03*
D12*
X327110Y59140D03*
D13*
X349110Y59140D03*
D10*
X373110Y59140D03*
D14*
X393110Y59140D03*
X285110Y59640D03*
D13*
X297110Y59640D03*
D14*
X309110Y59640D03*
X317110Y59640D03*
D12*
X327110Y59640D03*
D13*
X349110Y59640D03*
D10*
X373110Y59640D03*
D14*
X393110Y59640D03*
X285110Y60140D03*
D13*
X297110Y60140D03*
D14*
X309110Y60140D03*
X317110Y60140D03*
D12*
X327110Y60140D03*
D13*
X349110Y60140D03*
D10*
X373110Y60140D03*
D14*
X393110Y60140D03*
X285110Y60640D03*
D13*
X297110Y60640D03*
D14*
X309110Y60640D03*
X317110Y60640D03*
D12*
X327110Y60640D03*
D13*
X349110Y60640D03*
D10*
X373110Y60640D03*
D14*
X393110Y60640D03*
X285110Y61140D03*
D13*
X297110Y61140D03*
D14*
X309110Y61140D03*
X317110Y61140D03*
D12*
X327110Y61140D03*
D13*
X349110Y61140D03*
D10*
X373110Y61140D03*
D14*
X393110Y61140D03*
X285110Y61640D03*
X309110Y61640D03*
D16*
X337110Y61640D03*
D12*
X363110Y61640D03*
D14*
X381110Y61640D03*
X389110Y61640D03*
X285110Y62140D03*
X309110Y62140D03*
D16*
X337110Y62140D03*
D12*
X363110Y62140D03*
D14*
X381110Y62140D03*
X389110Y62140D03*
X285110Y62640D03*
X309110Y62640D03*
D16*
X337110Y62640D03*
D12*
X363110Y62640D03*
D14*
X381110Y62640D03*
X389110Y62640D03*
X285110Y63140D03*
X309110Y63140D03*
D16*
X337110Y63140D03*
D12*
X363110Y63140D03*
D14*
X381110Y63140D03*
X389110Y63140D03*
X285110Y63640D03*
X309110Y63640D03*
D16*
X337110Y63640D03*
D12*
X363110Y63640D03*
D14*
X381110Y63640D03*
X389110Y63640D03*
X285110Y64140D03*
X309110Y64140D03*
D16*
X337110Y64140D03*
D12*
X363110Y64140D03*
D14*
X381110Y64140D03*
X389110Y64140D03*
X285110Y64640D03*
X309110Y64640D03*
D16*
X337110Y64640D03*
D12*
X363110Y64640D03*
D14*
X381110Y64640D03*
X389110Y64640D03*
X285110Y65140D03*
X309110Y65140D03*
D16*
X337110Y65140D03*
D12*
X363110Y65140D03*
D14*
X381110Y65140D03*
X389110Y65140D03*
D10*
X297110Y65640D03*
D14*
X321110Y65640D03*
D12*
X331110Y65640D03*
D14*
X349110Y65640D03*
X365110Y65640D03*
X373110Y65640D03*
D12*
X383110Y65640D03*
D10*
X297110Y66140D03*
D14*
X321110Y66140D03*
D12*
X331110Y66140D03*
D14*
X349110Y66140D03*
X365110Y66140D03*
X373110Y66140D03*
D12*
X383110Y66140D03*
D10*
X297110Y66640D03*
D14*
X321110Y66640D03*
D12*
X331110Y66640D03*
D14*
X349110Y66640D03*
X365110Y66640D03*
X373110Y66640D03*
D12*
X383110Y66640D03*
D10*
X297110Y67140D03*
D14*
X321110Y67140D03*
D12*
X331110Y67140D03*
D14*
X349110Y67140D03*
X365110Y67140D03*
X373110Y67140D03*
D12*
X383110Y67140D03*
D10*
X297110Y67640D03*
D14*
X321110Y67640D03*
D12*
X331110Y67640D03*
D14*
X349110Y67640D03*
X365110Y67640D03*
X373110Y67640D03*
D12*
X383110Y67640D03*
D10*
X297110Y68140D03*
D14*
X321110Y68140D03*
D12*
X331110Y68140D03*
D14*
X349110Y68140D03*
X365110Y68140D03*
X373110Y68140D03*
D12*
X383110Y68140D03*
D10*
X297110Y68640D03*
D14*
X321110Y68640D03*
D12*
X331110Y68640D03*
D14*
X349110Y68640D03*
X365110Y68640D03*
X373110Y68640D03*
D12*
X383110Y68640D03*
D10*
X297110Y69140D03*
D14*
X321110Y69140D03*
D12*
X331110Y69140D03*
D14*
X349110Y69140D03*
X365110Y69140D03*
X373110Y69140D03*
D12*
X383110Y69140D03*
D14*
X317110Y69640D03*
X325110Y69640D03*
X333110Y69640D03*
X345110Y69640D03*
X365110Y69640D03*
X381110Y69640D03*
X389110Y69640D03*
X397110Y69640D03*
X317110Y70140D03*
X325110Y70140D03*
X333110Y70140D03*
X345110Y70140D03*
X365110Y70140D03*
X381110Y70140D03*
X389110Y70140D03*
X397110Y70140D03*
X317110Y70640D03*
X325110Y70640D03*
X333110Y70640D03*
X345110Y70640D03*
X365110Y70640D03*
X381110Y70640D03*
X389110Y70640D03*
X397110Y70640D03*
X317110Y71140D03*
X325110Y71140D03*
X333110Y71140D03*
X345110Y71140D03*
X365110Y71140D03*
X381110Y71140D03*
X389110Y71140D03*
X397110Y71140D03*
X317110Y71640D03*
X325110Y71640D03*
X333110Y71640D03*
X345110Y71640D03*
X365110Y71640D03*
X381110Y71640D03*
X389110Y71640D03*
X397110Y71640D03*
X317110Y72140D03*
X325110Y72140D03*
X333110Y72140D03*
X345110Y72140D03*
X365110Y72140D03*
X381110Y72140D03*
X389110Y72140D03*
X397110Y72140D03*
X317110Y72640D03*
X325110Y72640D03*
X333110Y72640D03*
X345110Y72640D03*
X365110Y72640D03*
X381110Y72640D03*
X389110Y72640D03*
X397110Y72640D03*
X317110Y73140D03*
X325110Y73140D03*
X333110Y73140D03*
X345110Y73140D03*
X365110Y73140D03*
X381110Y73140D03*
X389110Y73140D03*
X397110Y73140D03*
D13*
X289110Y73640D03*
D14*
X301110Y73640D03*
D12*
X311110Y73640D03*
D11*
X331110Y73640D03*
D14*
X345110Y73640D03*
D10*
X369110Y73640D03*
D13*
X393110Y73640D03*
X289110Y74140D03*
D14*
X301110Y74140D03*
D12*
X311110Y74140D03*
D11*
X331110Y74140D03*
D14*
X345110Y74140D03*
D10*
X369110Y74140D03*
D13*
X393110Y74140D03*
X289110Y74640D03*
D14*
X301110Y74640D03*
D12*
X311110Y74640D03*
D11*
X331110Y74640D03*
D14*
X345110Y74640D03*
D10*
X369110Y74640D03*
D13*
X393110Y74640D03*
X289110Y75140D03*
D14*
X301110Y75140D03*
D12*
X311110Y75140D03*
D11*
X331110Y75140D03*
D14*
X345110Y75140D03*
D10*
X369110Y75140D03*
D13*
X393110Y75140D03*
X289110Y75640D03*
D14*
X301110Y75640D03*
D12*
X311110Y75640D03*
D11*
X331110Y75640D03*
D14*
X345110Y75640D03*
D10*
X369110Y75640D03*
D13*
X393110Y75640D03*
X289110Y76140D03*
D14*
X301110Y76140D03*
D12*
X311110Y76140D03*
D11*
X331110Y76140D03*
D14*
X345110Y76140D03*
D10*
X369110Y76140D03*
D13*
X393110Y76140D03*
X289110Y76640D03*
D14*
X301110Y76640D03*
D12*
X311110Y76640D03*
D11*
X331110Y76640D03*
D14*
X345110Y76640D03*
D10*
X369110Y76640D03*
D13*
X393110Y76640D03*
X289110Y77140D03*
D14*
X301110Y77140D03*
D12*
X311110Y77140D03*
D11*
X331110Y77140D03*
D14*
X345110Y77140D03*
D10*
X369110Y77140D03*
D13*
X393110Y77140D03*
D11*
X291110Y77640D03*
D14*
X317110Y77640D03*
X329110Y77640D03*
D12*
X347110Y77640D03*
D14*
X357110Y77640D03*
D15*
X381110Y77640D03*
D14*
X397110Y77640D03*
D11*
X291110Y78140D03*
D14*
X317110Y78140D03*
X329110Y78140D03*
D12*
X347110Y78140D03*
D14*
X357110Y78140D03*
D15*
X381110Y78140D03*
D14*
X397110Y78140D03*
D11*
X291110Y78640D03*
D14*
X317110Y78640D03*
X329110Y78640D03*
D12*
X347110Y78640D03*
D14*
X357110Y78640D03*
D15*
X381110Y78640D03*
D14*
X397110Y78640D03*
D11*
X291110Y79140D03*
D14*
X317110Y79140D03*
X329110Y79140D03*
D12*
X347110Y79140D03*
D14*
X357110Y79140D03*
D15*
X381110Y79140D03*
D14*
X397110Y79140D03*
D11*
X291110Y79640D03*
D14*
X317110Y79640D03*
X329110Y79640D03*
D12*
X347110Y79640D03*
D14*
X357110Y79640D03*
D15*
X381110Y79640D03*
D14*
X397110Y79640D03*
D11*
X291110Y80140D03*
D14*
X317110Y80140D03*
X329110Y80140D03*
D12*
X347110Y80140D03*
D14*
X357110Y80140D03*
D15*
X381110Y80140D03*
D14*
X397110Y80140D03*
D11*
X291110Y80640D03*
D14*
X317110Y80640D03*
X329110Y80640D03*
D12*
X347110Y80640D03*
D14*
X357110Y80640D03*
D15*
X381110Y80640D03*
D14*
X397110Y80640D03*
D11*
X291110Y81140D03*
D14*
X317110Y81140D03*
X329110Y81140D03*
D12*
X347110Y81140D03*
D14*
X357110Y81140D03*
D15*
X381110Y81140D03*
D14*
X397110Y81140D03*
D13*
X289110Y81640D03*
D14*
X301110Y81640D03*
D12*
X311110Y81640D03*
D14*
X321110Y81640D03*
X333110Y81640D03*
D12*
X343110Y81640D03*
D14*
X361110Y81640D03*
X373110Y81640D03*
X393110Y81640D03*
D13*
X289110Y82140D03*
D14*
X301110Y82140D03*
D12*
X311110Y82140D03*
D14*
X321110Y82140D03*
X333110Y82140D03*
D12*
X343110Y82140D03*
D14*
X361110Y82140D03*
X373110Y82140D03*
X393110Y82140D03*
D13*
X289110Y82640D03*
D14*
X301110Y82640D03*
D12*
X311110Y82640D03*
D14*
X321110Y82640D03*
X333110Y82640D03*
D12*
X343110Y82640D03*
D14*
X361110Y82640D03*
X373110Y82640D03*
X393110Y82640D03*
D13*
X289110Y83140D03*
D14*
X301110Y83140D03*
D12*
X311110Y83140D03*
D14*
X321110Y83140D03*
X333110Y83140D03*
D12*
X343110Y83140D03*
D14*
X361110Y83140D03*
X373110Y83140D03*
X393110Y83140D03*
D13*
X289110Y83640D03*
D14*
X301110Y83640D03*
D12*
X311110Y83640D03*
D14*
X321110Y83640D03*
X333110Y83640D03*
D12*
X343110Y83640D03*
D14*
X361110Y83640D03*
X373110Y83640D03*
X393110Y83640D03*
D13*
X289110Y84140D03*
D14*
X301110Y84140D03*
D12*
X311110Y84140D03*
D14*
X321110Y84140D03*
X333110Y84140D03*
D12*
X343110Y84140D03*
D14*
X361110Y84140D03*
X373110Y84140D03*
X393110Y84140D03*
D13*
X289110Y84640D03*
D14*
X301110Y84640D03*
D12*
X311110Y84640D03*
D14*
X321110Y84640D03*
X333110Y84640D03*
D12*
X343110Y84640D03*
D14*
X361110Y84640D03*
X373110Y84640D03*
X393110Y84640D03*
D13*
X289110Y85140D03*
D14*
X301110Y85140D03*
D12*
X311110Y85140D03*
D14*
X321110Y85140D03*
X333110Y85140D03*
D12*
X343110Y85140D03*
D14*
X361110Y85140D03*
X373110Y85140D03*
X393110Y85140D03*
X285110Y85640D03*
D12*
X303110Y85640D03*
D14*
X329110Y85640D03*
X345110Y85640D03*
X353110Y85640D03*
D13*
X369110Y85640D03*
D12*
X383110Y85640D03*
D14*
X393110Y85640D03*
X285110Y86140D03*
D12*
X303110Y86140D03*
D14*
X329110Y86140D03*
X345110Y86140D03*
X353110Y86140D03*
D13*
X369110Y86140D03*
D12*
X383110Y86140D03*
D14*
X393110Y86140D03*
X285110Y86640D03*
D12*
X303110Y86640D03*
D14*
X329110Y86640D03*
X345110Y86640D03*
X353110Y86640D03*
D13*
X369110Y86640D03*
D12*
X383110Y86640D03*
D14*
X393110Y86640D03*
X285110Y87140D03*
D12*
X303110Y87140D03*
D14*
X329110Y87140D03*
X345110Y87140D03*
X353110Y87140D03*
D13*
X369110Y87140D03*
D12*
X383110Y87140D03*
D14*
X393110Y87140D03*
X285110Y87640D03*
D12*
X303110Y87640D03*
D14*
X329110Y87640D03*
X345110Y87640D03*
X353110Y87640D03*
D13*
X369110Y87640D03*
D12*
X383110Y87640D03*
D14*
X393110Y87640D03*
X285110Y88140D03*
D12*
X303110Y88140D03*
D14*
X329110Y88140D03*
X345110Y88140D03*
X353110Y88140D03*
D13*
X369110Y88140D03*
D12*
X383110Y88140D03*
D14*
X393110Y88140D03*
X285110Y88640D03*
D12*
X303110Y88640D03*
D14*
X329110Y88640D03*
X345110Y88640D03*
X353110Y88640D03*
D13*
X369110Y88640D03*
D12*
X383110Y88640D03*
D14*
X393110Y88640D03*
X285110Y89140D03*
D12*
X303110Y89140D03*
D14*
X329110Y89140D03*
X345110Y89140D03*
X353110Y89140D03*
D13*
X369110Y89140D03*
D12*
X383110Y89140D03*
D14*
X393110Y89140D03*
D13*
X289110Y89640D03*
D11*
X307110Y89640D03*
D14*
X321110Y89640D03*
D12*
X331110Y89640D03*
X343110Y89640D03*
X371110Y89640D03*
D14*
X389110Y89640D03*
D13*
X289110Y90140D03*
D11*
X307110Y90140D03*
D14*
X321110Y90140D03*
D12*
X331110Y90140D03*
X343110Y90140D03*
X371110Y90140D03*
D14*
X389110Y90140D03*
D13*
X289110Y90640D03*
D11*
X307110Y90640D03*
D14*
X321110Y90640D03*
D12*
X331110Y90640D03*
X343110Y90640D03*
X371110Y90640D03*
D14*
X389110Y90640D03*
D13*
X289110Y91140D03*
D11*
X307110Y91140D03*
D14*
X321110Y91140D03*
D12*
X331110Y91140D03*
X343110Y91140D03*
X371110Y91140D03*
D14*
X389110Y91140D03*
D13*
X289110Y91640D03*
D11*
X307110Y91640D03*
D14*
X321110Y91640D03*
D12*
X331110Y91640D03*
X343110Y91640D03*
X371110Y91640D03*
D14*
X389110Y91640D03*
D13*
X289110Y92140D03*
D11*
X307110Y92140D03*
D14*
X321110Y92140D03*
D12*
X331110Y92140D03*
X343110Y92140D03*
X371110Y92140D03*
D14*
X389110Y92140D03*
D13*
X289110Y92640D03*
D11*
X307110Y92640D03*
D14*
X321110Y92640D03*
D12*
X331110Y92640D03*
X343110Y92640D03*
X371110Y92640D03*
D14*
X389110Y92640D03*
D13*
X289110Y93140D03*
D11*
X307110Y93140D03*
D14*
X321110Y93140D03*
D12*
X331110Y93140D03*
X343110Y93140D03*
X371110Y93140D03*
D14*
X389110Y93140D03*
D12*
X287110Y93640D03*
X303110Y93640D03*
X315110Y93640D03*
D14*
X325110Y93640D03*
D12*
X335110Y93640D03*
X347110Y93640D03*
D14*
X361110Y93640D03*
X369110Y93640D03*
D12*
X379110Y93640D03*
D14*
X389110Y93640D03*
D12*
X287110Y94140D03*
X303110Y94140D03*
X315110Y94140D03*
D14*
X325110Y94140D03*
D12*
X335110Y94140D03*
X347110Y94140D03*
D14*
X361110Y94140D03*
X369110Y94140D03*
D12*
X379110Y94140D03*
D14*
X389110Y94140D03*
D12*
X287110Y94640D03*
X303110Y94640D03*
X315110Y94640D03*
D14*
X325110Y94640D03*
D12*
X335110Y94640D03*
X347110Y94640D03*
D14*
X361110Y94640D03*
X369110Y94640D03*
D12*
X379110Y94640D03*
D14*
X389110Y94640D03*
D12*
X287110Y95140D03*
X303110Y95140D03*
X315110Y95140D03*
D14*
X325110Y95140D03*
D12*
X335110Y95140D03*
X347110Y95140D03*
D14*
X361110Y95140D03*
X369110Y95140D03*
D12*
X379110Y95140D03*
D14*
X389110Y95140D03*
D12*
X287110Y95640D03*
X303110Y95640D03*
X315110Y95640D03*
D14*
X325110Y95640D03*
D12*
X335110Y95640D03*
X347110Y95640D03*
D14*
X361110Y95640D03*
X369110Y95640D03*
D12*
X379110Y95640D03*
D14*
X389110Y95640D03*
D12*
X287110Y96140D03*
X303110Y96140D03*
X315110Y96140D03*
D14*
X325110Y96140D03*
D12*
X335110Y96140D03*
X347110Y96140D03*
D14*
X361110Y96140D03*
X369110Y96140D03*
D12*
X379110Y96140D03*
D14*
X389110Y96140D03*
D12*
X287110Y96640D03*
X303110Y96640D03*
X315110Y96640D03*
D14*
X325110Y96640D03*
D12*
X335110Y96640D03*
X347110Y96640D03*
D14*
X361110Y96640D03*
X369110Y96640D03*
D12*
X379110Y96640D03*
D14*
X389110Y96640D03*
D12*
X287110Y97140D03*
X303110Y97140D03*
X315110Y97140D03*
D14*
X325110Y97140D03*
D12*
X335110Y97140D03*
X347110Y97140D03*
D14*
X361110Y97140D03*
X369110Y97140D03*
D12*
X379110Y97140D03*
D14*
X389110Y97140D03*
D12*
X291110Y97640D03*
D11*
X307110Y97640D03*
D14*
X321110Y97640D03*
X341110Y97640D03*
X353110Y97640D03*
X361110Y97640D03*
D12*
X375110Y97640D03*
X391110Y97640D03*
X291110Y98140D03*
D11*
X307110Y98140D03*
D14*
X321110Y98140D03*
X341110Y98140D03*
X353110Y98140D03*
X361110Y98140D03*
D12*
X375110Y98140D03*
X391110Y98140D03*
X291110Y98640D03*
D11*
X307110Y98640D03*
D14*
X321110Y98640D03*
X341110Y98640D03*
X353110Y98640D03*
X361110Y98640D03*
D12*
X375110Y98640D03*
X391110Y98640D03*
X291110Y99140D03*
D11*
X307110Y99140D03*
D14*
X321110Y99140D03*
X341110Y99140D03*
X353110Y99140D03*
X361110Y99140D03*
D12*
X375110Y99140D03*
X391110Y99140D03*
X291110Y99640D03*
D11*
X307110Y99640D03*
D14*
X321110Y99640D03*
X341110Y99640D03*
X353110Y99640D03*
X361110Y99640D03*
D12*
X375110Y99640D03*
X391110Y99640D03*
X291110Y100140D03*
D11*
X307110Y100140D03*
D14*
X321110Y100140D03*
X341110Y100140D03*
X353110Y100140D03*
X361110Y100140D03*
D12*
X375110Y100140D03*
X391110Y100140D03*
X291110Y100640D03*
D11*
X307110Y100640D03*
D14*
X321110Y100640D03*
X341110Y100640D03*
X353110Y100640D03*
X361110Y100640D03*
D12*
X375110Y100640D03*
X391110Y100640D03*
X291110Y101140D03*
D11*
X307110Y101140D03*
D14*
X321110Y101140D03*
X341110Y101140D03*
X353110Y101140D03*
X361110Y101140D03*
D12*
X375110Y101140D03*
X391110Y101140D03*
X291110Y101640D03*
D14*
X301110Y101640D03*
D12*
X323110Y101640D03*
D13*
X337110Y101640D03*
D14*
X349110Y101640D03*
X365110Y101640D03*
D13*
X377110Y101640D03*
D14*
X389110Y101640D03*
D12*
X291110Y102140D03*
D14*
X301110Y102140D03*
D12*
X323110Y102140D03*
D13*
X337110Y102140D03*
D14*
X349110Y102140D03*
X365110Y102140D03*
D13*
X377110Y102140D03*
D14*
X389110Y102140D03*
D12*
X291110Y102640D03*
D14*
X301110Y102640D03*
D12*
X323110Y102640D03*
D13*
X337110Y102640D03*
D14*
X349110Y102640D03*
X365110Y102640D03*
D13*
X377110Y102640D03*
D14*
X389110Y102640D03*
D12*
X291110Y103140D03*
D14*
X301110Y103140D03*
D12*
X323110Y103140D03*
D13*
X337110Y103140D03*
D14*
X349110Y103140D03*
X365110Y103140D03*
D13*
X377110Y103140D03*
D14*
X389110Y103140D03*
D12*
X291110Y103640D03*
D14*
X301110Y103640D03*
D12*
X323110Y103640D03*
D13*
X337110Y103640D03*
D14*
X349110Y103640D03*
X365110Y103640D03*
D13*
X377110Y103640D03*
D14*
X389110Y103640D03*
D12*
X291110Y104140D03*
D14*
X301110Y104140D03*
D12*
X323110Y104140D03*
D13*
X337110Y104140D03*
D14*
X349110Y104140D03*
X365110Y104140D03*
D13*
X377110Y104140D03*
D14*
X389110Y104140D03*
D12*
X291110Y104640D03*
D14*
X301110Y104640D03*
D12*
X323110Y104640D03*
D13*
X337110Y104640D03*
D14*
X349110Y104640D03*
X365110Y104640D03*
D13*
X377110Y104640D03*
D14*
X389110Y104640D03*
D12*
X291110Y105140D03*
D14*
X301110Y105140D03*
D12*
X323110Y105140D03*
D13*
X337110Y105140D03*
D14*
X349110Y105140D03*
X365110Y105140D03*
D13*
X377110Y105140D03*
D14*
X389110Y105140D03*
X285110Y105640D03*
X293110Y105640D03*
D13*
X305110Y105640D03*
D12*
X323110Y105640D03*
X343110Y105640D03*
X363110Y105640D03*
X387110Y105640D03*
D14*
X397110Y105640D03*
X285110Y106140D03*
X293110Y106140D03*
D13*
X305110Y106140D03*
D12*
X323110Y106140D03*
X343110Y106140D03*
X363110Y106140D03*
X387110Y106140D03*
D14*
X397110Y106140D03*
X285110Y106640D03*
X293110Y106640D03*
D13*
X305110Y106640D03*
D12*
X323110Y106640D03*
X343110Y106640D03*
X363110Y106640D03*
X387110Y106640D03*
D14*
X397110Y106640D03*
X285110Y107140D03*
X293110Y107140D03*
D13*
X305110Y107140D03*
D12*
X323110Y107140D03*
X343110Y107140D03*
X363110Y107140D03*
X387110Y107140D03*
D14*
X397110Y107140D03*
X285110Y107640D03*
X293110Y107640D03*
D13*
X305110Y107640D03*
D12*
X323110Y107640D03*
X343110Y107640D03*
X363110Y107640D03*
X387110Y107640D03*
D14*
X397110Y107640D03*
X285110Y108140D03*
X293110Y108140D03*
D13*
X305110Y108140D03*
D12*
X323110Y108140D03*
X343110Y108140D03*
X363110Y108140D03*
X387110Y108140D03*
D14*
X397110Y108140D03*
X285110Y108640D03*
X293110Y108640D03*
D13*
X305110Y108640D03*
D12*
X323110Y108640D03*
X343110Y108640D03*
X363110Y108640D03*
X387110Y108640D03*
D14*
X397110Y108640D03*
X285110Y109140D03*
X293110Y109140D03*
D13*
X305110Y109140D03*
D12*
X323110Y109140D03*
X343110Y109140D03*
X363110Y109140D03*
X387110Y109140D03*
D14*
X397110Y109140D03*
D12*
X287110Y109640D03*
D14*
X305110Y109640D03*
D12*
X315110Y109640D03*
X343110Y109640D03*
D13*
X361110Y109640D03*
D12*
X383110Y109640D03*
D14*
X393110Y109640D03*
D12*
X287110Y110140D03*
D14*
X305110Y110140D03*
D12*
X315110Y110140D03*
X343110Y110140D03*
D13*
X361110Y110140D03*
D12*
X383110Y110140D03*
D14*
X393110Y110140D03*
D12*
X287110Y110640D03*
D14*
X305110Y110640D03*
D12*
X315110Y110640D03*
X343110Y110640D03*
D13*
X361110Y110640D03*
D12*
X383110Y110640D03*
D14*
X393110Y110640D03*
D12*
X287110Y111140D03*
D14*
X305110Y111140D03*
D12*
X315110Y111140D03*
X343110Y111140D03*
D13*
X361110Y111140D03*
D12*
X383110Y111140D03*
D14*
X393110Y111140D03*
D12*
X287110Y111640D03*
D14*
X305110Y111640D03*
D12*
X315110Y111640D03*
X343110Y111640D03*
D13*
X361110Y111640D03*
D12*
X383110Y111640D03*
D14*
X393110Y111640D03*
D12*
X287110Y112140D03*
D14*
X305110Y112140D03*
D12*
X315110Y112140D03*
X343110Y112140D03*
D13*
X361110Y112140D03*
D12*
X383110Y112140D03*
D14*
X393110Y112140D03*
D12*
X287110Y112640D03*
D14*
X305110Y112640D03*
D12*
X315110Y112640D03*
X343110Y112640D03*
D13*
X361110Y112640D03*
D12*
X383110Y112640D03*
D14*
X393110Y112640D03*
D12*
X287110Y113140D03*
D14*
X305110Y113140D03*
D12*
X315110Y113140D03*
X343110Y113140D03*
D13*
X361110Y113140D03*
D12*
X383110Y113140D03*
D14*
X393110Y113140D03*
X293110Y113640D03*
X309110Y113640D03*
X321110Y113640D03*
D12*
X335110Y113640D03*
D14*
X345110Y113640D03*
X357110Y113640D03*
D12*
X367110Y113640D03*
D14*
X385110Y113640D03*
X293110Y114140D03*
X309110Y114140D03*
X321110Y114140D03*
D12*
X335110Y114140D03*
D14*
X345110Y114140D03*
X357110Y114140D03*
D12*
X367110Y114140D03*
D14*
X385110Y114140D03*
X293110Y114640D03*
X309110Y114640D03*
X321110Y114640D03*
D12*
X335110Y114640D03*
D14*
X345110Y114640D03*
X357110Y114640D03*
D12*
X367110Y114640D03*
D14*
X385110Y114640D03*
X293110Y115140D03*
X309110Y115140D03*
X321110Y115140D03*
D12*
X335110Y115140D03*
D14*
X345110Y115140D03*
X357110Y115140D03*
D12*
X367110Y115140D03*
D14*
X385110Y115140D03*
X293110Y115640D03*
X309110Y115640D03*
X321110Y115640D03*
D12*
X335110Y115640D03*
D14*
X345110Y115640D03*
X357110Y115640D03*
D12*
X367110Y115640D03*
D14*
X385110Y115640D03*
X293110Y116140D03*
X309110Y116140D03*
X321110Y116140D03*
D12*
X335110Y116140D03*
D14*
X345110Y116140D03*
X357110Y116140D03*
D12*
X367110Y116140D03*
D14*
X385110Y116140D03*
X293110Y116640D03*
X309110Y116640D03*
X321110Y116640D03*
D12*
X335110Y116640D03*
D14*
X345110Y116640D03*
X357110Y116640D03*
D12*
X367110Y116640D03*
D14*
X385110Y116640D03*
X293110Y117140D03*
X309110Y117140D03*
X321110Y117140D03*
D12*
X335110Y117140D03*
D14*
X345110Y117140D03*
X357110Y117140D03*
D12*
X367110Y117140D03*
D14*
X385110Y117140D03*
X289110Y117640D03*
X305110Y117640D03*
X325110Y117640D03*
X341110Y117640D03*
X369110Y117640D03*
D11*
X383110Y117640D03*
D14*
X397110Y117640D03*
X289110Y118140D03*
X305110Y118140D03*
X325110Y118140D03*
X341110Y118140D03*
X369110Y118140D03*
D11*
X383110Y118140D03*
D14*
X397110Y118140D03*
X289110Y118640D03*
X305110Y118640D03*
X325110Y118640D03*
X341110Y118640D03*
X369110Y118640D03*
D11*
X383110Y118640D03*
D14*
X397110Y118640D03*
X289110Y119140D03*
X305110Y119140D03*
X325110Y119140D03*
X341110Y119140D03*
X369110Y119140D03*
D11*
X383110Y119140D03*
D14*
X397110Y119140D03*
X289110Y119640D03*
X305110Y119640D03*
X325110Y119640D03*
X341110Y119640D03*
X369110Y119640D03*
D11*
X383110Y119640D03*
D14*
X397110Y119640D03*
X289110Y120140D03*
X305110Y120140D03*
X325110Y120140D03*
X341110Y120140D03*
X369110Y120140D03*
D11*
X383110Y120140D03*
D14*
X397110Y120140D03*
X289110Y120640D03*
X305110Y120640D03*
X325110Y120640D03*
X341110Y120640D03*
X369110Y120640D03*
D11*
X383110Y120640D03*
D14*
X397110Y120640D03*
X289110Y121140D03*
X305110Y121140D03*
X325110Y121140D03*
X341110Y121140D03*
X369110Y121140D03*
D11*
X383110Y121140D03*
D14*
X397110Y121140D03*
D12*
X287110Y121640D03*
X299110Y121640D03*
D14*
X309110Y121640D03*
X321110Y121640D03*
D12*
X335110Y121640D03*
D14*
X345110Y121640D03*
D12*
X363110Y121640D03*
D14*
X373110Y121640D03*
X397110Y121640D03*
D12*
X287110Y122140D03*
X299110Y122140D03*
D14*
X309110Y122140D03*
X321110Y122140D03*
D12*
X335110Y122140D03*
D14*
X345110Y122140D03*
D12*
X363110Y122140D03*
D14*
X373110Y122140D03*
X397110Y122140D03*
D12*
X287110Y122640D03*
X299110Y122640D03*
D14*
X309110Y122640D03*
X321110Y122640D03*
D12*
X335110Y122640D03*
D14*
X345110Y122640D03*
D12*
X363110Y122640D03*
D14*
X373110Y122640D03*
X397110Y122640D03*
D12*
X287110Y123140D03*
X299110Y123140D03*
D14*
X309110Y123140D03*
X321110Y123140D03*
D12*
X335110Y123140D03*
D14*
X345110Y123140D03*
D12*
X363110Y123140D03*
D14*
X373110Y123140D03*
X397110Y123140D03*
D12*
X287110Y123640D03*
X299110Y123640D03*
D14*
X309110Y123640D03*
X321110Y123640D03*
D12*
X335110Y123640D03*
D14*
X345110Y123640D03*
D12*
X363110Y123640D03*
D14*
X373110Y123640D03*
X397110Y123640D03*
D12*
X287110Y124140D03*
X299110Y124140D03*
D14*
X309110Y124140D03*
X321110Y124140D03*
D12*
X335110Y124140D03*
D14*
X345110Y124140D03*
D12*
X363110Y124140D03*
D14*
X373110Y124140D03*
X397110Y124140D03*
D12*
X287110Y124640D03*
X299110Y124640D03*
D14*
X309110Y124640D03*
X321110Y124640D03*
D12*
X335110Y124640D03*
D14*
X345110Y124640D03*
D12*
X363110Y124640D03*
D14*
X373110Y124640D03*
X397110Y124640D03*
D12*
X287110Y125140D03*
X299110Y125140D03*
D14*
X309110Y125140D03*
X321110Y125140D03*
D12*
X335110Y125140D03*
D14*
X345110Y125140D03*
D12*
X363110Y125140D03*
D14*
X373110Y125140D03*
X397110Y125140D03*
D12*
X319110Y125640D03*
D14*
X333110Y125640D03*
D11*
X351110Y125640D03*
D14*
X365110Y125640D03*
D12*
X319110Y126140D03*
D14*
X333110Y126140D03*
D11*
X351110Y126140D03*
D14*
X365110Y126140D03*
D12*
X319110Y126640D03*
D14*
X333110Y126640D03*
D11*
X351110Y126640D03*
D14*
X365110Y126640D03*
D12*
X319110Y127140D03*
D14*
X333110Y127140D03*
D11*
X351110Y127140D03*
D14*
X365110Y127140D03*
D12*
X319110Y127640D03*
D14*
X333110Y127640D03*
D11*
X351110Y127640D03*
D14*
X365110Y127640D03*
D12*
X319110Y128140D03*
D14*
X333110Y128140D03*
D11*
X351110Y128140D03*
D14*
X365110Y128140D03*
D12*
X319110Y128640D03*
D14*
X333110Y128640D03*
D11*
X351110Y128640D03*
D14*
X365110Y128640D03*
D12*
X319110Y129140D03*
D14*
X333110Y129140D03*
D11*
X351110Y129140D03*
D14*
X365110Y129140D03*
D10*
X297110Y129640D03*
D14*
X317110Y129640D03*
X325110Y129640D03*
X333110Y129640D03*
X341110Y129640D03*
X349110Y129640D03*
X357110Y129640D03*
X365110Y129640D03*
D10*
X385110Y129640D03*
X297110Y130140D03*
D14*
X317110Y130140D03*
X325110Y130140D03*
X333110Y130140D03*
X341110Y130140D03*
X349110Y130140D03*
X357110Y130140D03*
X365110Y130140D03*
D10*
X385110Y130140D03*
X297110Y130640D03*
D14*
X317110Y130640D03*
X325110Y130640D03*
X333110Y130640D03*
X341110Y130640D03*
X349110Y130640D03*
X357110Y130640D03*
X365110Y130640D03*
D10*
X385110Y130640D03*
X297110Y131140D03*
D14*
X317110Y131140D03*
X325110Y131140D03*
X333110Y131140D03*
X341110Y131140D03*
X349110Y131140D03*
X357110Y131140D03*
X365110Y131140D03*
D10*
X385110Y131140D03*
X297110Y131640D03*
D14*
X317110Y131640D03*
X325110Y131640D03*
X333110Y131640D03*
X341110Y131640D03*
X349110Y131640D03*
X357110Y131640D03*
X365110Y131640D03*
D10*
X385110Y131640D03*
X297110Y132140D03*
D14*
X317110Y132140D03*
X325110Y132140D03*
X333110Y132140D03*
X341110Y132140D03*
X349110Y132140D03*
X357110Y132140D03*
X365110Y132140D03*
D10*
X385110Y132140D03*
X297110Y132640D03*
D14*
X317110Y132640D03*
X325110Y132640D03*
X333110Y132640D03*
X341110Y132640D03*
X349110Y132640D03*
X357110Y132640D03*
X365110Y132640D03*
D10*
X385110Y132640D03*
X297110Y133140D03*
D14*
X317110Y133140D03*
X325110Y133140D03*
X333110Y133140D03*
X341110Y133140D03*
X349110Y133140D03*
X357110Y133140D03*
X365110Y133140D03*
D10*
X385110Y133140D03*
D14*
X285110Y133640D03*
X309110Y133640D03*
X321110Y133640D03*
X329110Y133640D03*
X337110Y133640D03*
X361110Y133640D03*
X373110Y133640D03*
X397110Y133640D03*
X285110Y134140D03*
X309110Y134140D03*
X321110Y134140D03*
X329110Y134140D03*
X337110Y134140D03*
X361110Y134140D03*
X373110Y134140D03*
X397110Y134140D03*
X285110Y134640D03*
X309110Y134640D03*
X321110Y134640D03*
X329110Y134640D03*
X337110Y134640D03*
X361110Y134640D03*
X373110Y134640D03*
X397110Y134640D03*
X285110Y135140D03*
X309110Y135140D03*
X321110Y135140D03*
X329110Y135140D03*
X337110Y135140D03*
X361110Y135140D03*
X373110Y135140D03*
X397110Y135140D03*
X285110Y135640D03*
X309110Y135640D03*
X321110Y135640D03*
X329110Y135640D03*
X337110Y135640D03*
X361110Y135640D03*
X373110Y135640D03*
X397110Y135640D03*
X285110Y136140D03*
X309110Y136140D03*
X321110Y136140D03*
X329110Y136140D03*
X337110Y136140D03*
X361110Y136140D03*
X373110Y136140D03*
X397110Y136140D03*
X285110Y136640D03*
X309110Y136640D03*
X321110Y136640D03*
X329110Y136640D03*
X337110Y136640D03*
X361110Y136640D03*
X373110Y136640D03*
X397110Y136640D03*
X285110Y137140D03*
X309110Y137140D03*
X321110Y137140D03*
X329110Y137140D03*
X337110Y137140D03*
X361110Y137140D03*
X373110Y137140D03*
X397110Y137140D03*
X285110Y137640D03*
D13*
X297110Y137640D03*
D14*
X309110Y137640D03*
D13*
X329110Y137640D03*
D12*
X351110Y137640D03*
D14*
X361110Y137640D03*
X373110Y137640D03*
D13*
X385110Y137640D03*
D14*
X397110Y137640D03*
X285110Y138140D03*
D13*
X297110Y138140D03*
D14*
X309110Y138140D03*
D13*
X329110Y138140D03*
D12*
X351110Y138140D03*
D14*
X361110Y138140D03*
X373110Y138140D03*
D13*
X385110Y138140D03*
D14*
X397110Y138140D03*
X285110Y138640D03*
D13*
X297110Y138640D03*
D14*
X309110Y138640D03*
D13*
X329110Y138640D03*
D12*
X351110Y138640D03*
D14*
X361110Y138640D03*
X373110Y138640D03*
D13*
X385110Y138640D03*
D14*
X397110Y138640D03*
X285110Y139140D03*
D13*
X297110Y139140D03*
D14*
X309110Y139140D03*
D13*
X329110Y139140D03*
D12*
X351110Y139140D03*
D14*
X361110Y139140D03*
X373110Y139140D03*
D13*
X385110Y139140D03*
D14*
X397110Y139140D03*
X285110Y139640D03*
D13*
X297110Y139640D03*
D14*
X309110Y139640D03*
D13*
X329110Y139640D03*
D12*
X351110Y139640D03*
D14*
X361110Y139640D03*
X373110Y139640D03*
D13*
X385110Y139640D03*
D14*
X397110Y139640D03*
X285110Y140140D03*
D13*
X297110Y140140D03*
D14*
X309110Y140140D03*
D13*
X329110Y140140D03*
D12*
X351110Y140140D03*
D14*
X361110Y140140D03*
X373110Y140140D03*
D13*
X385110Y140140D03*
D14*
X397110Y140140D03*
X285110Y140640D03*
D13*
X297110Y140640D03*
D14*
X309110Y140640D03*
D13*
X329110Y140640D03*
D12*
X351110Y140640D03*
D14*
X361110Y140640D03*
X373110Y140640D03*
D13*
X385110Y140640D03*
D14*
X397110Y140640D03*
X285110Y141140D03*
D13*
X297110Y141140D03*
D14*
X309110Y141140D03*
D13*
X329110Y141140D03*
D12*
X351110Y141140D03*
D14*
X361110Y141140D03*
X373110Y141140D03*
D13*
X385110Y141140D03*
D14*
X397110Y141140D03*
X285110Y141640D03*
D13*
X297110Y141640D03*
D14*
X309110Y141640D03*
D12*
X327110Y141640D03*
D14*
X353110Y141640D03*
X365110Y141640D03*
X373110Y141640D03*
D13*
X385110Y141640D03*
D14*
X397110Y141640D03*
X285110Y142140D03*
D13*
X297110Y142140D03*
D14*
X309110Y142140D03*
D12*
X327110Y142140D03*
D14*
X353110Y142140D03*
X365110Y142140D03*
X373110Y142140D03*
D13*
X385110Y142140D03*
D14*
X397110Y142140D03*
X285110Y142640D03*
D13*
X297110Y142640D03*
D14*
X309110Y142640D03*
D12*
X327110Y142640D03*
D14*
X353110Y142640D03*
X365110Y142640D03*
X373110Y142640D03*
D13*
X385110Y142640D03*
D14*
X397110Y142640D03*
X285110Y143140D03*
D13*
X297110Y143140D03*
D14*
X309110Y143140D03*
D12*
X327110Y143140D03*
D14*
X353110Y143140D03*
X365110Y143140D03*
X373110Y143140D03*
D13*
X385110Y143140D03*
D14*
X397110Y143140D03*
X285110Y143640D03*
D13*
X297110Y143640D03*
D14*
X309110Y143640D03*
D12*
X327110Y143640D03*
D14*
X353110Y143640D03*
X365110Y143640D03*
X373110Y143640D03*
D13*
X385110Y143640D03*
D14*
X397110Y143640D03*
X285110Y144140D03*
D13*
X297110Y144140D03*
D14*
X309110Y144140D03*
D12*
X327110Y144140D03*
D14*
X353110Y144140D03*
X365110Y144140D03*
X373110Y144140D03*
D13*
X385110Y144140D03*
D14*
X397110Y144140D03*
X285110Y144640D03*
D13*
X297110Y144640D03*
D14*
X309110Y144640D03*
D12*
X327110Y144640D03*
D14*
X353110Y144640D03*
X365110Y144640D03*
X373110Y144640D03*
D13*
X385110Y144640D03*
D14*
X397110Y144640D03*
X285110Y145140D03*
D13*
X297110Y145140D03*
D14*
X309110Y145140D03*
D12*
X327110Y145140D03*
D14*
X353110Y145140D03*
X365110Y145140D03*
X373110Y145140D03*
D13*
X385110Y145140D03*
D14*
X397110Y145140D03*
X285110Y145640D03*
D13*
X297110Y145640D03*
D14*
X309110Y145640D03*
X321110Y145640D03*
X329110Y145640D03*
D12*
X355110Y145640D03*
D14*
X365110Y145640D03*
X373110Y145640D03*
D13*
X385110Y145640D03*
D14*
X397110Y145640D03*
X285110Y146140D03*
D13*
X297110Y146140D03*
D14*
X309110Y146140D03*
X321110Y146140D03*
X329110Y146140D03*
D12*
X355110Y146140D03*
D14*
X365110Y146140D03*
X373110Y146140D03*
D13*
X385110Y146140D03*
D14*
X397110Y146140D03*
X285110Y146640D03*
D13*
X297110Y146640D03*
D14*
X309110Y146640D03*
X321110Y146640D03*
X329110Y146640D03*
D12*
X355110Y146640D03*
D14*
X365110Y146640D03*
X373110Y146640D03*
D13*
X385110Y146640D03*
D14*
X397110Y146640D03*
X285110Y147140D03*
D13*
X297110Y147140D03*
D14*
X309110Y147140D03*
X321110Y147140D03*
X329110Y147140D03*
D12*
X355110Y147140D03*
D14*
X365110Y147140D03*
X373110Y147140D03*
D13*
X385110Y147140D03*
D14*
X397110Y147140D03*
X285110Y147640D03*
D13*
X297110Y147640D03*
D14*
X309110Y147640D03*
X321110Y147640D03*
X329110Y147640D03*
D12*
X355110Y147640D03*
D14*
X365110Y147640D03*
X373110Y147640D03*
D13*
X385110Y147640D03*
D14*
X397110Y147640D03*
X285110Y148140D03*
D13*
X297110Y148140D03*
D14*
X309110Y148140D03*
X321110Y148140D03*
X329110Y148140D03*
D12*
X355110Y148140D03*
D14*
X365110Y148140D03*
X373110Y148140D03*
D13*
X385110Y148140D03*
D14*
X397110Y148140D03*
X285110Y148640D03*
D13*
X297110Y148640D03*
D14*
X309110Y148640D03*
X321110Y148640D03*
X329110Y148640D03*
D12*
X355110Y148640D03*
D14*
X365110Y148640D03*
X373110Y148640D03*
D13*
X385110Y148640D03*
D14*
X397110Y148640D03*
X285110Y149140D03*
D13*
X297110Y149140D03*
D14*
X309110Y149140D03*
X321110Y149140D03*
X329110Y149140D03*
D12*
X355110Y149140D03*
D14*
X365110Y149140D03*
X373110Y149140D03*
D13*
X385110Y149140D03*
D14*
X397110Y149140D03*
X285110Y149640D03*
X309110Y149640D03*
D12*
X331110Y149640D03*
D14*
X341110Y149640D03*
X353110Y149640D03*
D12*
X363110Y149640D03*
D14*
X373110Y149640D03*
X397110Y149640D03*
X285110Y150140D03*
X309110Y150140D03*
D12*
X331110Y150140D03*
D14*
X341110Y150140D03*
X353110Y150140D03*
D12*
X363110Y150140D03*
D14*
X373110Y150140D03*
X397110Y150140D03*
X285110Y150640D03*
X309110Y150640D03*
D12*
X331110Y150640D03*
D14*
X341110Y150640D03*
X353110Y150640D03*
D12*
X363110Y150640D03*
D14*
X373110Y150640D03*
X397110Y150640D03*
X285110Y151140D03*
X309110Y151140D03*
D12*
X331110Y151140D03*
D14*
X341110Y151140D03*
X353110Y151140D03*
D12*
X363110Y151140D03*
D14*
X373110Y151140D03*
X397110Y151140D03*
X285110Y151640D03*
X309110Y151640D03*
D12*
X331110Y151640D03*
D14*
X341110Y151640D03*
X353110Y151640D03*
D12*
X363110Y151640D03*
D14*
X373110Y151640D03*
X397110Y151640D03*
X285110Y152140D03*
X309110Y152140D03*
D12*
X331110Y152140D03*
D14*
X341110Y152140D03*
X353110Y152140D03*
D12*
X363110Y152140D03*
D14*
X373110Y152140D03*
X397110Y152140D03*
X285110Y152640D03*
X309110Y152640D03*
D12*
X331110Y152640D03*
D14*
X341110Y152640D03*
X353110Y152640D03*
D12*
X363110Y152640D03*
D14*
X373110Y152640D03*
X397110Y152640D03*
X285110Y153140D03*
X309110Y153140D03*
D12*
X331110Y153140D03*
D14*
X341110Y153140D03*
X353110Y153140D03*
D12*
X363110Y153140D03*
D14*
X373110Y153140D03*
X397110Y153140D03*
D10*
X297110Y153640D03*
D11*
X323110Y153640D03*
D12*
X339110Y153640D03*
D14*
X353110Y153640D03*
X365110Y153640D03*
D10*
X385110Y153640D03*
X297110Y154140D03*
D11*
X323110Y154140D03*
D12*
X339110Y154140D03*
D14*
X353110Y154140D03*
X365110Y154140D03*
D10*
X385110Y154140D03*
X297110Y154640D03*
D11*
X323110Y154640D03*
D12*
X339110Y154640D03*
D14*
X353110Y154640D03*
X365110Y154640D03*
D10*
X385110Y154640D03*
X297110Y155140D03*
D11*
X323110Y155140D03*
D12*
X339110Y155140D03*
D14*
X353110Y155140D03*
X365110Y155140D03*
D10*
X385110Y155140D03*
X297110Y155640D03*
D11*
X323110Y155640D03*
D12*
X339110Y155640D03*
D14*
X353110Y155640D03*
X365110Y155640D03*
D10*
X385110Y155640D03*
X297110Y156140D03*
D11*
X323110Y156140D03*
D12*
X339110Y156140D03*
D14*
X353110Y156140D03*
X365110Y156140D03*
D10*
X385110Y156140D03*
X297110Y156640D03*
D11*
X323110Y156640D03*
D12*
X339110Y156640D03*
D14*
X353110Y156640D03*
X365110Y156640D03*
D10*
X385110Y156640D03*
X297110Y157140D03*
D11*
X323110Y157140D03*
D12*
X339110Y157140D03*
D14*
X353110Y157140D03*
X365110Y157140D03*
D10*
X385110Y157140D03*
D17*
X118050Y140560D02*
X118050Y45810D01*
X201050Y78310D02*
X201050Y140560D01*
D18*
X155448Y163068D02*
X152852Y163068D01*
X152753Y163070D01*
X152653Y163076D01*
X152554Y163085D01*
X152456Y163098D01*
X152358Y163115D01*
X152260Y163136D01*
X152164Y163161D01*
X152069Y163189D01*
X151975Y163221D01*
X151882Y163256D01*
X151790Y163295D01*
X151700Y163338D01*
X151612Y163383D01*
X151525Y163433D01*
X151441Y163485D01*
X151358Y163541D01*
X151278Y163599D01*
X151200Y163661D01*
X151125Y163726D01*
X151052Y163794D01*
X150982Y163864D01*
X150914Y163937D01*
X150849Y164012D01*
X150787Y164090D01*
X150729Y164170D01*
X150673Y164253D01*
X150621Y164337D01*
X150571Y164424D01*
X150526Y164512D01*
X150483Y164602D01*
X150444Y164694D01*
X150409Y164787D01*
X150377Y164881D01*
X150349Y164976D01*
X150324Y165072D01*
X150303Y165170D01*
X150286Y165268D01*
X150273Y165366D01*
X150264Y165465D01*
X150258Y165565D01*
X150256Y165664D01*
X150255Y165664D02*
X150255Y172156D01*
X150256Y172156D02*
X150258Y172255D01*
X150264Y172355D01*
X150273Y172454D01*
X150286Y172552D01*
X150303Y172650D01*
X150324Y172748D01*
X150349Y172844D01*
X150377Y172939D01*
X150409Y173033D01*
X150444Y173126D01*
X150483Y173218D01*
X150526Y173308D01*
X150571Y173396D01*
X150621Y173483D01*
X150673Y173567D01*
X150729Y173650D01*
X150787Y173730D01*
X150849Y173808D01*
X150914Y173883D01*
X150982Y173956D01*
X151052Y174026D01*
X151125Y174094D01*
X151200Y174159D01*
X151278Y174221D01*
X151358Y174279D01*
X151441Y174335D01*
X151525Y174387D01*
X151612Y174437D01*
X151700Y174482D01*
X151790Y174525D01*
X151882Y174564D01*
X151974Y174599D01*
X152069Y174631D01*
X152164Y174659D01*
X152260Y174684D01*
X152358Y174705D01*
X152456Y174722D01*
X152554Y174735D01*
X152653Y174744D01*
X152753Y174750D01*
X152852Y174752D01*
X155448Y174752D01*
X159814Y169559D02*
X163708Y169559D01*
X163807Y169557D01*
X163907Y169551D01*
X164006Y169542D01*
X164104Y169529D01*
X164202Y169512D01*
X164300Y169491D01*
X164396Y169466D01*
X164491Y169438D01*
X164585Y169406D01*
X164678Y169371D01*
X164770Y169332D01*
X164860Y169289D01*
X164948Y169244D01*
X165035Y169194D01*
X165119Y169142D01*
X165202Y169086D01*
X165282Y169028D01*
X165360Y168966D01*
X165435Y168901D01*
X165508Y168833D01*
X165578Y168763D01*
X165646Y168690D01*
X165711Y168615D01*
X165773Y168537D01*
X165831Y168457D01*
X165887Y168374D01*
X165939Y168290D01*
X165989Y168203D01*
X166034Y168115D01*
X166077Y168025D01*
X166116Y167933D01*
X166151Y167840D01*
X166183Y167746D01*
X166211Y167651D01*
X166236Y167555D01*
X166257Y167457D01*
X166274Y167359D01*
X166287Y167261D01*
X166296Y167162D01*
X166302Y167062D01*
X166304Y166963D01*
X166305Y166963D02*
X166305Y166314D01*
X166303Y166201D01*
X166297Y166088D01*
X166287Y165975D01*
X166273Y165862D01*
X166256Y165750D01*
X166234Y165639D01*
X166209Y165529D01*
X166179Y165419D01*
X166146Y165311D01*
X166109Y165204D01*
X166069Y165098D01*
X166024Y164994D01*
X165976Y164891D01*
X165925Y164790D01*
X165870Y164691D01*
X165812Y164594D01*
X165750Y164499D01*
X165685Y164406D01*
X165617Y164316D01*
X165546Y164228D01*
X165471Y164142D01*
X165394Y164059D01*
X165314Y163979D01*
X165231Y163902D01*
X165145Y163827D01*
X165057Y163756D01*
X164967Y163688D01*
X164874Y163623D01*
X164779Y163561D01*
X164682Y163503D01*
X164583Y163448D01*
X164482Y163397D01*
X164379Y163349D01*
X164275Y163304D01*
X164169Y163264D01*
X164062Y163227D01*
X163954Y163194D01*
X163844Y163164D01*
X163734Y163139D01*
X163623Y163117D01*
X163511Y163100D01*
X163398Y163086D01*
X163285Y163076D01*
X163172Y163070D01*
X163059Y163068D01*
X162946Y163070D01*
X162833Y163076D01*
X162720Y163086D01*
X162607Y163100D01*
X162495Y163117D01*
X162384Y163139D01*
X162274Y163164D01*
X162164Y163194D01*
X162056Y163227D01*
X161949Y163264D01*
X161843Y163304D01*
X161739Y163349D01*
X161636Y163397D01*
X161535Y163448D01*
X161436Y163503D01*
X161339Y163561D01*
X161244Y163623D01*
X161151Y163688D01*
X161061Y163756D01*
X160973Y163827D01*
X160887Y163902D01*
X160804Y163979D01*
X160724Y164059D01*
X160647Y164142D01*
X160572Y164228D01*
X160501Y164316D01*
X160433Y164406D01*
X160368Y164499D01*
X160306Y164594D01*
X160248Y164691D01*
X160193Y164790D01*
X160142Y164891D01*
X160094Y164994D01*
X160049Y165098D01*
X160009Y165204D01*
X159972Y165311D01*
X159939Y165419D01*
X159909Y165529D01*
X159884Y165639D01*
X159862Y165750D01*
X159845Y165862D01*
X159831Y165975D01*
X159821Y166088D01*
X159815Y166201D01*
X159813Y166314D01*
X159814Y166314D02*
X159814Y169559D01*
X159813Y169559D02*
X159815Y169702D01*
X159821Y169845D01*
X159831Y169988D01*
X159845Y170130D01*
X159862Y170272D01*
X159884Y170414D01*
X159909Y170555D01*
X159939Y170695D01*
X159972Y170834D01*
X160009Y170972D01*
X160050Y171109D01*
X160094Y171245D01*
X160143Y171380D01*
X160195Y171513D01*
X160250Y171645D01*
X160310Y171775D01*
X160373Y171904D01*
X160439Y172031D01*
X160509Y172155D01*
X160582Y172278D01*
X160659Y172399D01*
X160739Y172518D01*
X160822Y172634D01*
X160908Y172749D01*
X160997Y172860D01*
X161090Y172970D01*
X161185Y173076D01*
X161284Y173180D01*
X161385Y173281D01*
X161489Y173380D01*
X161595Y173475D01*
X161705Y173568D01*
X161816Y173657D01*
X161931Y173743D01*
X162047Y173826D01*
X162166Y173906D01*
X162287Y173983D01*
X162409Y174056D01*
X162534Y174126D01*
X162661Y174192D01*
X162790Y174255D01*
X162920Y174315D01*
X163052Y174370D01*
X163185Y174422D01*
X163320Y174471D01*
X163456Y174515D01*
X163593Y174556D01*
X163731Y174593D01*
X163870Y174626D01*
X164010Y174656D01*
X164151Y174681D01*
X164293Y174703D01*
X164435Y174720D01*
X164577Y174734D01*
X164720Y174744D01*
X164863Y174750D01*
X165006Y174752D01*
D19*
X44050Y125400D02*
X5950Y125400D01*
D20*
X5334Y124926D01*
X4729Y124437D01*
X4137Y123933D01*
X3557Y123415D01*
X2990Y122883D01*
X2436Y122337D01*
X1896Y121778D01*
X1370Y121205D01*
X857Y120620D01*
X360Y120023D01*
X-123Y119414D01*
X-591Y118793D01*
X-1044Y118160D01*
X-1481Y117517D01*
X-1902Y116863D01*
X-2306Y116199D01*
X-2695Y115526D01*
X-3067Y114843D01*
X-3422Y114151D01*
X-3760Y113451D01*
X-4081Y112743D01*
X-4384Y112027D01*
X-4670Y111303D01*
X-4938Y110574D01*
X-5188Y109837D01*
X-5419Y109095D01*
X-5633Y108347D01*
X-5828Y107595D01*
X-6005Y106837D01*
X-6163Y106076D01*
X-6303Y105311D01*
X-6423Y104543D01*
X-6525Y103772D01*
X-6608Y102999D01*
X-6672Y102224D01*
X-6717Y101448D01*
X-6743Y100671D01*
X-6750Y99893D01*
X-6738Y99116D01*
X-6707Y98339D01*
X-6656Y97563D01*
X-6587Y96788D01*
X-6499Y96016D01*
X-6392Y95246D01*
X-6266Y94478D01*
X-6122Y93714D01*
X-5958Y92954D01*
X-5776Y92198D01*
X-5576Y91447D01*
X-5358Y90700D01*
X-5121Y89960D01*
X-4866Y89225D01*
X-4593Y88497D01*
X-4302Y87776D01*
X-3994Y87062D01*
X-3669Y86356D01*
X-3326Y85658D01*
X-2966Y84968D01*
X-2590Y84288D01*
X-2197Y83617D01*
X-1787Y82956D01*
X-1362Y82305D01*
X-921Y81665D01*
X-464Y81036D01*
X8Y80418D01*
X495Y79812D01*
X997Y79218D01*
X1513Y78636D01*
X2043Y78067D01*
X2587Y77512D01*
X3145Y76969D01*
X3715Y76441D01*
X4298Y75927D01*
X4894Y75427D01*
X5502Y74942D01*
X6121Y74472D01*
X6752Y74018D01*
X7394Y73579D01*
X8046Y73155D01*
X8709Y72748D01*
X9381Y72357D01*
X10063Y71983D01*
X10753Y71626D01*
X11452Y71286D01*
X12160Y70962D01*
X12874Y70657D01*
X13597Y70368D01*
X14326Y70098D01*
X15061Y69846D01*
X15803Y69611D01*
X16550Y69395D01*
X17302Y69197D01*
X18058Y69018D01*
X18819Y68857D01*
X19583Y68715D01*
X20351Y68592D01*
X21122Y68488D01*
X21895Y68402D01*
X22669Y68336D01*
X23445Y68288D01*
X24222Y68260D01*
X25000Y68250D01*
X25778Y68260D01*
X26555Y68288D01*
X27331Y68336D01*
X28105Y68402D01*
X28878Y68488D01*
X29649Y68592D01*
X30417Y68715D01*
X31181Y68857D01*
X31942Y69018D01*
X32698Y69197D01*
X33450Y69395D01*
X34197Y69611D01*
X34939Y69846D01*
X35674Y70098D01*
X36403Y70368D01*
X37126Y70657D01*
X37840Y70962D01*
X38548Y71286D01*
X39247Y71626D01*
X39937Y71983D01*
X40619Y72357D01*
X41291Y72748D01*
X41954Y73155D01*
X42606Y73579D01*
X43248Y74018D01*
X43879Y74472D01*
X44498Y74942D01*
X45106Y75427D01*
X45702Y75927D01*
X46285Y76441D01*
X46855Y76969D01*
X47413Y77512D01*
X47957Y78067D01*
X48487Y78636D01*
X49003Y79218D01*
X49505Y79812D01*
X49992Y80418D01*
X50464Y81036D01*
X50921Y81665D01*
X51362Y82305D01*
X51787Y82956D01*
X52197Y83617D01*
X52590Y84288D01*
X52966Y84968D01*
X53326Y85658D01*
X53669Y86356D01*
X53994Y87062D01*
X54302Y87776D01*
X54593Y88497D01*
X54866Y89225D01*
X55121Y89960D01*
X55358Y90700D01*
X55576Y91447D01*
X55776Y92198D01*
X55958Y92954D01*
X56122Y93714D01*
X56266Y94478D01*
X56392Y95246D01*
X56499Y96016D01*
X56587Y96788D01*
X56656Y97563D01*
X56707Y98339D01*
X56738Y99116D01*
X56750Y99893D01*
X56743Y100671D01*
X56717Y101448D01*
X56672Y102224D01*
X56608Y102999D01*
X56525Y103772D01*
X56423Y104543D01*
X56303Y105311D01*
X56163Y106076D01*
X56005Y106837D01*
X55828Y107595D01*
X55633Y108347D01*
X55419Y109095D01*
X55188Y109837D01*
X54938Y110574D01*
X54670Y111303D01*
X54384Y112027D01*
X54081Y112743D01*
X53760Y113451D01*
X53422Y114151D01*
X53067Y114843D01*
X52695Y115526D01*
X52306Y116199D01*
X51902Y116863D01*
X51481Y117517D01*
X51044Y118160D01*
X50591Y118793D01*
X50123Y119414D01*
X49640Y120023D01*
X49143Y120620D01*
X48630Y121205D01*
X48104Y121778D01*
X47564Y122337D01*
X47010Y122883D01*
X46443Y123415D01*
X45863Y123933D01*
X45271Y124437D01*
X44666Y124926D01*
X44050Y125400D01*
D21*
X-400Y100000D02*
X-392Y100623D01*
X-369Y101246D01*
X-331Y101869D01*
X-278Y102490D01*
X-209Y103109D01*
X-125Y103727D01*
X-26Y104342D01*
X88Y104955D01*
X217Y105565D01*
X361Y106172D01*
X520Y106775D01*
X694Y107373D01*
X882Y107968D01*
X1085Y108557D01*
X1302Y109141D01*
X1533Y109720D01*
X1779Y110293D01*
X2039Y110860D01*
X2312Y111420D01*
X2599Y111973D01*
X2900Y112520D01*
X3214Y113058D01*
X3541Y113589D01*
X3881Y114111D01*
X4233Y114626D01*
X4599Y115131D01*
X4976Y115627D01*
X5366Y116114D01*
X5767Y116591D01*
X6180Y117058D01*
X6604Y117514D01*
X7039Y117961D01*
X7486Y118396D01*
X7942Y118820D01*
X8409Y119233D01*
X8886Y119634D01*
X9373Y120024D01*
X9869Y120401D01*
X10374Y120767D01*
X10889Y121119D01*
X11411Y121459D01*
X11942Y121786D01*
X12480Y122100D01*
X13027Y122401D01*
X13580Y122688D01*
X14140Y122961D01*
X14707Y123221D01*
X15280Y123467D01*
X15859Y123698D01*
X16443Y123915D01*
X17032Y124118D01*
X17627Y124306D01*
X18225Y124480D01*
X18828Y124639D01*
X19435Y124783D01*
X20045Y124912D01*
X20658Y125026D01*
X21273Y125125D01*
X21891Y125209D01*
X22510Y125278D01*
X23131Y125331D01*
X23754Y125369D01*
X24377Y125392D01*
X25000Y125400D01*
X25623Y125392D01*
X26246Y125369D01*
X26869Y125331D01*
X27490Y125278D01*
X28109Y125209D01*
X28727Y125125D01*
X29342Y125026D01*
X29955Y124912D01*
X30565Y124783D01*
X31172Y124639D01*
X31775Y124480D01*
X32373Y124306D01*
X32968Y124118D01*
X33557Y123915D01*
X34141Y123698D01*
X34720Y123467D01*
X35293Y123221D01*
X35860Y122961D01*
X36420Y122688D01*
X36973Y122401D01*
X37520Y122100D01*
X38058Y121786D01*
X38589Y121459D01*
X39111Y121119D01*
X39626Y120767D01*
X40131Y120401D01*
X40627Y120024D01*
X41114Y119634D01*
X41591Y119233D01*
X42058Y118820D01*
X42514Y118396D01*
X42961Y117961D01*
X43396Y117514D01*
X43820Y117058D01*
X44233Y116591D01*
X44634Y116114D01*
X45024Y115627D01*
X45401Y115131D01*
X45767Y114626D01*
X46119Y114111D01*
X46459Y113589D01*
X46786Y113058D01*
X47100Y112520D01*
X47401Y111973D01*
X47688Y111420D01*
X47961Y110860D01*
X48221Y110293D01*
X48467Y109720D01*
X48698Y109141D01*
X48915Y108557D01*
X49118Y107968D01*
X49306Y107373D01*
X49480Y106775D01*
X49639Y106172D01*
X49783Y105565D01*
X49912Y104955D01*
X50026Y104342D01*
X50125Y103727D01*
X50209Y103109D01*
X50278Y102490D01*
X50331Y101869D01*
X50369Y101246D01*
X50392Y100623D01*
X50400Y100000D01*
X50392Y99377D01*
X50369Y98754D01*
X50331Y98131D01*
X50278Y97510D01*
X50209Y96891D01*
X50125Y96273D01*
X50026Y95658D01*
X49912Y95045D01*
X49783Y94435D01*
X49639Y93828D01*
X49480Y93225D01*
X49306Y92627D01*
X49118Y92032D01*
X48915Y91443D01*
X48698Y90859D01*
X48467Y90280D01*
X48221Y89707D01*
X47961Y89140D01*
X47688Y88580D01*
X47401Y88027D01*
X47100Y87480D01*
X46786Y86942D01*
X46459Y86411D01*
X46119Y85889D01*
X45767Y85374D01*
X45401Y84869D01*
X45024Y84373D01*
X44634Y83886D01*
X44233Y83409D01*
X43820Y82942D01*
X43396Y82486D01*
X42961Y82039D01*
X42514Y81604D01*
X42058Y81180D01*
X41591Y80767D01*
X41114Y80366D01*
X40627Y79976D01*
X40131Y79599D01*
X39626Y79233D01*
X39111Y78881D01*
X38589Y78541D01*
X38058Y78214D01*
X37520Y77900D01*
X36973Y77599D01*
X36420Y77312D01*
X35860Y77039D01*
X35293Y76779D01*
X34720Y76533D01*
X34141Y76302D01*
X33557Y76085D01*
X32968Y75882D01*
X32373Y75694D01*
X31775Y75520D01*
X31172Y75361D01*
X30565Y75217D01*
X29955Y75088D01*
X29342Y74974D01*
X28727Y74875D01*
X28109Y74791D01*
X27490Y74722D01*
X26869Y74669D01*
X26246Y74631D01*
X25623Y74608D01*
X25000Y74600D01*
X24377Y74608D01*
X23754Y74631D01*
X23131Y74669D01*
X22510Y74722D01*
X21891Y74791D01*
X21273Y74875D01*
X20658Y74974D01*
X20045Y75088D01*
X19435Y75217D01*
X18828Y75361D01*
X18225Y75520D01*
X17627Y75694D01*
X17032Y75882D01*
X16443Y76085D01*
X15859Y76302D01*
X15280Y76533D01*
X14707Y76779D01*
X14140Y77039D01*
X13580Y77312D01*
X13027Y77599D01*
X12480Y77900D01*
X11942Y78214D01*
X11411Y78541D01*
X10889Y78881D01*
X10374Y79233D01*
X9869Y79599D01*
X9373Y79976D01*
X8886Y80366D01*
X8409Y80767D01*
X7942Y81180D01*
X7486Y81604D01*
X7039Y82039D01*
X6604Y82486D01*
X6180Y82942D01*
X5767Y83409D01*
X5366Y83886D01*
X4976Y84373D01*
X4599Y84869D01*
X4233Y85374D01*
X3881Y85889D01*
X3541Y86411D01*
X3214Y86942D01*
X2900Y87480D01*
X2599Y88027D01*
X2312Y88580D01*
X2039Y89140D01*
X1779Y89707D01*
X1533Y90280D01*
X1302Y90859D01*
X1085Y91443D01*
X882Y92032D01*
X694Y92627D01*
X520Y93225D01*
X361Y93828D01*
X217Y94435D01*
X88Y95045D01*
X-26Y95658D01*
X-125Y96273D01*
X-209Y96891D01*
X-278Y97510D01*
X-331Y98131D01*
X-369Y98754D01*
X-392Y99377D01*
X-400Y100000D01*
D22*
X7855Y131369D02*
X7855Y142799D01*
X6585Y131369D02*
X9125Y131369D01*
X9125Y142799D02*
X6585Y142799D01*
X14288Y142799D02*
X14288Y131369D01*
X14288Y142799D02*
X17463Y142799D01*
X17574Y142797D01*
X17684Y142791D01*
X17795Y142782D01*
X17905Y142768D01*
X18014Y142751D01*
X18123Y142730D01*
X18231Y142705D01*
X18338Y142676D01*
X18444Y142644D01*
X18549Y142608D01*
X18652Y142568D01*
X18754Y142525D01*
X18855Y142478D01*
X18954Y142427D01*
X19051Y142374D01*
X19145Y142317D01*
X19238Y142256D01*
X19329Y142193D01*
X19418Y142126D01*
X19504Y142056D01*
X19587Y141983D01*
X19669Y141908D01*
X19747Y141830D01*
X19822Y141748D01*
X19895Y141665D01*
X19965Y141579D01*
X20032Y141490D01*
X20095Y141399D01*
X20156Y141306D01*
X20213Y141211D01*
X20266Y141115D01*
X20317Y141016D01*
X20364Y140915D01*
X20407Y140813D01*
X20447Y140710D01*
X20483Y140605D01*
X20515Y140499D01*
X20544Y140392D01*
X20569Y140284D01*
X20590Y140175D01*
X20607Y140066D01*
X20621Y139956D01*
X20630Y139845D01*
X20636Y139735D01*
X20638Y139624D01*
X20636Y139513D01*
X20630Y139403D01*
X20621Y139292D01*
X20607Y139182D01*
X20590Y139073D01*
X20569Y138964D01*
X20544Y138856D01*
X20515Y138749D01*
X20483Y138643D01*
X20447Y138538D01*
X20407Y138435D01*
X20364Y138333D01*
X20317Y138232D01*
X20266Y138133D01*
X20213Y138036D01*
X20156Y137942D01*
X20095Y137849D01*
X20032Y137758D01*
X19965Y137669D01*
X19895Y137583D01*
X19822Y137500D01*
X19747Y137418D01*
X19669Y137340D01*
X19587Y137265D01*
X19504Y137192D01*
X19418Y137122D01*
X19329Y137055D01*
X19238Y136992D01*
X19145Y136931D01*
X19050Y136874D01*
X18954Y136821D01*
X18855Y136770D01*
X18754Y136723D01*
X18652Y136680D01*
X18549Y136640D01*
X18444Y136604D01*
X18338Y136572D01*
X18231Y136543D01*
X18123Y136518D01*
X18014Y136497D01*
X17905Y136480D01*
X17795Y136466D01*
X17684Y136457D01*
X17574Y136451D01*
X17463Y136449D01*
X14288Y136449D01*
X18098Y136449D02*
X20638Y131369D01*
X26041Y131369D02*
X26041Y142799D01*
X26041Y131369D02*
X31121Y131369D01*
X35947Y131369D02*
X41027Y131369D01*
X35947Y131369D02*
X35947Y142799D01*
X41027Y142799D01*
X39757Y137719D02*
X35947Y137719D01*
X45828Y142799D02*
X45828Y131369D01*
X45828Y142799D02*
X49003Y142799D01*
X49114Y142797D01*
X49224Y142791D01*
X49335Y142782D01*
X49445Y142768D01*
X49554Y142751D01*
X49663Y142730D01*
X49771Y142705D01*
X49878Y142676D01*
X49984Y142644D01*
X50089Y142608D01*
X50192Y142568D01*
X50294Y142525D01*
X50395Y142478D01*
X50494Y142427D01*
X50591Y142374D01*
X50685Y142317D01*
X50778Y142256D01*
X50869Y142193D01*
X50958Y142126D01*
X51044Y142056D01*
X51127Y141983D01*
X51209Y141908D01*
X51287Y141830D01*
X51362Y141748D01*
X51435Y141665D01*
X51505Y141579D01*
X51572Y141490D01*
X51635Y141399D01*
X51696Y141306D01*
X51753Y141212D01*
X51806Y141115D01*
X51857Y141016D01*
X51904Y140915D01*
X51947Y140813D01*
X51987Y140710D01*
X52023Y140605D01*
X52055Y140499D01*
X52084Y140392D01*
X52109Y140284D01*
X52130Y140175D01*
X52147Y140066D01*
X52161Y139956D01*
X52170Y139845D01*
X52176Y139735D01*
X52178Y139624D01*
X52178Y134544D01*
X52176Y134433D01*
X52170Y134323D01*
X52161Y134212D01*
X52147Y134102D01*
X52130Y133993D01*
X52109Y133884D01*
X52084Y133776D01*
X52055Y133669D01*
X52023Y133563D01*
X51987Y133458D01*
X51947Y133355D01*
X51904Y133253D01*
X51857Y133152D01*
X51806Y133053D01*
X51753Y132956D01*
X51696Y132862D01*
X51635Y132769D01*
X51572Y132678D01*
X51505Y132589D01*
X51435Y132503D01*
X51362Y132420D01*
X51287Y132338D01*
X51209Y132260D01*
X51127Y132185D01*
X51044Y132112D01*
X50958Y132042D01*
X50869Y131975D01*
X50778Y131912D01*
X50685Y131851D01*
X50590Y131794D01*
X50494Y131741D01*
X50395Y131690D01*
X50294Y131643D01*
X50192Y131600D01*
X50089Y131560D01*
X49984Y131524D01*
X49878Y131492D01*
X49771Y131463D01*
X49663Y131438D01*
X49554Y131417D01*
X49445Y131400D01*
X49335Y131386D01*
X49224Y131377D01*
X49114Y131371D01*
X49003Y131369D01*
X45828Y131369D01*
D17*
X228900Y130180D02*
X229900Y130180D01*
X228900Y130180D02*
X228900Y159380D01*
X229900Y159380D01*
X229900Y130180D01*
X233400Y129780D02*
X246400Y129780D01*
D18*
X209153Y172664D02*
X209153Y177856D01*
X209152Y177856D02*
X209154Y177969D01*
X209160Y178082D01*
X209170Y178195D01*
X209184Y178308D01*
X209201Y178420D01*
X209223Y178531D01*
X209248Y178641D01*
X209278Y178751D01*
X209311Y178859D01*
X209348Y178966D01*
X209388Y179072D01*
X209433Y179176D01*
X209481Y179279D01*
X209532Y179380D01*
X209587Y179479D01*
X209645Y179576D01*
X209707Y179671D01*
X209772Y179764D01*
X209840Y179854D01*
X209911Y179942D01*
X209986Y180028D01*
X210063Y180111D01*
X210143Y180191D01*
X210226Y180268D01*
X210312Y180343D01*
X210400Y180414D01*
X210490Y180482D01*
X210583Y180547D01*
X210678Y180609D01*
X210775Y180667D01*
X210874Y180722D01*
X210975Y180773D01*
X211078Y180821D01*
X211182Y180866D01*
X211288Y180906D01*
X211395Y180943D01*
X211503Y180976D01*
X211613Y181006D01*
X211723Y181031D01*
X211834Y181053D01*
X211946Y181070D01*
X212059Y181084D01*
X212172Y181094D01*
X212285Y181100D01*
X212398Y181102D01*
X212511Y181100D01*
X212624Y181094D01*
X212737Y181084D01*
X212850Y181070D01*
X212962Y181053D01*
X213073Y181031D01*
X213183Y181006D01*
X213293Y180976D01*
X213401Y180943D01*
X213508Y180906D01*
X213614Y180866D01*
X213718Y180821D01*
X213821Y180773D01*
X213922Y180722D01*
X214021Y180667D01*
X214118Y180609D01*
X214213Y180547D01*
X214306Y180482D01*
X214396Y180414D01*
X214484Y180343D01*
X214570Y180268D01*
X214653Y180191D01*
X214733Y180111D01*
X214810Y180028D01*
X214885Y179942D01*
X214956Y179854D01*
X215024Y179764D01*
X215089Y179671D01*
X215151Y179576D01*
X215209Y179479D01*
X215264Y179380D01*
X215315Y179279D01*
X215363Y179176D01*
X215408Y179072D01*
X215448Y178966D01*
X215485Y178859D01*
X215518Y178751D01*
X215548Y178641D01*
X215573Y178531D01*
X215595Y178420D01*
X215612Y178308D01*
X215626Y178195D01*
X215636Y178082D01*
X215642Y177969D01*
X215644Y177856D01*
X215644Y172664D01*
X215642Y172551D01*
X215636Y172438D01*
X215626Y172325D01*
X215612Y172212D01*
X215595Y172100D01*
X215573Y171989D01*
X215548Y171879D01*
X215518Y171769D01*
X215485Y171661D01*
X215448Y171554D01*
X215408Y171448D01*
X215363Y171344D01*
X215315Y171241D01*
X215264Y171140D01*
X215209Y171041D01*
X215151Y170944D01*
X215089Y170849D01*
X215024Y170756D01*
X214956Y170666D01*
X214885Y170578D01*
X214810Y170492D01*
X214733Y170409D01*
X214653Y170329D01*
X214570Y170252D01*
X214484Y170177D01*
X214396Y170106D01*
X214306Y170038D01*
X214213Y169973D01*
X214118Y169911D01*
X214021Y169853D01*
X213922Y169798D01*
X213821Y169747D01*
X213718Y169699D01*
X213614Y169654D01*
X213508Y169614D01*
X213401Y169577D01*
X213293Y169544D01*
X213183Y169514D01*
X213073Y169489D01*
X212962Y169467D01*
X212850Y169450D01*
X212737Y169436D01*
X212624Y169426D01*
X212511Y169420D01*
X212398Y169418D01*
X212285Y169420D01*
X212172Y169426D01*
X212059Y169436D01*
X211946Y169450D01*
X211834Y169467D01*
X211723Y169489D01*
X211613Y169514D01*
X211503Y169544D01*
X211395Y169577D01*
X211288Y169614D01*
X211182Y169654D01*
X211078Y169699D01*
X210975Y169747D01*
X210874Y169798D01*
X210775Y169853D01*
X210678Y169911D01*
X210583Y169973D01*
X210490Y170038D01*
X210400Y170106D01*
X210312Y170177D01*
X210226Y170252D01*
X210143Y170329D01*
X210063Y170409D01*
X209986Y170492D01*
X209911Y170578D01*
X209840Y170666D01*
X209772Y170756D01*
X209707Y170849D01*
X209645Y170944D01*
X209587Y171041D01*
X209532Y171140D01*
X209481Y171241D01*
X209433Y171344D01*
X209388Y171448D01*
X209348Y171554D01*
X209311Y171661D01*
X209278Y171769D01*
X209248Y171879D01*
X209223Y171989D01*
X209201Y172100D01*
X209184Y172212D01*
X209170Y172325D01*
X209160Y172438D01*
X209154Y172551D01*
X209152Y172664D01*
X214345Y172014D02*
X216942Y169418D01*
X220296Y178506D02*
X223542Y181102D01*
X223542Y169418D01*
X220296Y169418D02*
X226788Y169418D01*
X155165Y14732D02*
X155165Y3048D01*
X155165Y14732D02*
X158410Y14732D01*
X158523Y14730D01*
X158636Y14724D01*
X158749Y14714D01*
X158862Y14700D01*
X158974Y14683D01*
X159085Y14661D01*
X159195Y14636D01*
X159305Y14606D01*
X159413Y14573D01*
X159520Y14536D01*
X159626Y14496D01*
X159730Y14451D01*
X159833Y14403D01*
X159934Y14352D01*
X160033Y14297D01*
X160130Y14239D01*
X160225Y14177D01*
X160318Y14112D01*
X160408Y14044D01*
X160496Y13973D01*
X160582Y13898D01*
X160665Y13821D01*
X160745Y13741D01*
X160822Y13658D01*
X160897Y13572D01*
X160968Y13484D01*
X161036Y13394D01*
X161101Y13301D01*
X161163Y13206D01*
X161221Y13109D01*
X161276Y13010D01*
X161327Y12909D01*
X161375Y12806D01*
X161420Y12702D01*
X161460Y12596D01*
X161497Y12489D01*
X161530Y12381D01*
X161560Y12271D01*
X161585Y12161D01*
X161607Y12050D01*
X161624Y11938D01*
X161638Y11825D01*
X161648Y11712D01*
X161654Y11599D01*
X161656Y11486D01*
X161654Y11373D01*
X161648Y11260D01*
X161638Y11147D01*
X161624Y11034D01*
X161607Y10922D01*
X161585Y10811D01*
X161560Y10701D01*
X161530Y10591D01*
X161497Y10483D01*
X161460Y10376D01*
X161420Y10270D01*
X161375Y10166D01*
X161327Y10063D01*
X161276Y9962D01*
X161221Y9863D01*
X161163Y9766D01*
X161101Y9671D01*
X161036Y9578D01*
X160968Y9488D01*
X160897Y9400D01*
X160822Y9314D01*
X160745Y9231D01*
X160665Y9151D01*
X160582Y9074D01*
X160496Y8999D01*
X160408Y8928D01*
X160318Y8860D01*
X160225Y8795D01*
X160130Y8733D01*
X160033Y8675D01*
X159934Y8620D01*
X159833Y8569D01*
X159730Y8521D01*
X159626Y8476D01*
X159520Y8436D01*
X159413Y8399D01*
X159305Y8366D01*
X159195Y8336D01*
X159085Y8311D01*
X158974Y8289D01*
X158862Y8272D01*
X158749Y8258D01*
X158636Y8248D01*
X158523Y8242D01*
X158410Y8240D01*
X158410Y8241D02*
X155165Y8241D01*
X159059Y8241D02*
X161656Y3048D01*
X166521Y12136D02*
X169766Y14732D01*
X169766Y3048D01*
X166521Y3048D02*
X173012Y3048D01*
X184442Y11811D02*
X184440Y11918D01*
X184434Y12024D01*
X184424Y12130D01*
X184411Y12236D01*
X184393Y12342D01*
X184372Y12446D01*
X184347Y12550D01*
X184318Y12653D01*
X184286Y12754D01*
X184249Y12854D01*
X184209Y12953D01*
X184166Y13051D01*
X184119Y13147D01*
X184068Y13241D01*
X184014Y13333D01*
X183957Y13423D01*
X183897Y13511D01*
X183833Y13596D01*
X183766Y13679D01*
X183696Y13760D01*
X183624Y13838D01*
X183548Y13914D01*
X183470Y13986D01*
X183389Y14056D01*
X183306Y14123D01*
X183221Y14187D01*
X183133Y14247D01*
X183043Y14304D01*
X182951Y14358D01*
X182857Y14409D01*
X182761Y14456D01*
X182663Y14499D01*
X182564Y14539D01*
X182464Y14576D01*
X182363Y14608D01*
X182260Y14637D01*
X182156Y14662D01*
X182052Y14683D01*
X181946Y14701D01*
X181840Y14714D01*
X181734Y14724D01*
X181628Y14730D01*
X181521Y14732D01*
X181400Y14730D01*
X181279Y14724D01*
X181159Y14714D01*
X181038Y14701D01*
X180919Y14683D01*
X180799Y14662D01*
X180681Y14637D01*
X180564Y14608D01*
X180447Y14575D01*
X180332Y14539D01*
X180218Y14498D01*
X180105Y14455D01*
X179993Y14407D01*
X179884Y14356D01*
X179776Y14301D01*
X179669Y14243D01*
X179565Y14182D01*
X179463Y14117D01*
X179363Y14049D01*
X179265Y13978D01*
X179169Y13904D01*
X179076Y13827D01*
X178986Y13746D01*
X178898Y13663D01*
X178813Y13577D01*
X178730Y13488D01*
X178651Y13397D01*
X178574Y13303D01*
X178501Y13207D01*
X178431Y13109D01*
X178364Y13008D01*
X178300Y12905D01*
X178240Y12800D01*
X178183Y12693D01*
X178129Y12585D01*
X178079Y12475D01*
X178033Y12363D01*
X177990Y12250D01*
X177951Y12135D01*
X183469Y9539D02*
X183548Y9616D01*
X183624Y9697D01*
X183697Y9780D01*
X183767Y9865D01*
X183834Y9953D01*
X183898Y10043D01*
X183958Y10135D01*
X184015Y10230D01*
X184069Y10326D01*
X184120Y10424D01*
X184167Y10524D01*
X184211Y10626D01*
X184251Y10729D01*
X184287Y10833D01*
X184319Y10939D01*
X184348Y11045D01*
X184373Y11153D01*
X184395Y11261D01*
X184412Y11371D01*
X184426Y11480D01*
X184435Y11590D01*
X184441Y11701D01*
X184443Y11811D01*
X183468Y9539D02*
X177951Y3048D01*
X184442Y3048D01*
X118148Y3048D02*
X118148Y14732D01*
X121394Y14732D01*
X121507Y14730D01*
X121620Y14724D01*
X121733Y14714D01*
X121846Y14700D01*
X121958Y14683D01*
X122069Y14661D01*
X122179Y14636D01*
X122289Y14606D01*
X122397Y14573D01*
X122504Y14536D01*
X122610Y14496D01*
X122714Y14451D01*
X122817Y14403D01*
X122918Y14352D01*
X123017Y14297D01*
X123114Y14239D01*
X123209Y14177D01*
X123302Y14112D01*
X123392Y14044D01*
X123480Y13973D01*
X123566Y13898D01*
X123649Y13821D01*
X123729Y13741D01*
X123806Y13658D01*
X123881Y13572D01*
X123952Y13484D01*
X124020Y13394D01*
X124085Y13301D01*
X124147Y13206D01*
X124205Y13109D01*
X124260Y13010D01*
X124311Y12909D01*
X124359Y12806D01*
X124404Y12702D01*
X124444Y12596D01*
X124481Y12489D01*
X124514Y12381D01*
X124544Y12271D01*
X124569Y12161D01*
X124591Y12050D01*
X124608Y11938D01*
X124622Y11825D01*
X124632Y11712D01*
X124638Y11599D01*
X124640Y11486D01*
X124638Y11373D01*
X124632Y11260D01*
X124622Y11147D01*
X124608Y11034D01*
X124591Y10922D01*
X124569Y10811D01*
X124544Y10701D01*
X124514Y10591D01*
X124481Y10483D01*
X124444Y10376D01*
X124404Y10270D01*
X124359Y10166D01*
X124311Y10063D01*
X124260Y9962D01*
X124205Y9863D01*
X124147Y9766D01*
X124085Y9671D01*
X124020Y9578D01*
X123952Y9488D01*
X123881Y9400D01*
X123806Y9314D01*
X123729Y9231D01*
X123649Y9151D01*
X123566Y9074D01*
X123480Y8999D01*
X123392Y8928D01*
X123302Y8860D01*
X123209Y8795D01*
X123114Y8733D01*
X123017Y8675D01*
X122918Y8620D01*
X122817Y8569D01*
X122714Y8521D01*
X122610Y8476D01*
X122504Y8436D01*
X122397Y8399D01*
X122289Y8366D01*
X122179Y8336D01*
X122069Y8311D01*
X121958Y8289D01*
X121846Y8272D01*
X121733Y8258D01*
X121620Y8248D01*
X121507Y8242D01*
X121394Y8240D01*
X121394Y8241D02*
X118148Y8241D01*
X122043Y8241D02*
X124639Y3048D01*
X129504Y12136D02*
X132750Y14732D01*
X132750Y3048D01*
X135995Y3048D02*
X129504Y3048D01*
X140934Y9539D02*
X144829Y9539D01*
X144928Y9537D01*
X145028Y9531D01*
X145127Y9522D01*
X145225Y9509D01*
X145323Y9492D01*
X145421Y9471D01*
X145517Y9446D01*
X145612Y9418D01*
X145706Y9386D01*
X145799Y9351D01*
X145891Y9312D01*
X145981Y9269D01*
X146069Y9224D01*
X146156Y9174D01*
X146240Y9122D01*
X146323Y9066D01*
X146403Y9008D01*
X146481Y8946D01*
X146556Y8881D01*
X146629Y8813D01*
X146699Y8743D01*
X146767Y8670D01*
X146832Y8595D01*
X146894Y8517D01*
X146952Y8437D01*
X147008Y8354D01*
X147060Y8270D01*
X147110Y8183D01*
X147155Y8095D01*
X147198Y8005D01*
X147237Y7913D01*
X147272Y7820D01*
X147304Y7726D01*
X147332Y7631D01*
X147357Y7535D01*
X147378Y7437D01*
X147395Y7339D01*
X147408Y7241D01*
X147417Y7142D01*
X147423Y7042D01*
X147425Y6943D01*
X147425Y6294D01*
X147426Y6294D02*
X147424Y6181D01*
X147418Y6068D01*
X147408Y5955D01*
X147394Y5842D01*
X147377Y5730D01*
X147355Y5619D01*
X147330Y5509D01*
X147300Y5399D01*
X147267Y5291D01*
X147230Y5184D01*
X147190Y5078D01*
X147145Y4974D01*
X147097Y4871D01*
X147046Y4770D01*
X146991Y4671D01*
X146933Y4574D01*
X146871Y4479D01*
X146806Y4386D01*
X146738Y4296D01*
X146667Y4208D01*
X146592Y4122D01*
X146515Y4039D01*
X146435Y3959D01*
X146352Y3882D01*
X146266Y3807D01*
X146178Y3736D01*
X146088Y3668D01*
X145995Y3603D01*
X145900Y3541D01*
X145803Y3483D01*
X145704Y3428D01*
X145603Y3377D01*
X145500Y3329D01*
X145396Y3284D01*
X145290Y3244D01*
X145183Y3207D01*
X145075Y3174D01*
X144965Y3144D01*
X144855Y3119D01*
X144744Y3097D01*
X144632Y3080D01*
X144519Y3066D01*
X144406Y3056D01*
X144293Y3050D01*
X144180Y3048D01*
X144067Y3050D01*
X143954Y3056D01*
X143841Y3066D01*
X143728Y3080D01*
X143616Y3097D01*
X143505Y3119D01*
X143395Y3144D01*
X143285Y3174D01*
X143177Y3207D01*
X143070Y3244D01*
X142964Y3284D01*
X142860Y3329D01*
X142757Y3377D01*
X142656Y3428D01*
X142557Y3483D01*
X142460Y3541D01*
X142365Y3603D01*
X142272Y3668D01*
X142182Y3736D01*
X142094Y3807D01*
X142008Y3882D01*
X141925Y3959D01*
X141845Y4039D01*
X141768Y4122D01*
X141693Y4208D01*
X141622Y4296D01*
X141554Y4386D01*
X141489Y4479D01*
X141427Y4574D01*
X141369Y4671D01*
X141314Y4770D01*
X141263Y4871D01*
X141215Y4974D01*
X141170Y5078D01*
X141130Y5184D01*
X141093Y5291D01*
X141060Y5399D01*
X141030Y5509D01*
X141005Y5619D01*
X140983Y5730D01*
X140966Y5842D01*
X140952Y5955D01*
X140942Y6068D01*
X140936Y6181D01*
X140934Y6294D01*
X140934Y9539D01*
X140936Y9682D01*
X140942Y9825D01*
X140952Y9968D01*
X140966Y10110D01*
X140983Y10252D01*
X141005Y10394D01*
X141030Y10535D01*
X141060Y10675D01*
X141093Y10814D01*
X141130Y10952D01*
X141171Y11089D01*
X141215Y11225D01*
X141264Y11360D01*
X141316Y11493D01*
X141371Y11625D01*
X141431Y11755D01*
X141494Y11884D01*
X141560Y12011D01*
X141630Y12135D01*
X141703Y12258D01*
X141780Y12379D01*
X141860Y12498D01*
X141943Y12614D01*
X142029Y12729D01*
X142118Y12840D01*
X142211Y12950D01*
X142306Y13056D01*
X142405Y13160D01*
X142506Y13261D01*
X142610Y13360D01*
X142716Y13455D01*
X142826Y13548D01*
X142937Y13637D01*
X143052Y13723D01*
X143168Y13806D01*
X143287Y13886D01*
X143408Y13963D01*
X143530Y14036D01*
X143655Y14106D01*
X143782Y14172D01*
X143911Y14235D01*
X144041Y14295D01*
X144173Y14350D01*
X144306Y14402D01*
X144441Y14451D01*
X144577Y14495D01*
X144714Y14536D01*
X144852Y14573D01*
X144991Y14606D01*
X145131Y14636D01*
X145272Y14661D01*
X145414Y14683D01*
X145556Y14700D01*
X145698Y14714D01*
X145841Y14724D01*
X145984Y14730D01*
X146127Y14732D01*
X214855Y108458D02*
X214855Y120142D01*
X218100Y120142D01*
X218213Y120140D01*
X218326Y120134D01*
X218439Y120124D01*
X218552Y120110D01*
X218664Y120093D01*
X218775Y120071D01*
X218885Y120046D01*
X218995Y120016D01*
X219103Y119983D01*
X219210Y119946D01*
X219316Y119906D01*
X219420Y119861D01*
X219523Y119813D01*
X219624Y119762D01*
X219723Y119707D01*
X219820Y119649D01*
X219915Y119587D01*
X220008Y119522D01*
X220098Y119454D01*
X220186Y119383D01*
X220272Y119308D01*
X220355Y119231D01*
X220435Y119151D01*
X220512Y119068D01*
X220587Y118982D01*
X220658Y118894D01*
X220726Y118804D01*
X220791Y118711D01*
X220853Y118616D01*
X220911Y118519D01*
X220966Y118420D01*
X221017Y118319D01*
X221065Y118216D01*
X221110Y118112D01*
X221150Y118006D01*
X221187Y117899D01*
X221220Y117791D01*
X221250Y117681D01*
X221275Y117571D01*
X221297Y117460D01*
X221314Y117348D01*
X221328Y117235D01*
X221338Y117122D01*
X221344Y117009D01*
X221346Y116896D01*
X221344Y116783D01*
X221338Y116670D01*
X221328Y116557D01*
X221314Y116444D01*
X221297Y116332D01*
X221275Y116221D01*
X221250Y116111D01*
X221220Y116001D01*
X221187Y115893D01*
X221150Y115786D01*
X221110Y115680D01*
X221065Y115576D01*
X221017Y115473D01*
X220966Y115372D01*
X220911Y115273D01*
X220853Y115176D01*
X220791Y115081D01*
X220726Y114988D01*
X220658Y114898D01*
X220587Y114810D01*
X220512Y114724D01*
X220435Y114641D01*
X220355Y114561D01*
X220272Y114484D01*
X220186Y114409D01*
X220098Y114338D01*
X220008Y114270D01*
X219915Y114205D01*
X219820Y114143D01*
X219723Y114085D01*
X219624Y114030D01*
X219523Y113979D01*
X219420Y113931D01*
X219316Y113886D01*
X219210Y113846D01*
X219103Y113809D01*
X218995Y113776D01*
X218885Y113746D01*
X218775Y113721D01*
X218664Y113699D01*
X218552Y113682D01*
X218439Y113668D01*
X218326Y113658D01*
X218213Y113652D01*
X218100Y113650D01*
X218100Y113651D02*
X214855Y113651D01*
X218749Y113651D02*
X221346Y108458D01*
X228807Y113651D02*
X232702Y113651D01*
X228807Y113651D02*
X228708Y113653D01*
X228608Y113659D01*
X228509Y113668D01*
X228411Y113681D01*
X228313Y113698D01*
X228215Y113719D01*
X228119Y113744D01*
X228024Y113772D01*
X227930Y113804D01*
X227837Y113839D01*
X227745Y113878D01*
X227655Y113921D01*
X227567Y113966D01*
X227480Y114016D01*
X227396Y114068D01*
X227313Y114124D01*
X227233Y114182D01*
X227155Y114244D01*
X227080Y114309D01*
X227007Y114377D01*
X226937Y114447D01*
X226869Y114520D01*
X226804Y114595D01*
X226742Y114673D01*
X226684Y114753D01*
X226628Y114836D01*
X226576Y114920D01*
X226526Y115007D01*
X226481Y115095D01*
X226438Y115185D01*
X226399Y115277D01*
X226364Y115370D01*
X226332Y115464D01*
X226304Y115559D01*
X226279Y115655D01*
X226258Y115753D01*
X226241Y115851D01*
X226228Y115949D01*
X226219Y116048D01*
X226213Y116148D01*
X226211Y116247D01*
X226211Y116896D01*
X226210Y116896D02*
X226212Y117009D01*
X226218Y117122D01*
X226228Y117235D01*
X226242Y117348D01*
X226259Y117460D01*
X226281Y117571D01*
X226306Y117681D01*
X226336Y117791D01*
X226369Y117899D01*
X226406Y118006D01*
X226446Y118112D01*
X226491Y118216D01*
X226539Y118319D01*
X226590Y118420D01*
X226645Y118519D01*
X226703Y118616D01*
X226765Y118711D01*
X226830Y118804D01*
X226898Y118894D01*
X226969Y118982D01*
X227044Y119068D01*
X227121Y119151D01*
X227201Y119231D01*
X227284Y119308D01*
X227370Y119383D01*
X227458Y119454D01*
X227548Y119522D01*
X227641Y119587D01*
X227736Y119649D01*
X227833Y119707D01*
X227932Y119762D01*
X228033Y119813D01*
X228136Y119861D01*
X228240Y119906D01*
X228346Y119946D01*
X228453Y119983D01*
X228561Y120016D01*
X228671Y120046D01*
X228781Y120071D01*
X228892Y120093D01*
X229004Y120110D01*
X229117Y120124D01*
X229230Y120134D01*
X229343Y120140D01*
X229456Y120142D01*
X229569Y120140D01*
X229682Y120134D01*
X229795Y120124D01*
X229908Y120110D01*
X230020Y120093D01*
X230131Y120071D01*
X230241Y120046D01*
X230351Y120016D01*
X230459Y119983D01*
X230566Y119946D01*
X230672Y119906D01*
X230776Y119861D01*
X230879Y119813D01*
X230980Y119762D01*
X231079Y119707D01*
X231176Y119649D01*
X231271Y119587D01*
X231364Y119522D01*
X231454Y119454D01*
X231542Y119383D01*
X231628Y119308D01*
X231711Y119231D01*
X231791Y119151D01*
X231868Y119068D01*
X231943Y118982D01*
X232014Y118894D01*
X232082Y118804D01*
X232147Y118711D01*
X232209Y118616D01*
X232267Y118519D01*
X232322Y118420D01*
X232373Y118319D01*
X232421Y118216D01*
X232466Y118112D01*
X232506Y118006D01*
X232543Y117899D01*
X232576Y117791D01*
X232606Y117681D01*
X232631Y117571D01*
X232653Y117460D01*
X232670Y117348D01*
X232684Y117235D01*
X232694Y117122D01*
X232700Y117009D01*
X232702Y116896D01*
X232702Y113651D01*
X232700Y113508D01*
X232694Y113365D01*
X232684Y113222D01*
X232670Y113080D01*
X232653Y112938D01*
X232631Y112796D01*
X232606Y112655D01*
X232576Y112515D01*
X232543Y112376D01*
X232506Y112238D01*
X232465Y112101D01*
X232421Y111965D01*
X232372Y111830D01*
X232320Y111697D01*
X232265Y111565D01*
X232205Y111435D01*
X232142Y111306D01*
X232076Y111179D01*
X232006Y111054D01*
X231933Y110932D01*
X231856Y110811D01*
X231776Y110692D01*
X231693Y110576D01*
X231607Y110461D01*
X231518Y110350D01*
X231425Y110240D01*
X231330Y110134D01*
X231231Y110030D01*
X231130Y109929D01*
X231026Y109830D01*
X230920Y109735D01*
X230810Y109642D01*
X230699Y109553D01*
X230584Y109467D01*
X230468Y109384D01*
X230349Y109304D01*
X230228Y109227D01*
X230105Y109154D01*
X229981Y109084D01*
X229854Y109018D01*
X229725Y108955D01*
X229595Y108895D01*
X229463Y108840D01*
X229330Y108788D01*
X229195Y108739D01*
X229059Y108695D01*
X228922Y108654D01*
X228784Y108617D01*
X228645Y108584D01*
X228505Y108554D01*
X228364Y108529D01*
X228222Y108507D01*
X228080Y108490D01*
X227938Y108476D01*
X227795Y108466D01*
X227652Y108460D01*
X227509Y108458D01*
X432248Y88397D02*
X432248Y80608D01*
X433546Y93830D02*
X425108Y93830D01*
X433546Y93830D02*
X433659Y93832D01*
X433772Y93838D01*
X433885Y93848D01*
X433998Y93862D01*
X434110Y93879D01*
X434221Y93901D01*
X434331Y93926D01*
X434441Y93956D01*
X434549Y93989D01*
X434656Y94026D01*
X434762Y94066D01*
X434866Y94111D01*
X434969Y94159D01*
X435070Y94210D01*
X435169Y94265D01*
X435266Y94323D01*
X435361Y94385D01*
X435454Y94450D01*
X435544Y94518D01*
X435632Y94589D01*
X435718Y94664D01*
X435801Y94741D01*
X435881Y94821D01*
X435958Y94904D01*
X436033Y94990D01*
X436104Y95078D01*
X436172Y95168D01*
X436237Y95261D01*
X436299Y95356D01*
X436357Y95453D01*
X436412Y95552D01*
X436463Y95653D01*
X436511Y95756D01*
X436556Y95860D01*
X436596Y95966D01*
X436633Y96073D01*
X436666Y96181D01*
X436696Y96291D01*
X436721Y96401D01*
X436743Y96512D01*
X436760Y96624D01*
X436774Y96737D01*
X436784Y96850D01*
X436790Y96963D01*
X436792Y97076D01*
X436790Y97189D01*
X436784Y97302D01*
X436774Y97415D01*
X436760Y97528D01*
X436743Y97640D01*
X436721Y97751D01*
X436696Y97861D01*
X436666Y97971D01*
X436633Y98079D01*
X436596Y98186D01*
X436556Y98292D01*
X436511Y98396D01*
X436463Y98499D01*
X436412Y98600D01*
X436357Y98699D01*
X436299Y98796D01*
X436237Y98891D01*
X436172Y98984D01*
X436104Y99074D01*
X436033Y99162D01*
X435958Y99248D01*
X435881Y99331D01*
X435801Y99411D01*
X435718Y99488D01*
X435632Y99563D01*
X435544Y99634D01*
X435454Y99702D01*
X435361Y99767D01*
X435266Y99829D01*
X435169Y99887D01*
X435070Y99942D01*
X434969Y99993D01*
X434866Y100041D01*
X434762Y100086D01*
X434656Y100126D01*
X434549Y100163D01*
X434441Y100196D01*
X434331Y100226D01*
X434221Y100251D01*
X434110Y100273D01*
X433998Y100290D01*
X433885Y100304D01*
X433772Y100314D01*
X433659Y100320D01*
X433546Y100322D01*
X433546Y100321D02*
X425108Y100321D01*
X434196Y111751D02*
X434295Y111749D01*
X434395Y111743D01*
X434494Y111734D01*
X434592Y111721D01*
X434690Y111704D01*
X434788Y111683D01*
X434884Y111658D01*
X434979Y111630D01*
X435073Y111598D01*
X435166Y111563D01*
X435258Y111524D01*
X435348Y111481D01*
X435436Y111436D01*
X435523Y111386D01*
X435607Y111334D01*
X435690Y111278D01*
X435770Y111220D01*
X435848Y111158D01*
X435923Y111093D01*
X435996Y111025D01*
X436066Y110955D01*
X436134Y110882D01*
X436199Y110807D01*
X436261Y110729D01*
X436319Y110649D01*
X436375Y110566D01*
X436427Y110482D01*
X436477Y110395D01*
X436522Y110307D01*
X436565Y110217D01*
X436604Y110125D01*
X436639Y110032D01*
X436671Y109938D01*
X436699Y109843D01*
X436724Y109747D01*
X436745Y109649D01*
X436762Y109551D01*
X436775Y109453D01*
X436784Y109354D01*
X436790Y109254D01*
X436792Y109155D01*
X436790Y109011D01*
X436784Y108866D01*
X436775Y108722D01*
X436762Y108579D01*
X436745Y108435D01*
X436724Y108292D01*
X436699Y108150D01*
X436671Y108009D01*
X436639Y107868D01*
X436603Y107728D01*
X436564Y107589D01*
X436521Y107451D01*
X436474Y107315D01*
X436424Y107179D01*
X436370Y107045D01*
X436313Y106913D01*
X436252Y106782D01*
X436188Y106653D01*
X436120Y106525D01*
X436050Y106399D01*
X435975Y106275D01*
X435898Y106154D01*
X435817Y106034D01*
X435734Y105916D01*
X435647Y105801D01*
X435557Y105688D01*
X435464Y105577D01*
X435369Y105469D01*
X435270Y105363D01*
X435169Y105260D01*
X427704Y105585D02*
X427605Y105587D01*
X427505Y105593D01*
X427406Y105602D01*
X427308Y105615D01*
X427210Y105632D01*
X427112Y105653D01*
X427016Y105678D01*
X426921Y105706D01*
X426827Y105738D01*
X426734Y105773D01*
X426642Y105812D01*
X426552Y105855D01*
X426464Y105900D01*
X426377Y105950D01*
X426293Y106002D01*
X426210Y106058D01*
X426130Y106116D01*
X426052Y106178D01*
X425977Y106243D01*
X425904Y106311D01*
X425834Y106381D01*
X425766Y106454D01*
X425701Y106529D01*
X425639Y106607D01*
X425581Y106687D01*
X425525Y106770D01*
X425473Y106854D01*
X425423Y106941D01*
X425378Y107029D01*
X425335Y107119D01*
X425296Y107211D01*
X425261Y107304D01*
X425229Y107398D01*
X425201Y107493D01*
X425176Y107589D01*
X425155Y107687D01*
X425138Y107785D01*
X425125Y107883D01*
X425116Y107982D01*
X425110Y108082D01*
X425108Y108181D01*
X425110Y108317D01*
X425116Y108453D01*
X425125Y108589D01*
X425138Y108725D01*
X425156Y108860D01*
X425176Y108994D01*
X425201Y109128D01*
X425229Y109262D01*
X425262Y109394D01*
X425297Y109525D01*
X425337Y109656D01*
X425380Y109785D01*
X425426Y109913D01*
X425477Y110039D01*
X425530Y110165D01*
X425588Y110288D01*
X425648Y110410D01*
X425712Y110530D01*
X425780Y110649D01*
X425850Y110765D01*
X425924Y110879D01*
X426001Y110992D01*
X426082Y111102D01*
X429976Y106883D02*
X429923Y106797D01*
X429866Y106713D01*
X429807Y106631D01*
X429744Y106551D01*
X429678Y106474D01*
X429610Y106399D01*
X429538Y106327D01*
X429464Y106258D01*
X429387Y106192D01*
X429308Y106129D01*
X429226Y106069D01*
X429142Y106012D01*
X429056Y105958D01*
X428968Y105908D01*
X428878Y105861D01*
X428787Y105817D01*
X428693Y105778D01*
X428599Y105741D01*
X428503Y105709D01*
X428405Y105680D01*
X428307Y105655D01*
X428208Y105634D01*
X428108Y105616D01*
X428008Y105603D01*
X427907Y105593D01*
X427805Y105587D01*
X427704Y105585D01*
X431924Y110453D02*
X431977Y110539D01*
X432034Y110623D01*
X432093Y110705D01*
X432156Y110785D01*
X432222Y110862D01*
X432290Y110937D01*
X432362Y111009D01*
X432436Y111078D01*
X432513Y111144D01*
X432592Y111207D01*
X432674Y111267D01*
X432758Y111324D01*
X432844Y111378D01*
X432932Y111428D01*
X433022Y111475D01*
X433113Y111519D01*
X433207Y111558D01*
X433301Y111595D01*
X433397Y111627D01*
X433495Y111656D01*
X433593Y111681D01*
X433692Y111702D01*
X433792Y111720D01*
X433892Y111733D01*
X433993Y111743D01*
X434095Y111749D01*
X434196Y111751D01*
X431924Y110453D02*
X429976Y106883D01*
X430301Y116859D02*
X430301Y120105D01*
X430300Y120105D02*
X430302Y120218D01*
X430308Y120331D01*
X430318Y120444D01*
X430332Y120557D01*
X430349Y120669D01*
X430371Y120780D01*
X430396Y120890D01*
X430426Y121000D01*
X430459Y121108D01*
X430496Y121215D01*
X430536Y121321D01*
X430581Y121425D01*
X430629Y121528D01*
X430680Y121629D01*
X430735Y121728D01*
X430793Y121825D01*
X430855Y121920D01*
X430920Y122013D01*
X430988Y122103D01*
X431059Y122191D01*
X431134Y122277D01*
X431211Y122360D01*
X431291Y122440D01*
X431374Y122517D01*
X431460Y122592D01*
X431548Y122663D01*
X431638Y122731D01*
X431731Y122796D01*
X431826Y122858D01*
X431923Y122916D01*
X432022Y122971D01*
X432123Y123022D01*
X432226Y123070D01*
X432330Y123115D01*
X432436Y123155D01*
X432543Y123192D01*
X432651Y123225D01*
X432761Y123255D01*
X432871Y123280D01*
X432982Y123302D01*
X433094Y123319D01*
X433207Y123333D01*
X433320Y123343D01*
X433433Y123349D01*
X433546Y123351D01*
X433659Y123349D01*
X433772Y123343D01*
X433885Y123333D01*
X433998Y123319D01*
X434110Y123302D01*
X434221Y123280D01*
X434331Y123255D01*
X434441Y123225D01*
X434549Y123192D01*
X434656Y123155D01*
X434762Y123115D01*
X434866Y123070D01*
X434969Y123022D01*
X435070Y122971D01*
X435169Y122916D01*
X435266Y122858D01*
X435361Y122796D01*
X435454Y122731D01*
X435544Y122663D01*
X435632Y122592D01*
X435718Y122517D01*
X435801Y122440D01*
X435881Y122360D01*
X435958Y122277D01*
X436033Y122191D01*
X436104Y122103D01*
X436172Y122013D01*
X436237Y121920D01*
X436299Y121825D01*
X436357Y121728D01*
X436412Y121629D01*
X436463Y121528D01*
X436511Y121425D01*
X436556Y121321D01*
X436596Y121215D01*
X436633Y121108D01*
X436666Y121000D01*
X436696Y120890D01*
X436721Y120780D01*
X436743Y120669D01*
X436760Y120557D01*
X436774Y120444D01*
X436784Y120331D01*
X436790Y120218D01*
X436792Y120105D01*
X436792Y116859D01*
X425108Y116859D01*
X425108Y120105D01*
X425110Y120206D01*
X425116Y120306D01*
X425126Y120406D01*
X425139Y120506D01*
X425157Y120605D01*
X425178Y120704D01*
X425203Y120801D01*
X425232Y120898D01*
X425265Y120993D01*
X425301Y121087D01*
X425341Y121179D01*
X425384Y121270D01*
X425431Y121359D01*
X425481Y121446D01*
X425535Y121532D01*
X425592Y121615D01*
X425652Y121695D01*
X425715Y121774D01*
X425782Y121850D01*
X425851Y121923D01*
X425923Y121993D01*
X425997Y122061D01*
X426074Y122126D01*
X426154Y122187D01*
X426236Y122246D01*
X426320Y122301D01*
X426406Y122353D01*
X426494Y122402D01*
X426584Y122447D01*
X426676Y122489D01*
X426769Y122527D01*
X426864Y122561D01*
X426959Y122592D01*
X427056Y122619D01*
X427154Y122642D01*
X427253Y122662D01*
X427353Y122677D01*
X427453Y122689D01*
X427553Y122697D01*
X427654Y122701D01*
X427754Y122701D01*
X427855Y122697D01*
X427955Y122689D01*
X428055Y122677D01*
X428155Y122662D01*
X428254Y122642D01*
X428352Y122619D01*
X428449Y122592D01*
X428544Y122561D01*
X428639Y122527D01*
X428732Y122489D01*
X428824Y122447D01*
X428914Y122402D01*
X429002Y122353D01*
X429088Y122301D01*
X429172Y122246D01*
X429254Y122187D01*
X429334Y122126D01*
X429411Y122061D01*
X429485Y121993D01*
X429557Y121923D01*
X429626Y121850D01*
X429693Y121774D01*
X429756Y121695D01*
X429816Y121615D01*
X429873Y121532D01*
X429927Y121446D01*
X429977Y121359D01*
X430024Y121270D01*
X430067Y121179D01*
X430107Y121087D01*
X430143Y120993D01*
X430176Y120898D01*
X430205Y120801D01*
X430230Y120704D01*
X430251Y120605D01*
X430269Y120506D01*
X430282Y120406D01*
X430292Y120306D01*
X430298Y120206D01*
X430300Y120105D01*
X432248Y127852D02*
X432248Y135641D01*
M02*
