G04 EAGLE Gerber RS-274X export*
G75*
%MOMM*%
%FSLAX34Y34*%
%LPD*%
%INSoldermask Bottom*%
%IPPOS*%
%AMOC8*
5,1,8,0,0,1.08239X$1,22.5*%
G01*
%ADD10C,0.152400*%
%ADD11C,0.304800*%
%ADD12C,0.203200*%
%ADD13R,1.203200X1.303200*%
%ADD14R,1.283200X1.253200*%
%ADD15R,1.303200X1.203200*%
%ADD16P,1.649562X8X112.500000*%
%ADD17R,2.403200X0.803200*%
%ADD18C,1.711200*%


D10*
X218098Y26162D02*
X218098Y34798D01*
X214260Y34798D01*
X214260Y30960D02*
X218098Y30960D01*
X210173Y26162D02*
X206335Y26162D01*
X210173Y26162D02*
X210173Y34798D01*
X206335Y34798D01*
X207295Y30960D02*
X210173Y30960D01*
X202080Y34798D02*
X202080Y26162D01*
X202080Y29520D02*
X197282Y34798D01*
X200161Y31440D02*
X197282Y26162D01*
X191646Y26162D02*
X191646Y34798D01*
X194045Y34798D02*
X189247Y34798D01*
X180329Y34798D02*
X180329Y28561D01*
X180327Y28464D01*
X180321Y28368D01*
X180312Y28272D01*
X180298Y28176D01*
X180281Y28081D01*
X180259Y27987D01*
X180234Y27894D01*
X180206Y27801D01*
X180173Y27710D01*
X180137Y27621D01*
X180097Y27533D01*
X180054Y27446D01*
X180008Y27361D01*
X179958Y27279D01*
X179904Y27198D01*
X179848Y27120D01*
X179788Y27044D01*
X179726Y26970D01*
X179660Y26899D01*
X179592Y26831D01*
X179521Y26765D01*
X179447Y26703D01*
X179371Y26643D01*
X179293Y26587D01*
X179212Y26533D01*
X179129Y26483D01*
X179045Y26437D01*
X178958Y26394D01*
X178870Y26354D01*
X178781Y26318D01*
X178690Y26285D01*
X178597Y26257D01*
X178504Y26232D01*
X178410Y26210D01*
X178315Y26193D01*
X178219Y26179D01*
X178123Y26170D01*
X178027Y26164D01*
X177930Y26162D01*
X177833Y26164D01*
X177737Y26170D01*
X177641Y26179D01*
X177545Y26193D01*
X177450Y26210D01*
X177356Y26232D01*
X177263Y26257D01*
X177170Y26285D01*
X177079Y26318D01*
X176990Y26354D01*
X176902Y26394D01*
X176815Y26437D01*
X176731Y26483D01*
X176648Y26533D01*
X176567Y26587D01*
X176489Y26643D01*
X176413Y26703D01*
X176339Y26765D01*
X176268Y26831D01*
X176200Y26899D01*
X176134Y26970D01*
X176072Y27044D01*
X176012Y27120D01*
X175956Y27198D01*
X175902Y27279D01*
X175852Y27362D01*
X175806Y27446D01*
X175763Y27533D01*
X175723Y27621D01*
X175687Y27710D01*
X175654Y27801D01*
X175626Y27894D01*
X175601Y27987D01*
X175579Y28081D01*
X175562Y28176D01*
X175548Y28272D01*
X175539Y28368D01*
X175533Y28464D01*
X175531Y28561D01*
X175531Y34798D01*
X170549Y34798D02*
X170549Y26162D01*
X170549Y34798D02*
X166711Y34798D01*
X166711Y30960D02*
X170549Y30960D01*
X163435Y34798D02*
X160557Y30720D01*
X157678Y34798D01*
X160557Y30720D02*
X160557Y26162D01*
X154116Y34798D02*
X149319Y34798D01*
X154116Y26162D01*
X149319Y26162D01*
X215219Y10922D02*
X218098Y19558D01*
X212341Y19558D02*
X215219Y10922D01*
X206993Y14280D02*
X204834Y14280D01*
X206993Y14280D02*
X207074Y14278D01*
X207155Y14272D01*
X207236Y14262D01*
X207316Y14249D01*
X207395Y14231D01*
X207473Y14210D01*
X207550Y14185D01*
X207626Y14156D01*
X207701Y14124D01*
X207773Y14088D01*
X207844Y14048D01*
X207913Y14005D01*
X207980Y13959D01*
X208044Y13910D01*
X208106Y13858D01*
X208166Y13802D01*
X208222Y13744D01*
X208276Y13684D01*
X208327Y13620D01*
X208375Y13555D01*
X208419Y13487D01*
X208460Y13417D01*
X208498Y13345D01*
X208532Y13272D01*
X208563Y13196D01*
X208590Y13120D01*
X208613Y13042D01*
X208632Y12963D01*
X208648Y12884D01*
X208660Y12803D01*
X208668Y12723D01*
X208672Y12642D01*
X208672Y12560D01*
X208668Y12479D01*
X208660Y12399D01*
X208648Y12318D01*
X208632Y12239D01*
X208613Y12160D01*
X208590Y12082D01*
X208563Y12006D01*
X208532Y11930D01*
X208498Y11857D01*
X208460Y11785D01*
X208419Y11715D01*
X208375Y11647D01*
X208327Y11582D01*
X208276Y11518D01*
X208222Y11458D01*
X208166Y11400D01*
X208106Y11344D01*
X208044Y11292D01*
X207980Y11243D01*
X207913Y11197D01*
X207844Y11154D01*
X207773Y11114D01*
X207701Y11078D01*
X207626Y11046D01*
X207550Y11017D01*
X207473Y10992D01*
X207395Y10971D01*
X207316Y10953D01*
X207236Y10940D01*
X207155Y10930D01*
X207074Y10924D01*
X206993Y10922D01*
X204834Y10922D01*
X204834Y15240D01*
X204836Y15313D01*
X204841Y15386D01*
X204851Y15458D01*
X204863Y15530D01*
X204880Y15601D01*
X204900Y15671D01*
X204924Y15740D01*
X204951Y15807D01*
X204981Y15874D01*
X205015Y15938D01*
X205052Y16001D01*
X205092Y16062D01*
X205135Y16121D01*
X205181Y16177D01*
X205230Y16231D01*
X205282Y16283D01*
X205336Y16332D01*
X205392Y16378D01*
X205451Y16421D01*
X205512Y16461D01*
X205575Y16498D01*
X205639Y16532D01*
X205706Y16562D01*
X205773Y16589D01*
X205842Y16613D01*
X205912Y16633D01*
X205983Y16650D01*
X206055Y16662D01*
X206127Y16672D01*
X206200Y16677D01*
X206273Y16679D01*
X208192Y16679D01*
X200070Y16679D02*
X200070Y10922D01*
X200070Y16679D02*
X197671Y16679D01*
X197596Y16677D01*
X197521Y16671D01*
X197446Y16661D01*
X197372Y16648D01*
X197299Y16630D01*
X197226Y16609D01*
X197155Y16583D01*
X197086Y16555D01*
X197018Y16522D01*
X196952Y16486D01*
X196887Y16447D01*
X196825Y16404D01*
X196765Y16358D01*
X196708Y16309D01*
X196653Y16258D01*
X196602Y16203D01*
X196553Y16146D01*
X196507Y16086D01*
X196464Y16024D01*
X196425Y15960D01*
X196389Y15893D01*
X196356Y15825D01*
X196328Y15756D01*
X196302Y15685D01*
X196281Y15612D01*
X196263Y15539D01*
X196250Y15465D01*
X196240Y15390D01*
X196234Y15315D01*
X196232Y15240D01*
X196232Y10922D01*
X191934Y10922D02*
X191934Y16679D01*
X192174Y18838D02*
X191215Y20757D01*
X186614Y10922D02*
X184694Y10922D01*
X186614Y10922D02*
X186689Y10924D01*
X186764Y10930D01*
X186839Y10940D01*
X186913Y10953D01*
X186986Y10971D01*
X187059Y10992D01*
X187130Y11018D01*
X187199Y11046D01*
X187267Y11079D01*
X187334Y11115D01*
X187398Y11154D01*
X187460Y11197D01*
X187520Y11243D01*
X187577Y11292D01*
X187632Y11343D01*
X187683Y11398D01*
X187732Y11455D01*
X187778Y11515D01*
X187821Y11577D01*
X187860Y11642D01*
X187896Y11708D01*
X187929Y11776D01*
X187957Y11845D01*
X187983Y11916D01*
X188004Y11989D01*
X188022Y12062D01*
X188035Y12136D01*
X188045Y12211D01*
X188051Y12286D01*
X188053Y12361D01*
X188053Y15240D01*
X188051Y15315D01*
X188045Y15390D01*
X188035Y15465D01*
X188022Y15539D01*
X188004Y15612D01*
X187983Y15685D01*
X187957Y15756D01*
X187929Y15825D01*
X187896Y15893D01*
X187860Y15960D01*
X187821Y16024D01*
X187778Y16086D01*
X187732Y16146D01*
X187683Y16203D01*
X187632Y16258D01*
X187577Y16309D01*
X187520Y16358D01*
X187460Y16404D01*
X187398Y16447D01*
X187334Y16486D01*
X187267Y16522D01*
X187199Y16555D01*
X187130Y16583D01*
X187059Y16609D01*
X186986Y16630D01*
X186913Y16648D01*
X186839Y16661D01*
X186764Y16671D01*
X186689Y16677D01*
X186614Y16679D01*
X184694Y16679D01*
X186134Y18838D02*
X187573Y20278D01*
X186134Y18838D02*
X184694Y20278D01*
X180038Y10922D02*
X177639Y10922D01*
X180038Y10922D02*
X180113Y10924D01*
X180188Y10930D01*
X180263Y10940D01*
X180337Y10953D01*
X180410Y10971D01*
X180483Y10992D01*
X180554Y11018D01*
X180623Y11046D01*
X180691Y11079D01*
X180758Y11115D01*
X180822Y11154D01*
X180884Y11197D01*
X180944Y11243D01*
X181001Y11292D01*
X181056Y11343D01*
X181107Y11398D01*
X181156Y11455D01*
X181202Y11515D01*
X181245Y11577D01*
X181284Y11642D01*
X181320Y11708D01*
X181353Y11776D01*
X181381Y11845D01*
X181407Y11916D01*
X181428Y11989D01*
X181446Y12062D01*
X181459Y12136D01*
X181469Y12211D01*
X181475Y12286D01*
X181477Y12361D01*
X181477Y14760D01*
X181475Y14846D01*
X181469Y14932D01*
X181460Y15018D01*
X181446Y15103D01*
X181429Y15187D01*
X181408Y15271D01*
X181383Y15353D01*
X181355Y15434D01*
X181323Y15514D01*
X181287Y15593D01*
X181248Y15669D01*
X181205Y15744D01*
X181160Y15817D01*
X181111Y15888D01*
X181058Y15956D01*
X181003Y16023D01*
X180945Y16086D01*
X180884Y16147D01*
X180821Y16205D01*
X180754Y16260D01*
X180686Y16313D01*
X180615Y16362D01*
X180542Y16407D01*
X180467Y16450D01*
X180391Y16489D01*
X180312Y16525D01*
X180232Y16557D01*
X180151Y16585D01*
X180069Y16610D01*
X179985Y16631D01*
X179901Y16648D01*
X179816Y16662D01*
X179730Y16671D01*
X179644Y16677D01*
X179558Y16679D01*
X179472Y16677D01*
X179386Y16671D01*
X179300Y16662D01*
X179215Y16648D01*
X179131Y16631D01*
X179047Y16610D01*
X178965Y16585D01*
X178884Y16557D01*
X178804Y16525D01*
X178725Y16489D01*
X178649Y16450D01*
X178574Y16407D01*
X178501Y16362D01*
X178430Y16313D01*
X178362Y16260D01*
X178295Y16205D01*
X178232Y16147D01*
X178171Y16086D01*
X178113Y16023D01*
X178058Y15956D01*
X178005Y15888D01*
X177956Y15817D01*
X177911Y15744D01*
X177868Y15669D01*
X177829Y15593D01*
X177793Y15514D01*
X177761Y15434D01*
X177733Y15353D01*
X177708Y15271D01*
X177687Y15187D01*
X177670Y15103D01*
X177656Y15018D01*
X177647Y14932D01*
X177641Y14846D01*
X177639Y14760D01*
X177639Y13801D01*
X181477Y13801D01*
X173092Y10922D02*
X173092Y19558D01*
X169254Y16679D02*
X173092Y13801D01*
X171413Y15000D02*
X169254Y10922D01*
X160621Y10922D02*
X158222Y10922D01*
X158125Y10924D01*
X158029Y10930D01*
X157933Y10939D01*
X157837Y10953D01*
X157742Y10970D01*
X157648Y10992D01*
X157555Y11017D01*
X157462Y11045D01*
X157371Y11078D01*
X157282Y11114D01*
X157194Y11154D01*
X157107Y11197D01*
X157022Y11243D01*
X156940Y11293D01*
X156859Y11347D01*
X156781Y11403D01*
X156705Y11463D01*
X156631Y11525D01*
X156560Y11591D01*
X156492Y11659D01*
X156426Y11730D01*
X156364Y11804D01*
X156304Y11880D01*
X156248Y11958D01*
X156194Y12039D01*
X156144Y12122D01*
X156098Y12206D01*
X156055Y12293D01*
X156015Y12381D01*
X155979Y12470D01*
X155946Y12561D01*
X155918Y12654D01*
X155893Y12747D01*
X155871Y12841D01*
X155854Y12936D01*
X155840Y13032D01*
X155831Y13128D01*
X155825Y13224D01*
X155823Y13321D01*
X155825Y13418D01*
X155831Y13514D01*
X155840Y13610D01*
X155854Y13706D01*
X155871Y13801D01*
X155893Y13895D01*
X155918Y13988D01*
X155946Y14081D01*
X155979Y14172D01*
X156015Y14261D01*
X156055Y14349D01*
X156098Y14436D01*
X156144Y14521D01*
X156194Y14603D01*
X156248Y14684D01*
X156304Y14762D01*
X156364Y14838D01*
X156426Y14912D01*
X156492Y14983D01*
X156560Y15051D01*
X156631Y15117D01*
X156705Y15179D01*
X156781Y15239D01*
X156859Y15295D01*
X156940Y15349D01*
X157023Y15399D01*
X157107Y15445D01*
X157194Y15488D01*
X157282Y15528D01*
X157371Y15564D01*
X157462Y15597D01*
X157555Y15625D01*
X157648Y15650D01*
X157742Y15672D01*
X157837Y15689D01*
X157933Y15703D01*
X158029Y15712D01*
X158125Y15718D01*
X158222Y15720D01*
X157742Y19558D02*
X160621Y19558D01*
X157742Y19558D02*
X157656Y19556D01*
X157570Y19550D01*
X157484Y19541D01*
X157399Y19527D01*
X157315Y19510D01*
X157231Y19489D01*
X157149Y19464D01*
X157068Y19436D01*
X156988Y19404D01*
X156909Y19368D01*
X156833Y19329D01*
X156758Y19286D01*
X156685Y19241D01*
X156614Y19192D01*
X156546Y19139D01*
X156479Y19084D01*
X156416Y19026D01*
X156355Y18965D01*
X156297Y18902D01*
X156242Y18835D01*
X156189Y18767D01*
X156140Y18696D01*
X156095Y18623D01*
X156052Y18548D01*
X156013Y18472D01*
X155977Y18393D01*
X155945Y18313D01*
X155917Y18232D01*
X155892Y18150D01*
X155871Y18066D01*
X155854Y17982D01*
X155840Y17897D01*
X155831Y17811D01*
X155825Y17725D01*
X155823Y17639D01*
X155825Y17553D01*
X155831Y17467D01*
X155840Y17381D01*
X155854Y17296D01*
X155871Y17212D01*
X155892Y17128D01*
X155917Y17046D01*
X155945Y16965D01*
X155977Y16885D01*
X156013Y16806D01*
X156052Y16730D01*
X156095Y16655D01*
X156140Y16582D01*
X156189Y16511D01*
X156242Y16443D01*
X156297Y16376D01*
X156355Y16313D01*
X156416Y16252D01*
X156479Y16194D01*
X156546Y16139D01*
X156614Y16086D01*
X156685Y16037D01*
X156758Y15992D01*
X156833Y15949D01*
X156909Y15910D01*
X156988Y15874D01*
X157068Y15842D01*
X157149Y15814D01*
X157231Y15789D01*
X157315Y15768D01*
X157399Y15751D01*
X157484Y15737D01*
X157570Y15728D01*
X157656Y15722D01*
X157742Y15720D01*
X159661Y15720D01*
X151912Y9962D02*
X148073Y20518D01*
X141523Y19558D02*
X141431Y19556D01*
X141340Y19550D01*
X141249Y19541D01*
X141158Y19527D01*
X141068Y19510D01*
X140979Y19488D01*
X140891Y19463D01*
X140804Y19435D01*
X140718Y19402D01*
X140634Y19366D01*
X140551Y19327D01*
X140470Y19284D01*
X140391Y19237D01*
X140314Y19188D01*
X140239Y19135D01*
X140167Y19079D01*
X140097Y19020D01*
X140029Y18958D01*
X139964Y18893D01*
X139902Y18825D01*
X139843Y18755D01*
X139787Y18683D01*
X139734Y18608D01*
X139685Y18531D01*
X139638Y18452D01*
X139595Y18371D01*
X139556Y18288D01*
X139520Y18204D01*
X139487Y18118D01*
X139459Y18031D01*
X139434Y17943D01*
X139412Y17854D01*
X139395Y17764D01*
X139381Y17673D01*
X139372Y17582D01*
X139366Y17491D01*
X139364Y17399D01*
X141523Y19558D02*
X141626Y19556D01*
X141728Y19550D01*
X141830Y19541D01*
X141932Y19528D01*
X142033Y19511D01*
X142134Y19490D01*
X142233Y19466D01*
X142332Y19437D01*
X142429Y19406D01*
X142526Y19370D01*
X142621Y19332D01*
X142714Y19289D01*
X142806Y19243D01*
X142896Y19194D01*
X142984Y19142D01*
X143071Y19086D01*
X143155Y19027D01*
X143236Y18966D01*
X143316Y18901D01*
X143393Y18833D01*
X143468Y18762D01*
X143539Y18689D01*
X143608Y18613D01*
X143675Y18535D01*
X143738Y18454D01*
X143798Y18371D01*
X143855Y18286D01*
X143909Y18199D01*
X143960Y18109D01*
X144007Y18018D01*
X144051Y17926D01*
X144092Y17831D01*
X144129Y17736D01*
X144162Y17639D01*
X140084Y15720D02*
X140017Y15786D01*
X139953Y15855D01*
X139892Y15926D01*
X139834Y16000D01*
X139779Y16076D01*
X139727Y16154D01*
X139678Y16234D01*
X139632Y16316D01*
X139590Y16400D01*
X139551Y16486D01*
X139516Y16573D01*
X139485Y16661D01*
X139457Y16751D01*
X139432Y16841D01*
X139411Y16933D01*
X139394Y17025D01*
X139381Y17118D01*
X139372Y17211D01*
X139366Y17305D01*
X139364Y17399D01*
X140084Y15720D02*
X144162Y10922D01*
X139364Y10922D01*
X135018Y15240D02*
X135016Y15410D01*
X135010Y15580D01*
X135000Y15749D01*
X134986Y15919D01*
X134967Y16088D01*
X134945Y16256D01*
X134919Y16424D01*
X134889Y16591D01*
X134854Y16757D01*
X134816Y16923D01*
X134774Y17088D01*
X134728Y17251D01*
X134678Y17414D01*
X134624Y17575D01*
X134567Y17735D01*
X134505Y17893D01*
X134440Y18050D01*
X134371Y18205D01*
X134298Y18359D01*
X134270Y18435D01*
X134238Y18510D01*
X134203Y18584D01*
X134165Y18656D01*
X134123Y18726D01*
X134078Y18794D01*
X134030Y18860D01*
X133979Y18924D01*
X133925Y18985D01*
X133869Y19044D01*
X133809Y19100D01*
X133748Y19153D01*
X133684Y19203D01*
X133617Y19251D01*
X133549Y19295D01*
X133478Y19336D01*
X133406Y19374D01*
X133332Y19408D01*
X133257Y19439D01*
X133180Y19467D01*
X133102Y19491D01*
X133023Y19511D01*
X132943Y19528D01*
X132863Y19541D01*
X132782Y19551D01*
X132701Y19556D01*
X132619Y19558D01*
X132537Y19556D01*
X132456Y19551D01*
X132375Y19541D01*
X132295Y19528D01*
X132215Y19511D01*
X132136Y19491D01*
X132058Y19467D01*
X131981Y19439D01*
X131906Y19408D01*
X131832Y19374D01*
X131760Y19336D01*
X131689Y19295D01*
X131621Y19251D01*
X131554Y19203D01*
X131490Y19153D01*
X131429Y19100D01*
X131369Y19044D01*
X131313Y18985D01*
X131259Y18924D01*
X131208Y18860D01*
X131160Y18794D01*
X131115Y18726D01*
X131073Y18656D01*
X131035Y18584D01*
X131000Y18510D01*
X130968Y18435D01*
X130940Y18359D01*
X130867Y18205D01*
X130798Y18050D01*
X130733Y17893D01*
X130671Y17735D01*
X130614Y17575D01*
X130560Y17414D01*
X130510Y17251D01*
X130464Y17088D01*
X130422Y16923D01*
X130384Y16757D01*
X130349Y16591D01*
X130319Y16424D01*
X130293Y16256D01*
X130271Y16088D01*
X130252Y15919D01*
X130238Y15749D01*
X130228Y15580D01*
X130222Y15410D01*
X130220Y15240D01*
X135018Y15240D02*
X135016Y15070D01*
X135010Y14900D01*
X135000Y14731D01*
X134986Y14561D01*
X134967Y14392D01*
X134945Y14224D01*
X134919Y14056D01*
X134889Y13889D01*
X134854Y13723D01*
X134816Y13557D01*
X134774Y13392D01*
X134728Y13229D01*
X134678Y13067D01*
X134624Y12905D01*
X134567Y12746D01*
X134505Y12587D01*
X134440Y12430D01*
X134371Y12275D01*
X134298Y12121D01*
X134270Y12045D01*
X134238Y11970D01*
X134203Y11896D01*
X134165Y11824D01*
X134123Y11754D01*
X134078Y11686D01*
X134030Y11620D01*
X133979Y11556D01*
X133925Y11495D01*
X133869Y11436D01*
X133809Y11380D01*
X133748Y11327D01*
X133684Y11277D01*
X133617Y11229D01*
X133549Y11185D01*
X133478Y11144D01*
X133406Y11106D01*
X133332Y11072D01*
X133257Y11041D01*
X133180Y11013D01*
X133102Y10989D01*
X133023Y10969D01*
X132943Y10952D01*
X132863Y10939D01*
X132782Y10929D01*
X132701Y10924D01*
X132619Y10922D01*
X130940Y12121D02*
X130867Y12275D01*
X130798Y12430D01*
X130733Y12587D01*
X130671Y12746D01*
X130614Y12905D01*
X130560Y13067D01*
X130510Y13229D01*
X130464Y13392D01*
X130422Y13557D01*
X130384Y13723D01*
X130349Y13889D01*
X130319Y14056D01*
X130293Y14224D01*
X130271Y14392D01*
X130252Y14561D01*
X130238Y14731D01*
X130228Y14900D01*
X130222Y15070D01*
X130220Y15240D01*
X130940Y12121D02*
X130968Y12045D01*
X131000Y11970D01*
X131035Y11896D01*
X131073Y11824D01*
X131115Y11754D01*
X131160Y11686D01*
X131208Y11620D01*
X131259Y11556D01*
X131313Y11495D01*
X131369Y11436D01*
X131429Y11380D01*
X131490Y11327D01*
X131554Y11277D01*
X131621Y11229D01*
X131689Y11185D01*
X131760Y11144D01*
X131832Y11106D01*
X131906Y11072D01*
X131981Y11041D01*
X132058Y11013D01*
X132136Y10989D01*
X132215Y10969D01*
X132295Y10952D01*
X132375Y10939D01*
X132456Y10929D01*
X132537Y10924D01*
X132619Y10922D01*
X134538Y12841D02*
X130700Y17639D01*
X123235Y19558D02*
X123143Y19556D01*
X123052Y19550D01*
X122961Y19541D01*
X122870Y19527D01*
X122780Y19510D01*
X122691Y19488D01*
X122603Y19463D01*
X122516Y19435D01*
X122430Y19402D01*
X122346Y19366D01*
X122263Y19327D01*
X122182Y19284D01*
X122103Y19237D01*
X122026Y19188D01*
X121951Y19135D01*
X121879Y19079D01*
X121809Y19020D01*
X121741Y18958D01*
X121676Y18893D01*
X121614Y18825D01*
X121555Y18755D01*
X121499Y18683D01*
X121446Y18608D01*
X121397Y18531D01*
X121350Y18452D01*
X121307Y18371D01*
X121268Y18288D01*
X121232Y18204D01*
X121199Y18118D01*
X121171Y18031D01*
X121146Y17943D01*
X121124Y17854D01*
X121107Y17764D01*
X121093Y17673D01*
X121084Y17582D01*
X121078Y17491D01*
X121076Y17399D01*
X123235Y19558D02*
X123338Y19556D01*
X123440Y19550D01*
X123542Y19541D01*
X123644Y19528D01*
X123745Y19511D01*
X123846Y19490D01*
X123945Y19466D01*
X124044Y19437D01*
X124141Y19406D01*
X124238Y19370D01*
X124333Y19332D01*
X124426Y19289D01*
X124518Y19243D01*
X124608Y19194D01*
X124696Y19142D01*
X124783Y19086D01*
X124867Y19027D01*
X124948Y18966D01*
X125028Y18901D01*
X125105Y18833D01*
X125180Y18762D01*
X125251Y18689D01*
X125320Y18613D01*
X125387Y18535D01*
X125450Y18454D01*
X125510Y18371D01*
X125567Y18286D01*
X125621Y18199D01*
X125672Y18109D01*
X125719Y18018D01*
X125763Y17926D01*
X125804Y17831D01*
X125841Y17736D01*
X125874Y17639D01*
X121796Y15720D02*
X121729Y15786D01*
X121665Y15855D01*
X121604Y15926D01*
X121546Y16000D01*
X121491Y16076D01*
X121439Y16154D01*
X121390Y16234D01*
X121344Y16316D01*
X121302Y16400D01*
X121263Y16486D01*
X121228Y16573D01*
X121197Y16661D01*
X121169Y16751D01*
X121144Y16841D01*
X121123Y16933D01*
X121106Y17025D01*
X121093Y17118D01*
X121084Y17211D01*
X121078Y17305D01*
X121076Y17399D01*
X121796Y15720D02*
X125874Y10922D01*
X121076Y10922D01*
X116730Y10922D02*
X113851Y10922D01*
X113765Y10924D01*
X113679Y10930D01*
X113593Y10939D01*
X113508Y10953D01*
X113424Y10970D01*
X113340Y10991D01*
X113258Y11016D01*
X113177Y11044D01*
X113097Y11076D01*
X113018Y11112D01*
X112942Y11151D01*
X112867Y11194D01*
X112794Y11239D01*
X112723Y11288D01*
X112655Y11341D01*
X112588Y11396D01*
X112525Y11454D01*
X112464Y11515D01*
X112406Y11578D01*
X112351Y11645D01*
X112298Y11713D01*
X112249Y11784D01*
X112204Y11857D01*
X112161Y11932D01*
X112122Y12008D01*
X112086Y12087D01*
X112054Y12167D01*
X112026Y12248D01*
X112001Y12330D01*
X111980Y12414D01*
X111963Y12498D01*
X111949Y12583D01*
X111940Y12669D01*
X111934Y12755D01*
X111932Y12841D01*
X111932Y13801D01*
X111934Y13887D01*
X111940Y13973D01*
X111949Y14059D01*
X111963Y14144D01*
X111980Y14228D01*
X112001Y14312D01*
X112026Y14394D01*
X112054Y14475D01*
X112086Y14555D01*
X112122Y14634D01*
X112161Y14710D01*
X112204Y14785D01*
X112249Y14858D01*
X112299Y14929D01*
X112351Y14997D01*
X112406Y15064D01*
X112464Y15127D01*
X112525Y15188D01*
X112588Y15246D01*
X112655Y15301D01*
X112723Y15354D01*
X112794Y15403D01*
X112867Y15448D01*
X112942Y15491D01*
X113018Y15530D01*
X113097Y15566D01*
X113177Y15598D01*
X113258Y15626D01*
X113341Y15651D01*
X113424Y15672D01*
X113508Y15689D01*
X113593Y15703D01*
X113679Y15712D01*
X113765Y15718D01*
X113851Y15720D01*
X116730Y15720D01*
X116730Y19558D01*
X111932Y19558D01*
D11*
X102020Y99060D02*
X113450Y110490D01*
X102020Y99060D02*
X66460Y99060D01*
X61380Y93980D01*
X61380Y81280D01*
X66460Y76200D01*
X86780Y76200D01*
X142660Y110490D02*
X150280Y110490D01*
X150280Y68580D01*
X145200Y63500D01*
X99480Y63500D02*
X86780Y76200D01*
X113450Y110490D02*
X122340Y110490D01*
D12*
X145200Y63500D02*
X99480Y63500D01*
D13*
X257340Y112640D03*
X257340Y95640D03*
D14*
X110020Y72250D03*
X110020Y54750D03*
D15*
X371700Y91440D03*
X388700Y91440D03*
D13*
X188760Y72000D03*
X188760Y55000D03*
D15*
X170100Y162560D03*
X187100Y162560D03*
D13*
X386880Y55000D03*
X386880Y72000D03*
D16*
X75000Y87300D03*
X75000Y112700D03*
D17*
X132280Y97790D03*
X184280Y97790D03*
X132280Y85090D03*
X132280Y110490D03*
X132280Y123190D03*
X184280Y85090D03*
X184280Y110490D03*
X184280Y123190D03*
X320240Y120650D03*
X372240Y120650D03*
X320240Y107950D03*
X320240Y133350D03*
X320240Y146050D03*
X372240Y107950D03*
X372240Y133350D03*
X372240Y146050D03*
D16*
X25000Y87300D03*
X25000Y112700D03*
D15*
X216700Y112640D03*
X216700Y95640D03*
X399580Y138040D03*
X399580Y121040D03*
X419900Y121040D03*
X419900Y138040D03*
X257340Y55000D03*
X257340Y72000D03*
X297980Y55000D03*
X297980Y72000D03*
X277660Y72000D03*
X277660Y55000D03*
X237020Y112640D03*
X237020Y95640D03*
X277660Y95640D03*
X277660Y112640D03*
X237020Y72000D03*
X237020Y55000D03*
X132880Y72000D03*
X132880Y55000D03*
D13*
X170100Y142240D03*
X187100Y142240D03*
X137080Y142240D03*
X154080Y142240D03*
D15*
X318300Y72000D03*
X318300Y55000D03*
D18*
X253150Y24220D03*
X278550Y24220D03*
X303950Y24220D03*
X329350Y24220D03*
X380150Y24220D03*
X354750Y24220D03*
X430950Y176620D03*
X430950Y24220D03*
X405550Y176620D03*
X380150Y176620D03*
X354750Y176620D03*
X329350Y176620D03*
X303950Y176620D03*
X278550Y176620D03*
X253150Y176620D03*
X405550Y24220D03*
M02*
