M48
;GenerationSoftware,Autodesk,EAGLE,9.6.2*%
;CreationDate,2025-03-20T21:50:47Z*%
FMAT,2
ICI,OFF
METRIC,TZ,000.000
T3C0.350
T2C0.813
T1C1.000
%
G90
M71
T1
X25315Y2422
X27855Y2422
X30395Y2422
X32935Y2422
X38015Y2422
X35475Y2422
X43095Y17662
X43095Y2422
X40555Y17662
X38015Y17662
X35475Y17662
X32935Y17662
X30395Y17662
X27855Y17662
X25315Y17662
X40555Y2422
T2
X7500Y8730
X7500Y11270
X2500Y8730
X2500Y11270
T3
X26496Y16002
X25734Y14986
X27258Y14986
X29417Y11938
X20146Y7112
X20146Y14224
M30